Pinnacle-Bold.ufo
<glyph name="exclam" format="1">
  <advance width="400"/>
  <unicode hex="0021"/>
  <outline>
    <contour>
      <point x="281" y="228" type="line"/>
      <point x="281" y="700" type="line"/>
      <point x="121" y="700" type="line"/>
      <point x="121" y="228" type="line"/>
    </contour>
    <component base="bullet" yOffset="432" yScale="-1"/>
  </outline>
</glyph>
<glyph name="quotedbl" format="1">
  <advance width="632"/>
  <unicode hex="0022"/>
  <outline>
    <contour>
      <point x="265" y="533" type="line"/>
      <point x="195" y="556" type="line"/>
      <point x="111" y="466" type="line"/>
      <point x="145" y="422" type="line"/>
    </contour>
    <contour>
      <point x="256" y="509"/>
      <point x="300" y="554"/>
      <point x="300" y="609" type="curve" smooth="yes"/>
      <point x="300" y="664"/>
      <point x="256" y="709"/>
      <point x="200" y="709" type="curve" smooth="yes"/>
      <point x="145" y="709"/>
      <point x="100" y="664"/>
      <point x="100" y="609" type="curve" smooth="yes"/>
      <point x="100" y="554"/>
      <point x="145" y="509"/>
      <point x="200" y="509" type="curve" smooth="yes"/>
    </contour>
    <contour>
      <point x="497" y="533" type="line"/>
      <point x="427" y="556" type="line"/>
      <point x="343" y="466" type="line"/>
      <point x="377" y="422" type="line"/>
    </contour>
    <contour>
      <point x="488" y="509"/>
      <point x="532" y="554"/>
      <point x="532" y="609" type="curve" smooth="yes"/>
      <point x="532" y="664"/>
      <point x="488" y="709"/>
      <point x="432" y="709" type="curve" smooth="yes"/>
      <point x="377" y="709"/>
      <point x="332" y="664"/>
      <point x="332" y="609" type="curve" smooth="yes"/>
      <point x="332" y="554"/>
      <point x="377" y="509"/>
      <point x="432" y="509" type="curve" smooth="yes"/>
    </contour>
  </outline>
</glyph>
<glyph name="numbersign" format="2">
	<advance width="691"/>
	<unicode hex="0023"/>
	<outline>
		<contour>
			<point x="273" y="750" type="line"/>
			<point x="153" y="-50" type="line"/>
			<point x="255" y="-50" type="line"/>
			<point x="375" y="750" type="line"/>
		</contour>
		<contour>
			<point x="422" y="750" type="line"/>
			<point x="302" y="-50" type="line"/>
			<point x="404" y="-50" type="line"/>
			<point x="524" y="750" type="line"/>
		</contour>
		<contour>
			<point x="148" y="520" type="line"/>
			<point x="134" y="420" type="line"/>
			<point x="577" y="420" type="line"/>
			<point x="591" y="520" type="line"/>
		</contour>
		<contour>
			<point x="114" y="271" type="line"/>
			<point x="100" y="171" type="line"/>
			<point x="543" y="171" type="line"/>
			<point x="557" y="271" type="line"/>
		</contour>
	</outline>
</glyph>
<glyph name="dollar" format="1">
  <advance width="730"/>
  <unicode hex="0024"/>
  <outline>
    <contour>
      <point x="460" y="70" type="line" smooth="yes"/>
      <point x="553" y="70"/>
      <point x="630" y="146"/>
      <point x="630" y="240" type="curve" smooth="yes"/>
      <point x="630" y="335"/>
      <point x="555" y="410"/>
      <point x="460" y="410" type="curve" smooth="yes"/>
      <point x="270" y="410" type="line" smooth="yes"/>
      <point x="242" y="410"/>
      <point x="220" y="432"/>
      <point x="220" y="460" type="curve" smooth="yes"/>
      <point x="220" y="488"/>
      <point x="242" y="510"/>
      <point x="270" y="510" type="curve" smooth="yes"/>
      <point x="565" y="510" type="line"/>
      <point x="565" y="630" type="line"/>
      <point x="270" y="630" type="line" smooth="yes"/>
      <point x="176" y="630"/>
      <point x="100" y="554"/>
      <point x="100" y="460" type="curve" smooth="yes"/>
      <point x="100" y="365"/>
      <point x="175" y="290"/>
      <point x="270" y="290" type="curve" smooth="yes"/>
      <point x="460" y="290" type="line" smooth="yes"/>
      <point x="488" y="290"/>
      <point x="510" y="268"/>
      <point x="510" y="240" type="curve" smooth="yes"/>
      <point x="510" y="212"/>
      <point x="488" y="190"/>
      <point x="460" y="190" type="curve" smooth="yes"/>
      <point x="145" y="190" type="line"/>
      <point x="145" y="70" type="line"/>
    </contour>
    <contour>
      <point x="425" y="-26" type="line"/>
      <point x="425" y="125" type="line"/>
      <point x="305" y="125" type="line"/>
      <point x="305" y="-26" type="line"/>
    </contour>
    <contour>
      <point x="425" y="565" type="line"/>
      <point x="425" y="729" type="line"/>
      <point x="305" y="729" type="line"/>
      <point x="305" y="565" type="line"/>
    </contour>
  </outline>
</glyph>
<glyph name="percent" format="2">
	<advance width="800"/>
	<unicode hex="0025"/>
	<outline>
		<contour>
			<point x="164" y="9" type="line"/>
			<point x="691" y="634" type="line"/>
			<point x="626" y="688" type="line"/>
			<point x="102" y="64" type="line"/>
		</contour>
		<contour>
			<point x="214" y="391" type="curve" smooth="yes"/>
			<point x="286" y="391"/>
			<point x="344" y="449"/>
			<point x="344" y="521" type="curve" smooth="yes"/>
			<point x="344" y="571" type="line" smooth="yes"/>
			<point x="344" y="642"/>
			<point x="285" y="701"/>
			<point x="214" y="701" type="curve" smooth="yes"/>
			<point x="143" y="701"/>
			<point x="84" y="642"/>
			<point x="84" y="571" type="curve" smooth="yes"/>
			<point x="84" y="521" type="line" smooth="yes"/>
			<point x="84" y="450"/>
			<point x="143" y="391"/>
		</contour>
		<contour>
			<point x="214" y="475" type="curve" smooth="yes"/>
			<point x="189" y="475"/>
			<point x="168" y="496"/>
			<point x="168" y="521" type="curve" smooth="yes"/>
			<point x="168" y="571" type="line" smooth="yes"/>
			<point x="168" y="596"/>
			<point x="189" y="617"/>
			<point x="214" y="617" type="curve" smooth="yes"/>
			<point x="239" y="617"/>
			<point x="260" y="596"/>
			<point x="260" y="571" type="curve" smooth="yes"/>
			<point x="260" y="521" type="line" smooth="yes"/>
			<point x="260" y="496"/>
			<point x="239" y="475"/>
		</contour>
		<contour>
			<point x="586" y="1" type="curve" smooth="yes"/>
			<point x="657" y="1"/>
			<point x="716" y="60"/>
			<point x="716" y="131" type="curve" smooth="yes"/>
			<point x="716" y="181" type="line" smooth="yes"/>
			<point x="716" y="252"/>
			<point x="657" y="311"/>
			<point x="586" y="311" type="curve" smooth="yes"/>
			<point x="515" y="311"/>
			<point x="456" y="252"/>
			<point x="456" y="181" type="curve" smooth="yes"/>
			<point x="456" y="131" type="line" smooth="yes"/>
			<point x="456" y="60"/>
			<point x="515" y="1"/>
		</contour>
		<contour>
			<point x="586" y="85" type="curve" smooth="yes"/>
			<point x="561" y="85"/>
			<point x="540" y="106"/>
			<point x="540" y="131" type="curve" smooth="yes"/>
			<point x="540" y="181" type="line" smooth="yes"/>
			<point x="540" y="205"/>
			<point x="562" y="227"/>
			<point x="586" y="227" type="curve" smooth="yes"/>
			<point x="611" y="227"/>
			<point x="632" y="206"/>
			<point x="632" y="181" type="curve" smooth="yes"/>
			<point x="632" y="131" type="line" smooth="yes"/>
			<point x="632" y="106"/>
			<point x="611" y="85"/>
		</contour>
	</outline>
</glyph>
<glyph name="ampersand" format="1">
  <advance width="922"/>
  <unicode hex="0026"/>
  <outline>
    <contour>
      <point x="842" y="0" type="line"/>
      <point x="335" y="508" type="line"/>
      <point x="325" y="519"/>
      <point x="320" y="533"/>
      <point x="320" y="549" type="curve" smooth="yes"/>
      <point x="320" y="586"/>
      <point x="353" y="617"/>
      <point x="392" y="617" type="curve" smooth="yes"/>
      <point x="413" y="617"/>
      <point x="426" y="612"/>
      <point x="438" y="599" type="curve"/>
      <point x="554" y="710" type="line"/>
      <point x="512" y="753"/>
      <point x="455" y="777"/>
      <point x="392" y="777" type="curve" smooth="yes"/>
      <point x="265" y="777"/>
      <point x="160" y="674"/>
      <point x="160" y="549" type="curve" smooth="yes"/>
      <point x="160" y="492"/>
      <point x="182" y="437"/>
      <point x="220" y="396" type="curve"/>
      <point x="616" y="0" type="line"/>
    </contour>
    <contour>
      <point x="429" y="-9"/>
      <point x="495" y="18"/>
      <point x="544" y="67" type="curve" smooth="yes"/>
      <point x="729" y="252" type="line"/>
      <point x="616" y="365" type="line"/>
      <point x="431" y="180" type="line" smooth="yes"/>
      <point x="411" y="160"/>
      <point x="387" y="151"/>
      <point x="360" y="151" type="curve" smooth="yes"/>
      <point x="305" y="151"/>
      <point x="260" y="196"/>
      <point x="260" y="250" type="curve" smooth="yes"/>
      <point x="260" y="277"/>
      <point x="270" y="302"/>
      <point x="290" y="322" type="curve" smooth="yes"/>
      <point x="322" y="355" type="line"/>
      <point x="207" y="467" type="line"/>
      <point x="175" y="434" type="line" smooth="yes"/>
      <point x="127" y="385"/>
      <point x="100" y="318"/>
      <point x="100" y="250" type="curve" smooth="yes"/>
      <point x="100" y="107"/>
      <point x="217" y="-9"/>
      <point x="360" y="-9" type="curve" smooth="yes"/>
    </contour>
  </outline>
</glyph>
<glyph name="quotesingle" format="2">
	<advance width="240"/>
	<unicode hex="0027"/>
	<outline>
		<contour>
			<point x="86" y="445" type="line"/>
			<point x="154" y="445" type="line"/>
			<point x="180" y="624" type="line"/>
			<point x="180" y="744" type="line"/>
			<point x="60" y="744" type="line"/>
			<point x="60" y="624" type="line"/>
		</contour>
	</outline>
</glyph>
<glyph name="parenleft" format="2">
	<advance width="498"/>
	<unicode hex="0028"/>
	<outline>
		<contour>
			<point x="305" y="-153" type="curve"/>
			<point x="418" y="-41" type="line"/>
			<point x="316" y="62"/>
			<point x="260" y="198"/>
			<point x="260" y="341" type="curve" smooth="yes"/>
			<point x="260" y="485"/>
			<point x="316" y="619"/>
			<point x="418" y="723" type="curve"/>
			<point x="305" y="835" type="line"/>
			<point x="173" y="703"/>
			<point x="100" y="526"/>
			<point x="100" y="341" type="curve" smooth="yes"/>
			<point x="100" y="157"/>
			<point x="174" y="-21"/>
		</contour>
	</outline>
</glyph>
<glyph name="asterisk" format="1">
  <advance width="493"/>
  <unicode hex="002A"/>
  <outline>
    <contour>
      <point x="363" y="446" type="line"/>
      <point x="413" y="515" type="line"/>
      <point x="275" y="615" type="line"/>
      <point x="225" y="546" type="line"/>
    </contour>
    <contour>
      <point x="210" y="567" type="line"/>
      <point x="290" y="594" type="line"/>
      <point x="238" y="755" type="line"/>
      <point x="157" y="729" type="line"/>
    </contour>
    <contour>
      <point x="80" y="538" type="line"/>
      <point x="250" y="538" type="line"/>
      <point x="250" y="623" type="line"/>
      <point x="80" y="623" type="line"/>
    </contour>
    <contour>
      <point x="275" y="546" type="line"/>
      <point x="413" y="646" type="line"/>
      <point x="363" y="715" type="line"/>
      <point x="225" y="615" type="line"/>
    </contour>
    <contour>
      <point x="238" y="406" type="line"/>
      <point x="290" y="567" type="line"/>
      <point x="210" y="594" type="line"/>
      <point x="157" y="432" type="line"/>
    </contour>
  </outline>
</glyph>
<glyph name="plus" format="1">
  <advance width="620"/>
  <unicode hex="002B"/>
  <outline>
    <contour>
      <point x="250" y="140" type="line"/>
      <point x="370" y="140" type="line"/>
      <point x="370" y="560" type="line"/>
      <point x="250" y="560" type="line"/>
    </contour>
    <contour>
      <point x="100" y="410" type="line"/>
      <point x="100" y="290" type="line"/>
      <point x="520" y="290" type="line"/>
      <point x="520" y="410" type="line"/>
    </contour>
  </outline>
</glyph>
<glyph name="comma" format="1">
  <advance width="400"/>
  <unicode hex="002C"/>
  <outline>
    <contour>
      <point x="265" y="4" type="line"/>
      <point x="195" y="27" type="line"/>
      <point x="111" y="-63" type="line"/>
      <point x="145" y="-107" type="line"/>
    </contour>
    <contour>
      <point x="256" y="-20"/>
      <point x="300" y="25"/>
      <point x="300" y="80" type="curve" smooth="yes"/>
      <point x="300" y="135"/>
      <point x="256" y="180"/>
      <point x="200" y="180" type="curve" smooth="yes"/>
      <point x="145" y="180"/>
      <point x="100" y="135"/>
      <point x="100" y="80" type="curve" smooth="yes"/>
      <point x="100" y="25"/>
      <point x="145" y="-20"/>
      <point x="200" y="-20" type="curve" smooth="yes"/>
    </contour>
    <contour>
      <point x="190" y="10" type="move" name="_accent"/>
    </contour>
  </outline>
</glyph>
<glyph name="hyphen" format="1">
  <advance width="540"/>
  <unicode hex="002D"/>
  <outline>
    <contour>
      <point x="100" y="410" type="line"/>
      <point x="100" y="290" type="line"/>
      <point x="440" y="290" type="line"/>
      <point x="440" y="410" type="line"/>
    </contour>
  </outline>
</glyph>
<glyph name="period" format="1">
  <advance width="400"/>
  <unicode hex="002E"/>
  <outline>
    <contour>
      <point x="256" y="-20"/>
      <point x="300" y="25"/>
      <point x="300" y="80" type="curve" smooth="yes"/>
      <point x="300" y="135"/>
      <point x="256" y="180"/>
      <point x="200" y="180" type="curve" smooth="yes"/>
      <point x="145" y="180"/>
      <point x="100" y="135"/>
      <point x="100" y="80" type="curve" smooth="yes"/>
      <point x="100" y="25"/>
      <point x="145" y="-20"/>
      <point x="200" y="-20" type="curve" smooth="yes"/>
    </contour>
  </outline>
</glyph>
<glyph name="slash" format="1">
  <advance width="561"/>
  <unicode hex="002F"/>
  <outline>
    <contour>
      <point x="461" y="826" type="line"/>
      <point x="346" y="857" type="line"/>
      <point x="100" y="-63" type="line"/>
      <point x="215" y="-94" type="line"/>
    </contour>
  </outline>
</glyph>
<glyph name="zero" format="2">
	<advance width="693"/>
	<unicode hex="0030"/>
	<outline>
		<contour>
			<point x="347" y="-10" type="curve" smooth="yes"/>
			<point x="494" y="-10"/>
			<point x="613" y="109"/>
			<point x="613" y="256" type="curve" smooth="yes"/>
			<point x="613" y="444" type="line" smooth="yes"/>
			<point x="613" y="591"/>
			<point x="495" y="710"/>
			<point x="347" y="710" type="curve" smooth="yes"/>
			<point x="199" y="710"/>
			<point x="80" y="591"/>
			<point x="80" y="444" type="curve" smooth="yes"/>
			<point x="80" y="256" type="line" smooth="yes"/>
			<point x="80" y="109"/>
			<point x="199" y="-10"/>
		</contour>
		<contour>
			<point x="347" y="150" type="curve" smooth="yes"/>
			<point x="287" y="150"/>
			<point x="240" y="197"/>
			<point x="240" y="256" type="curve" smooth="yes"/>
			<point x="240" y="444" type="line" smooth="yes"/>
			<point x="240" y="503"/>
			<point x="287" y="550"/>
			<point x="347" y="550" type="curve" smooth="yes"/>
			<point x="405" y="550"/>
			<point x="453" y="505"/>
			<point x="453" y="450" type="curve" smooth="yes"/>
			<point x="453" y="256" type="line" smooth="yes"/>
			<point x="453" y="197"/>
			<point x="406" y="150"/>
		</contour>
	</outline>
</glyph>
<glyph name="one" format="2">
	<advance width="410"/>
	<unicode hex="0031"/>
	<outline>
		<contour>
			<point x="330" y="700" type="line"/>
			<point x="170" y="700" type="line"/>
			<point x="170" y="0" type="line"/>
			<point x="330" y="0" type="line"/>
		</contour>
		<contour>
			<point x="290" y="700" type="line"/>
			<point x="130" y="700" type="line"/>
			<point x="80" y="540" type="line"/>
			<point x="290" y="540" type="line"/>
		</contour>
	</outline>
</glyph>
<glyph name="four" format="1">
  <advance width="715"/>
  <unicode hex="0034"/>
  <outline>
    <contour>
      <point x="609" y="194" type="line"/>
      <point x="609" y="354" type="line"/>
      <point x="214" y="354" type="line"/>
      <point x="215" y="354"/>
      <point x="240" y="322"/>
      <point x="240" y="321" type="curve"/>
      <point x="240" y="321"/>
      <point x="240" y="320"/>
      <point x="240" y="319" type="curve"/>
      <point x="368" y="700" type="line"/>
      <point x="216" y="751" type="line"/>
      <point x="88" y="369" type="line" smooth="yes"/>
      <point x="82" y="352"/>
      <point x="80" y="336"/>
      <point x="80" y="321" type="curve" smooth="yes"/>
      <point x="80" y="250"/>
      <point x="134" y="194"/>
      <point x="214" y="194" type="curve" smooth="yes"/>
    </contour>
    <contour>
      <point x="635" y="0" type="line"/>
      <point x="635" y="599" type="line"/>
      <point x="475" y="599" type="line"/>
      <point x="475" y="0" type="line"/>
    </contour>
  </outline>
</glyph>
<glyph name="five" format="1">
  <advance width="735"/>
  <unicode hex="0035"/>
  <outline>
    <contour>
      <point x="440" y="0" type="line" smooth="yes"/>
      <point x="558" y="0"/>
      <point x="655" y="97"/>
      <point x="655" y="215" type="curve" smooth="yes"/>
      <point x="655" y="333"/>
      <point x="558" y="430"/>
      <point x="440" y="430" type="curve" smooth="yes"/>
      <point x="240" y="430" type="line"/>
      <point x="240" y="430"/>
      <point x="240" y="430"/>
      <point x="240" y="430" type="curve"/>
      <point x="240" y="585" type="line"/>
      <point x="195" y="540" type="line"/>
      <point x="615" y="540" type="line"/>
      <point x="615" y="700" type="line"/>
      <point x="240" y="700" type="line" smooth="yes"/>
      <point x="136" y="700"/>
      <point x="80" y="644"/>
      <point x="80" y="540" type="curve" smooth="yes"/>
      <point x="80" y="430" type="line" smooth="yes"/>
      <point x="80" y="326"/>
      <point x="136" y="270"/>
      <point x="240" y="270" type="curve" smooth="yes"/>
      <point x="440" y="270" type="line" smooth="yes"/>
      <point x="471" y="270"/>
      <point x="495" y="246"/>
      <point x="495" y="215" type="curve" smooth="yes"/>
      <point x="495" y="184"/>
      <point x="471" y="160"/>
      <point x="440" y="160" type="curve" smooth="yes"/>
      <point x="107" y="160" type="line"/>
      <point x="107" y="0" type="line"/>
    </contour>
  </outline>
</glyph>
<glyph name="seven" format="1">
  <advance width="680"/>
  <unicode hex="0037"/>
  <outline>
    <contour>
      <point x="593" y="561" type="line" smooth="yes"/>
      <point x="598" y="575"/>
      <point x="600" y="588"/>
      <point x="600" y="602" type="curve" smooth="yes"/>
      <point x="600" y="656"/>
      <point x="559" y="700"/>
      <point x="483" y="700" type="curve" smooth="yes"/>
      <point x="80" y="700" type="line"/>
      <point x="80" y="540" type="line"/>
      <point x="425" y="540" type="line"/>
      <point x="425" y="540"/>
      <point x="425" y="540"/>
      <point x="425" y="540" type="curve"/>
      <point x="425" y="540"/>
      <point x="425" y="540"/>
      <point x="425" y="540" type="curve"/>
      <point x="245" y="0" type="line"/>
      <point x="405" y="0" type="line"/>
    </contour>
  </outline>
</glyph>
<glyph name="eight" format="1">
  <advance width="691"/>
  <unicode hex="0038"/>
  <outline>
    <contour>
      <point x="396" y="0" type="line" smooth="yes"/>
      <point x="514" y="0"/>
      <point x="611" y="97"/>
      <point x="611" y="215" type="curve" smooth="yes"/>
      <point x="611" y="280"/>
      <point x="582" y="338"/>
      <point x="537" y="376" type="curve"/>
      <point x="538" y="333" type="line"/>
      <point x="579" y="374"/>
      <point x="601" y="428"/>
      <point x="601" y="485" type="curve" smooth="yes"/>
      <point x="601" y="603"/>
      <point x="504" y="700"/>
      <point x="386" y="700" type="curve" smooth="yes"/>
      <point x="305" y="700" type="line" smooth="yes"/>
      <point x="187" y="700"/>
      <point x="90" y="603"/>
      <point x="90" y="485" type="curve" smooth="yes"/>
      <point x="90" y="428"/>
      <point x="112" y="374"/>
      <point x="153" y="333" type="curve"/>
      <point x="154" y="376" type="line"/>
      <point x="109" y="338"/>
      <point x="80" y="280"/>
      <point x="80" y="215" type="curve" smooth="yes"/>
      <point x="80" y="97"/>
      <point x="177" y="0"/>
      <point x="295" y="0" type="curve" smooth="yes"/>
    </contour>
    <contour>
      <point x="264" y="160"/>
      <point x="240" y="184"/>
      <point x="240" y="215" type="curve" smooth="yes"/>
      <point x="240" y="246"/>
      <point x="264" y="270"/>
      <point x="295" y="270" type="curve" smooth="yes"/>
      <point x="396" y="270" type="line" smooth="yes"/>
      <point x="427" y="270"/>
      <point x="451" y="246"/>
      <point x="451" y="215" type="curve" smooth="yes"/>
      <point x="451" y="184"/>
      <point x="427" y="160"/>
      <point x="396" y="160" type="curve" smooth="yes"/>
      <point x="295" y="160" type="line" smooth="yes"/>
    </contour>
    <contour>
      <point x="274" y="430"/>
      <point x="250" y="454"/>
      <point x="250" y="485" type="curve" smooth="yes"/>
      <point x="250" y="516"/>
      <point x="274" y="540"/>
      <point x="305" y="540" type="curve" smooth="yes"/>
      <point x="386" y="540" type="line" smooth="yes"/>
      <point x="417" y="540"/>
      <point x="441" y="516"/>
      <point x="441" y="485" type="curve" smooth="yes"/>
      <point x="441" y="454"/>
      <point x="417" y="430"/>
      <point x="386" y="430" type="curve" smooth="yes"/>
      <point x="305" y="430" type="line" smooth="yes"/>
    </contour>
  </outline>
</glyph>
<glyph name="nine" format="2">
	<advance width="735"/>
	<unicode hex="0039"/>
	<outline>
		<contour>
			<point x="170" y="0" type="line"/>
			<point x="440" y="0" type="line" smooth="yes"/>
			<point x="558" y="0"/>
			<point x="655" y="97"/>
			<point x="655" y="215" type="curve" smooth="yes"/>
			<point x="655" y="485" type="line" smooth="yes"/>
			<point x="655" y="603"/>
			<point x="558" y="700"/>
			<point x="440" y="700" type="curve" smooth="yes"/>
			<point x="295" y="700" type="line" smooth="yes"/>
			<point x="177" y="700"/>
			<point x="80" y="603"/>
			<point x="80" y="485" type="curve" smooth="yes"/>
			<point x="80" y="367"/>
			<point x="177" y="270"/>
			<point x="295" y="270" type="curve" smooth="yes"/>
			<point x="540" y="270" type="line"/>
			<point x="540" y="430" type="line"/>
			<point x="295" y="430" type="line" smooth="yes"/>
			<point x="264" y="430"/>
			<point x="240" y="454"/>
			<point x="240" y="485" type="curve" smooth="yes"/>
			<point x="240" y="516"/>
			<point x="264" y="540"/>
			<point x="295" y="540" type="curve" smooth="yes"/>
			<point x="440" y="540" type="line" smooth="yes"/>
			<point x="471" y="540"/>
			<point x="495" y="516"/>
			<point x="495" y="485" type="curve" smooth="yes"/>
			<point x="495" y="215" type="line" smooth="yes"/>
			<point x="495" y="184"/>
			<point x="471" y="160"/>
			<point x="440" y="160" type="curve" smooth="yes"/>
			<point x="170" y="160" type="line"/>
		</contour>
	</outline>
</glyph>
<glyph name="colon" format="1">
  <advance width="400"/>
  <unicode hex="003A"/>
  <outline>
    <contour>
      <point x="256" y="30"/>
      <point x="300" y="75"/>
      <point x="300" y="130" type="curve" smooth="yes"/>
      <point x="300" y="185"/>
      <point x="256" y="230"/>
      <point x="200" y="230" type="curve" smooth="yes"/>
      <point x="145" y="230"/>
      <point x="100" y="185"/>
      <point x="100" y="130" type="curve" smooth="yes"/>
      <point x="100" y="75"/>
      <point x="145" y="30"/>
      <point x="200" y="30" type="curve" smooth="yes"/>
    </contour>
    <contour>
      <point x="256" y="340"/>
      <point x="300" y="385"/>
      <point x="300" y="440" type="curve" smooth="yes"/>
      <point x="300" y="495"/>
      <point x="255" y="540"/>
      <point x="200" y="540" type="curve" smooth="yes"/>
      <point x="145" y="540"/>
      <point x="100" y="495"/>
      <point x="100" y="440" type="curve" smooth="yes"/>
      <point x="100" y="385"/>
      <point x="145" y="340"/>
      <point x="200" y="340" type="curve" smooth="yes"/>
    </contour>
  </outline>
</glyph>
<glyph name="semicolon" format="1">
  <advance width="400"/>
  <unicode hex="003B"/>
  <outline>
    <contour>
      <point x="265" y="4" type="line"/>
      <point x="195" y="27" type="line"/>
      <point x="111" y="-63" type="line"/>
      <point x="145" y="-107" type="line"/>
    </contour>
    <contour>
      <point x="256" y="-20"/>
      <point x="300" y="25"/>
      <point x="300" y="80" type="curve" smooth="yes"/>
      <point x="300" y="135"/>
      <point x="256" y="180"/>
      <point x="200" y="180" type="curve" smooth="yes"/>
      <point x="145" y="180"/>
      <point x="100" y="135"/>
      <point x="100" y="80" type="curve" smooth="yes"/>
      <point x="100" y="25"/>
      <point x="145" y="-20"/>
      <point x="200" y="-20" type="curve" smooth="yes"/>
    </contour>
    <contour>
      <point x="256" y="290"/>
      <point x="300" y="335"/>
      <point x="300" y="390" type="curve" smooth="yes"/>
      <point x="300" y="445"/>
      <point x="255" y="490"/>
      <point x="200" y="490" type="curve" smooth="yes"/>
      <point x="145" y="490"/>
      <point x="100" y="445"/>
      <point x="100" y="390" type="curve" smooth="yes"/>
      <point x="100" y="335"/>
      <point x="145" y="290"/>
      <point x="200" y="290" type="curve" smooth="yes"/>
    </contour>
  </outline>
</glyph>
<glyph name="less" format="1">
  <advance width="579"/>
  <unicode hex="003C"/>
  <outline>
    <contour>
      <point x="476" y="273" type="line"/>
      <point x="280" y="353" type="line"/>
      <point x="479" y="442" type="line"/>
      <point x="431" y="552" type="line"/>
      <point x="156" y="430" type="line" smooth="yes"/>
      <point x="119" y="414"/>
      <point x="100" y="383"/>
      <point x="100" y="352" type="curve" smooth="yes"/>
      <point x="100" y="321"/>
      <point x="120" y="289"/>
      <point x="159" y="273" type="curve" smooth="yes"/>
      <point x="430" y="161" type="line"/>
    </contour>
  </outline>
</glyph>
<glyph name="equal" format="1">
  <advance width="620"/>
  <unicode hex="003D"/>
  <outline>
    <contour>
      <point x="100" y="500" type="line"/>
      <point x="100" y="380" type="line"/>
      <point x="520" y="380" type="line"/>
      <point x="520" y="500" type="line"/>
    </contour>
    <contour>
      <point x="100" y="320" type="line"/>
      <point x="100" y="200" type="line"/>
      <point x="520" y="200" type="line"/>
      <point x="520" y="320" type="line"/>
    </contour>
  </outline>
</glyph>
<glyph name="question" format="1">
  <advance width="571"/>
  <unicode hex="003F"/>
  <outline>
    <contour>
      <point x="319" y="229" type="line"/>
      <point x="319" y="254"/>
      <point x="340" y="280"/>
      <point x="405" y="345" type="curve" smooth="yes"/>
      <point x="448" y="388"/>
      <point x="471" y="444"/>
      <point x="471" y="493" type="curve" smooth="yes"/>
      <point x="471" y="629"/>
      <point x="361" y="739"/>
      <point x="226" y="739" type="curve" smooth="yes"/>
      <point x="143" y="739"/>
      <point x="66" y="697"/>
      <point x="20" y="627" type="curve"/>
      <point x="153" y="539" type="line"/>
      <point x="170" y="564"/>
      <point x="197" y="579"/>
      <point x="226" y="579" type="curve" smooth="yes"/>
      <point x="273" y="579"/>
      <point x="311" y="540"/>
      <point x="311" y="493" type="curve" smooth="yes"/>
      <point x="311" y="452"/>
      <point x="281" y="423"/>
      <point x="247" y="391" type="curve" smooth="yes"/>
      <point x="194" y="341"/>
      <point x="159" y="276"/>
      <point x="159" y="229" type="curve"/>
    </contour>
    <component base="bullet" xOffset="37" yOffset="432" yScale="-1"/>
  </outline>
</glyph>
<glyph name="at" format="1">
  <advance width="1224"/>
  <unicode hex="0040"/>
  <outline>
    <contour>
      <point x="796" y="479" type="line" smooth="yes"/>
      <point x="770" y="558"/>
      <point x="696" y="611"/>
      <point x="613" y="611" type="curve" smooth="yes"/>
      <point x="529" y="611"/>
      <point x="456" y="558"/>
      <point x="430" y="479" type="curve" smooth="yes"/>
      <point x="307" y="99" type="line"/>
      <point x="459" y="50" type="line"/>
      <point x="582" y="428" type="line" smooth="yes"/>
      <point x="587" y="444"/>
      <point x="600" y="451"/>
      <point x="613" y="451" type="curve" smooth="yes"/>
      <point x="626" y="451"/>
      <point x="639" y="444"/>
      <point x="644" y="428" type="curve" smooth="yes"/>
      <point x="757" y="80" type="line"/>
      <point x="925" y="80" type="line"/>
    </contour>
    <contour>
      <point x="1070" y="80"/>
      <point x="1144" y="154"/>
      <point x="1144" y="290" type="curve" smooth="yes"/>
      <point x="1144" y="584"/>
      <point x="906" y="822"/>
      <point x="612" y="822" type="curve" smooth="yes"/>
      <point x="318" y="822"/>
      <point x="80" y="584"/>
      <point x="80" y="290" type="curve" smooth="yes"/>
      <point x="80" y="-4"/>
      <point x="318" y="-242"/>
      <point x="612" y="-242" type="curve" smooth="yes"/>
      <point x="759" y="-242"/>
      <point x="892" y="-182"/>
      <point x="988" y="-86" type="curve"/>
      <point x="898" y="3" type="line"/>
      <point x="822" y="-74"/>
      <point x="721" y="-116"/>
      <point x="612" y="-116" type="curve" smooth="yes"/>
      <point x="387" y="-116"/>
      <point x="206" y="66"/>
      <point x="206" y="290" type="curve" smooth="yes"/>
      <point x="206" y="515"/>
      <point x="387" y="696"/>
      <point x="612" y="696" type="curve" smooth="yes"/>
      <point x="837" y="696"/>
      <point x="1018" y="515"/>
      <point x="1018" y="290" type="curve" smooth="yes"/>
      <point x="1018" y="241"/>
      <point x="981" y="206"/>
      <point x="932" y="206" type="curve" smooth="yes"/>
      <point x="838" y="206" type="line"/>
      <point x="838" y="80" type="line"/>
      <point x="934" y="80" type="line" smooth="yes"/>
    </contour>
  </outline>
</glyph>
<glyph name="A" format="1">
  <advance width="828"/>
  <unicode hex="0041"/>
  <outline>
    <contour>
      <point x="230" y="280" type="line"/>
      <point x="230" y="120" type="line"/>
      <point x="599" y="120" type="line"/>
      <point x="599" y="280" type="line"/>
    </contour>
    <contour>
      <point x="595" y="598" type="line"/>
      <point x="568" y="674"/>
      <point x="496" y="725"/>
      <point x="415" y="725" type="curve"/>
      <point x="334" y="725"/>
      <point x="261" y="675"/>
      <point x="234" y="598" type="curve"/>
      <point x="40" y="0" type="line"/>
      <point x="209" y="0" type="line"/>
      <point x="386" y="546" type="line"/>
      <point x="390" y="557"/>
      <point x="402" y="565"/>
      <point x="415" y="565" type="curve"/>
      <point x="428" y="565"/>
      <point x="439" y="558"/>
      <point x="443" y="546" type="curve"/>
      <point x="621" y="0" type="line"/>
      <point x="788" y="0" type="line"/>
    </contour>
    <contour>
      <point x="415" y="-167" type="move" name="below"/>
    </contour>
    <contour>
      <point x="415" y="869" type="move" name="accent"/>
    </contour>
    <contour>
      <point x="414" y="1079" type="move" name="above"/>
    </contour>
    <contour>
      <point x="689" y="8" type="move" name="bottom"/>
    </contour>
  </outline>
</glyph>
<glyph name="B" format="2">
	<advance width="800"/>
	<unicode hex="0042"/>
	<outline>
		<contour>
			<point x="143" y="0" type="curve" smooth="yes"/>
			<point x="523" y="0" type="line" smooth="yes"/>
			<point x="641" y="0"/>
			<point x="738" y="97"/>
			<point x="738" y="215" type="curve" smooth="yes"/>
			<point x="738" y="289"/>
			<point x="700" y="354"/>
			<point x="644" y="392" type="curve"/>
			<point x="650" y="350" type="line"/>
			<point x="681" y="388"/>
			<point x="698" y="435"/>
			<point x="698" y="485" type="curve" smooth="yes"/>
			<point x="698" y="603"/>
			<point x="601" y="700"/>
			<point x="483" y="700" type="curve" smooth="yes"/>
			<point x="143" y="700" type="line" smooth="yes"/>
			<point x="91" y="700"/>
			<point x="63" y="672"/>
			<point x="63" y="620" type="curve" smooth="yes"/>
			<point x="63" y="80" type="line" smooth="yes"/>
			<point x="63" y="28"/>
			<point x="91" y="0"/>
		</contour>
		<contour>
			<point x="223" y="160" type="line"/>
			<point x="223" y="270" type="line"/>
			<point x="523" y="270" type="line" smooth="yes"/>
			<point x="554" y="270"/>
			<point x="578" y="246"/>
			<point x="578" y="215" type="curve" smooth="yes"/>
			<point x="578" y="184"/>
			<point x="554" y="160"/>
			<point x="523" y="160" type="curve" smooth="yes"/>
		</contour>
		<contour>
			<point x="223" y="430" type="line"/>
			<point x="223" y="540" type="line"/>
			<point x="483" y="540" type="line" smooth="yes"/>
			<point x="514" y="540"/>
			<point x="538" y="516"/>
			<point x="538" y="485" type="curve" smooth="yes"/>
			<point x="538" y="454"/>
			<point x="514" y="430"/>
			<point x="483" y="430" type="curve" smooth="yes"/>
		</contour>
	</outline>
</glyph>
<glyph name="D" format="1">
  <advance width="800"/>
  <unicode hex="0044"/>
  <outline>
    <contour>
      <point x="380" y="-10" type="line" smooth="yes"/>
      <point x="579" y="-10"/>
      <point x="740" y="151"/>
      <point x="740" y="350" type="curve" smooth="yes"/>
      <point x="740" y="549"/>
      <point x="579" y="710"/>
      <point x="380" y="710" type="curve" smooth="yes"/>
      <point x="240" y="710" type="line" smooth="yes"/>
      <point x="136" y="710"/>
      <point x="80" y="654"/>
      <point x="80" y="550" type="curve" smooth="yes"/>
      <point x="80" y="150" type="line" smooth="yes"/>
      <point x="80" y="46"/>
      <point x="136" y="-10"/>
      <point x="240" y="-10" type="curve" smooth="yes"/>
    </contour>
    <contour>
      <point x="240" y="550" type="line"/>
      <point x="380" y="550" type="line" smooth="yes"/>
      <point x="490" y="550"/>
      <point x="580" y="460"/>
      <point x="580" y="350" type="curve" smooth="yes"/>
      <point x="580" y="240"/>
      <point x="490" y="150"/>
      <point x="380" y="150" type="curve" smooth="yes"/>
      <point x="240" y="150" type="line"/>
    </contour>
    <contour>
      <point x="160" y="350" type="move" name="bar"/>
    </contour>
    <contour>
      <point x="160" y="350" type="move" name="stroke"/>
    </contour>
    <contour>
      <point x="380" y="869" type="move" name="accent"/>
    </contour>
  </outline>
</glyph>
<glyph name="E" format="1">
  <advance width="775"/>
  <unicode hex="0045"/>
  <outline>
    <contour>
      <point x="240" y="160" type="line"/>
      <point x="240" y="540" type="line"/>
      <point x="695" y="540" type="line"/>
      <point x="695" y="700" type="line"/>
      <point x="240" y="700" type="line" smooth="yes"/>
      <point x="136" y="700"/>
      <point x="80" y="644"/>
      <point x="80" y="540" type="curve" smooth="yes"/>
      <point x="80" y="160" type="line" smooth="yes"/>
      <point x="80" y="56"/>
      <point x="136" y="0"/>
      <point x="240" y="0" type="curve" smooth="yes"/>
      <point x="695" y="0" type="line"/>
      <point x="695" y="160" type="line"/>
    </contour>
    <contour>
      <point x="160" y="430" type="line"/>
      <point x="160" y="270" type="line"/>
      <point x="553" y="270" type="line"/>
      <point x="553" y="430" type="line"/>
    </contour>
    <contour>
      <point x="398" y="-167" type="move" name="below"/>
    </contour>
    <contour>
      <point x="398" y="869" type="move" name="accent"/>
    </contour>
    <contour>
      <point x="398" y="1079" type="move" name="above"/>
    </contour>
    <contour>
      <point x="403" y="8" type="move" name="bottom"/>
    </contour>
  </outline>
</glyph>
<glyph name="F" format="1">
  <advance width="715"/>
  <unicode hex="0046"/>
  <outline>
    <contour>
      <point x="240" y="700" type="line" smooth="yes"/>
      <point x="136" y="700"/>
      <point x="80" y="644"/>
      <point x="80" y="540" type="curve" smooth="yes"/>
      <point x="80" y="0" type="line"/>
      <point x="240" y="0" type="line"/>
      <point x="240" y="540" type="line"/>
      <point x="655" y="540" type="line"/>
      <point x="655" y="700" type="line"/>
    </contour>
    <contour>
      <point x="160" y="430" type="line"/>
      <point x="160" y="270" type="line"/>
      <point x="493" y="270" type="line"/>
      <point x="493" y="430" type="line"/>
    </contour>
  </outline>
</glyph>
<glyph name="H" format="2">
	<advance width="800"/>
	<unicode hex="0048"/>
	<anchor x="402" y="557" name="bar"/>
	<outline>
		<contour>
			<point x="558" y="0" type="line"/>
			<point x="718" y="0" type="line"/>
			<point x="718" y="700" type="line"/>
			<point x="558" y="700" type="line"/>
		</contour>
		<contour>
			<point x="83" y="0" type="line"/>
			<point x="243" y="0" type="line"/>
			<point x="243" y="700" type="line"/>
			<point x="83" y="700" type="line"/>
		</contour>
		<contour>
			<point x="163" y="270" type="line"/>
			<point x="641" y="270" type="line"/>
			<point x="641" y="430" type="line"/>
			<point x="163" y="430" type="line"/>
		</contour>
	</outline>
</glyph>
<glyph name="I" format="1">
  <advance width="320"/>
  <unicode hex="0049"/>
  <outline>
    <contour>
      <point x="80" y="700" type="line"/>
      <point x="80" y="0" type="line"/>
      <point x="240" y="0" type="line"/>
      <point x="240" y="700" type="line"/>
    </contour>
    <contour>
      <point x="160" y="-167" type="move" name="below"/>
    </contour>
    <contour>
      <point x="160" y="869" type="move" name="accent"/>
    </contour>
    <contour>
      <point x="160" y="1079" type="move" name="above"/>
    </contour>
    <contour>
      <point x="152" y="8" type="move" name="bottom"/>
    </contour>
  </outline>
</glyph>
<glyph name="J" format="1">
  <advance width="635"/>
  <unicode hex="004A"/>
  <outline>
    <contour>
      <point x="395" y="700" type="line"/>
      <point x="395" y="320" type="line" smooth="yes"/>
      <point x="395" y="216"/>
      <point x="339" y="160"/>
      <point x="235" y="160" type="curve" smooth="yes"/>
      <point x="80" y="160" type="line"/>
      <point x="80" y="0" type="line"/>
      <point x="235" y="0" type="line" smooth="yes"/>
      <point x="429" y="0"/>
      <point x="555" y="126"/>
      <point x="555" y="320" type="curve" smooth="yes"/>
      <point x="555" y="700" type="line"/>
    </contour>
  </outline>
</glyph>
<glyph name="K" format="1">
  <advance width="777"/>
  <unicode hex="004B"/>
  <outline>
    <contour>
      <point x="717" y="0" type="line"/>
      <point x="454" y="300" type="line" smooth="yes"/>
      <point x="440" y="315"/>
      <point x="434" y="333"/>
      <point x="434" y="350" type="curve" smooth="yes"/>
      <point x="434" y="367"/>
      <point x="441" y="385"/>
      <point x="454" y="400" type="curve" smooth="yes"/>
      <point x="717" y="700" type="line"/>
      <point x="504" y="700" type="line"/>
      <point x="334" y="506" type="line" smooth="yes"/>
      <point x="294" y="460"/>
      <point x="274" y="405"/>
      <point x="274" y="350" type="curve" smooth="yes"/>
      <point x="274" y="295"/>
      <point x="293" y="241"/>
      <point x="334" y="194" type="curve" smooth="yes"/>
      <point x="504" y="0" type="line"/>
    </contour>
    <contour>
      <point x="240" y="0" type="line"/>
      <point x="240" y="700" type="line"/>
      <point x="80" y="700" type="line"/>
      <point x="80" y="0" type="line"/>
    </contour>
    <contour>
      <point x="359" y="869" type="move" name="accent"/>
    </contour>
  </outline>
</glyph>
<glyph name="L" format="2">
	<advance width="700"/>
	<unicode hex="004C"/>
	<anchor x="375" y="700" name="accentside"/>
	<anchor x="164" y="350" name="slash"/>
	<anchor x="163" y="869" name="accent"/>
	<outline>
		<contour>
			<point x="243" y="0" type="curve" smooth="yes"/>
			<point x="618" y="0" type="line"/>
			<point x="618" y="160" type="line"/>
			<point x="243" y="160" type="line"/>
			<point x="243" y="700" type="line"/>
			<point x="83" y="700" type="line"/>
			<point x="83" y="160" type="line" smooth="yes"/>
			<point x="83" y="56"/>
			<point x="139" y="0"/>
		</contour>
	</outline>
</glyph>
<glyph name="M" format="1">
  <advance width="1160"/>
  <unicode hex="004D"/>
  <outline>
    <contour>
      <point x="758" y="725"/>
      <point x="673" y="671"/>
      <point x="659" y="564" type="curve" smooth="yes"/>
      <point x="605" y="157" type="line" smooth="yes"/>
      <point x="603" y="142"/>
      <point x="592" y="134"/>
      <point x="581" y="134" type="curve" smooth="yes"/>
      <point x="569" y="134"/>
      <point x="558" y="142"/>
      <point x="556" y="157" type="curve" smooth="yes"/>
      <point x="501" y="565" type="line" smooth="yes"/>
      <point x="487" y="671"/>
      <point x="403" y="725"/>
      <point x="318" y="725" type="curve" smooth="yes"/>
      <point x="233" y="725"/>
      <point x="149" y="671"/>
      <point x="134" y="564" type="curve" smooth="yes"/>
      <point x="60" y="0" type="line"/>
      <point x="222" y="0" type="line"/>
      <point x="293" y="543" type="line" smooth="yes"/>
      <point x="295" y="559"/>
      <point x="306" y="566"/>
      <point x="318" y="566" type="curve" smooth="yes"/>
      <point x="329" y="566"/>
      <point x="340" y="559"/>
      <point x="342" y="543" type="curve" smooth="yes"/>
      <point x="397" y="135" type="line" smooth="yes"/>
      <point x="411" y="29"/>
      <point x="495" y="-25"/>
      <point x="580" y="-25" type="curve" smooth="yes"/>
      <point x="665" y="-25"/>
      <point x="749" y="29"/>
      <point x="764" y="136" type="curve" smooth="yes"/>
      <point x="818" y="543" type="line" smooth="yes"/>
      <point x="820" y="559"/>
      <point x="831" y="566"/>
      <point x="843" y="566" type="curve" smooth="yes"/>
      <point x="854" y="566"/>
      <point x="865" y="559"/>
      <point x="867" y="543" type="curve" smooth="yes"/>
      <point x="938" y="0" type="line"/>
      <point x="1100" y="0" type="line"/>
      <point x="1026" y="564" type="line" smooth="yes"/>
      <point x="1012" y="671"/>
      <point x="927" y="725"/>
      <point x="843" y="725" type="curve" smooth="yes"/>
    </contour>
  </outline>
</glyph>
<glyph name="N" format="1">
  <advance width="873"/>
  <unicode hex="004E"/>
  <outline>
    <contour>
      <point x="166" y="726"/>
      <point x="80" y="640"/>
      <point x="80" y="535" type="curve"/>
      <point x="80" y="0" type="line"/>
      <point x="240" y="0" type="line"/>
      <point x="240" y="535" type="line"/>
      <point x="240" y="552"/>
      <point x="254" y="566"/>
      <point x="271" y="566" type="curve"/>
      <point x="283" y="566"/>
      <point x="294" y="558"/>
      <point x="299" y="547" type="curve"/>
      <point x="422" y="105" type="line"/>
      <point x="447" y="30"/>
      <point x="519" y="-25"/>
      <point x="603" y="-25" type="curve"/>
      <point x="707" y="-25"/>
      <point x="793" y="61"/>
      <point x="793" y="166" type="curve"/>
      <point x="793" y="701" type="line"/>
      <point x="633" y="701" type="line"/>
      <point x="633" y="166" type="line"/>
      <point x="633" y="149"/>
      <point x="619" y="135"/>
      <point x="603" y="135" type="curve"/>
      <point x="590" y="135"/>
      <point x="579" y="143"/>
      <point x="575" y="154" type="curve"/>
      <point x="451" y="596" type="line"/>
      <point x="426" y="671"/>
      <point x="355" y="726"/>
      <point x="271" y="726" type="curve"/>
    </contour>
    <contour>
      <point x="437" y="869" type="move" name="accent"/>
    </contour>
  </outline>
</glyph>
<glyph name="P" format="1">
  <advance width="778"/>
  <unicode hex="0050"/>
  <outline>
    <contour>
      <point x="240" y="700" type="line" smooth="yes"/>
      <point x="136" y="700"/>
      <point x="80" y="644"/>
      <point x="80" y="540" type="curve" smooth="yes"/>
      <point x="80" y="0" type="line"/>
      <point x="240" y="0" type="line"/>
      <point x="240" y="540" type="line"/>
      <point x="462" y="540" type="line"/>
      <point x="514" y="540"/>
      <point x="557" y="497"/>
      <point x="557" y="445" type="curve" smooth="yes"/>
      <point x="557" y="393"/>
      <point x="514" y="350"/>
      <point x="462" y="350" type="curve"/>
      <point x="164" y="350" type="line"/>
      <point x="164" y="190" type="line"/>
      <point x="463" y="190" type="line"/>
      <point x="604" y="190"/>
      <point x="718" y="304"/>
      <point x="718" y="445" type="curve" smooth="yes"/>
      <point x="718" y="586"/>
      <point x="603" y="700"/>
      <point x="462" y="700" type="curve"/>
    </contour>
  </outline>
</glyph>
<glyph name="Q" format="2">
	<advance width="900"/>
	<unicode hex="0051"/>
	<guideline x="380" y="-25" angle="0"/>
	<guideline x="757" y="346" angle="90"/>
	<anchor x="448" y="350" name="slash"/>
	<anchor x="430" y="-18" name="bottom"/>
	<anchor x="448" y="869" name="accent"/>
	<outline>
		<contour>
			<point x="448" y="-25" type="curve" smooth="yes"/>
			<point x="654" y="-25"/>
			<point x="820" y="143"/>
			<point x="820" y="350" type="curve" smooth="yes"/>
			<point x="820" y="557"/>
			<point x="654" y="725"/>
			<point x="448" y="725" type="curve" smooth="yes"/>
			<point x="243" y="725"/>
			<point x="77" y="557"/>
			<point x="77" y="350" type="curve" smooth="yes"/>
			<point x="77" y="143"/>
			<point x="243" y="-25"/>
		</contour>
		<contour>
			<point x="711" y="-26" type="line"/>
			<point x="824" y="87" type="line"/>
			<point x="581" y="330" type="line"/>
			<point x="468" y="217" type="line"/>
		</contour>
		<contour>
			<point x="448" y="135" type="curve" smooth="yes"/>
			<point x="331" y="135"/>
			<point x="235" y="231"/>
			<point x="235" y="350" type="curve" smooth="yes"/>
			<point x="235" y="469"/>
			<point x="331" y="565"/>
			<point x="448" y="565" type="curve" smooth="yes"/>
			<point x="566" y="565"/>
			<point x="662" y="469"/>
			<point x="662" y="350" type="curve" smooth="yes"/>
			<point x="662" y="231"/>
			<point x="566" y="135"/>
		</contour>
	</outline>
</glyph>
<glyph name="R" format="1">
  <advance width="813"/>
  <unicode hex="0052"/>
  <outline>
    <contour>
      <point x="240" y="0" type="line"/>
      <point x="240" y="540" type="line"/>
      <point x="502" y="540" type="line" smooth="yes"/>
      <point x="533" y="540"/>
      <point x="558" y="515"/>
      <point x="558" y="485" type="curve" smooth="yes"/>
      <point x="558" y="454"/>
      <point x="534" y="430"/>
      <point x="503" y="430" type="curve" smooth="yes"/>
      <point x="483" y="430" type="line" smooth="yes"/>
      <point x="367" y="430"/>
      <point x="295" y="350"/>
      <point x="295" y="260" type="curve" smooth="yes"/>
      <point x="295" y="212"/>
      <point x="316" y="160"/>
      <point x="364" y="117" type="curve" smooth="yes"/>
      <point x="494" y="0" type="line"/>
      <point x="733" y="0" type="line"/>
      <point x="471" y="236" type="line"/>
      <point x="467" y="240"/>
      <point x="465" y="245"/>
      <point x="465" y="251" type="curve" smooth="yes"/>
      <point x="465" y="262"/>
      <point x="473" y="270"/>
      <point x="485" y="270" type="curve" smooth="yes"/>
      <point x="503" y="270" type="line"/>
      <point x="622" y="270"/>
      <point x="718" y="366"/>
      <point x="718" y="485" type="curve" smooth="yes"/>
      <point x="718" y="604"/>
      <point x="620" y="700"/>
      <point x="502" y="700" type="curve" smooth="yes"/>
      <point x="240" y="700" type="line" smooth="yes"/>
      <point x="151" y="700"/>
      <point x="80" y="629"/>
      <point x="80" y="541" type="curve" smooth="yes"/>
      <point x="80" y="0" type="line"/>
    </contour>
    <contour>
      <point x="389" y="869" type="move" name="accent"/>
    </contour>
  </outline>
</glyph>
<glyph name="S" format="2">
	<advance width="768"/>
	<unicode hex="0053"/>
	<anchor x="384" y="8" name="bottom"/>
	<anchor x="384" y="869" name="accent"/>
	<outline>
		<contour>
			<point x="94" y="0" type="line"/>
			<point x="473" y="0" type="line"/>
			<point x="590" y="0"/>
			<point x="688" y="96"/>
			<point x="688" y="215" type="curve"/>
			<point x="688" y="333"/>
			<point x="591" y="430"/>
			<point x="473" y="430" type="curve"/>
			<point x="295" y="430" type="line"/>
			<point x="264" y="430"/>
			<point x="240" y="454"/>
			<point x="240" y="485" type="curve"/>
			<point x="240" y="516"/>
			<point x="264" y="540"/>
			<point x="295" y="540" type="curve"/>
			<point x="648" y="540" type="line"/>
			<point x="648" y="700" type="line"/>
			<point x="295" y="700" type="line"/>
			<point x="176" y="700"/>
			<point x="80" y="602"/>
			<point x="80" y="485" type="curve"/>
			<point x="80" y="366"/>
			<point x="176" y="270"/>
			<point x="295" y="270" type="curve"/>
			<point x="473" y="270" type="line"/>
			<point x="503" y="270"/>
			<point x="528" y="245"/>
			<point x="528" y="215" type="curve"/>
			<point x="528" y="184"/>
			<point x="504" y="160"/>
			<point x="473" y="160" type="curve"/>
			<point x="94" y="160" type="line"/>
		</contour>
	</outline>
</glyph>
<glyph name="T" format="2">
	<advance width="700"/>
	<unicode hex="0054"/>
	<anchor x="345" y="350" name="stroke"/>
	<anchor x="345" y="350" name="bar"/>
	<anchor x="344" y="869" name="accent"/>
	<anchor x="350" y="8" name="bottom"/>
	<outline>
		<contour>
			<point x="270" y="0" type="line"/>
			<point x="430" y="0" type="line"/>
			<point x="430" y="585" type="line"/>
			<point x="270" y="585" type="line"/>
		</contour>
		<contour>
			<point x="40" y="550" type="line"/>
			<point x="660" y="550" type="line"/>
			<point x="660" y="700" type="line"/>
			<point x="40" y="700" type="line"/>
		</contour>
	</outline>
</glyph>
<glyph name="U" format="1">
  <advance width="745"/>
  <unicode hex="0055"/>
  <outline>
    <contour>
      <point x="505" y="700" type="line"/>
      <point x="505" y="267" type="line" smooth="yes"/>
      <point x="505" y="194"/>
      <point x="446" y="135"/>
      <point x="373" y="135" type="curve" smooth="yes"/>
      <point x="299" y="135"/>
      <point x="240" y="194"/>
      <point x="240" y="267" type="curve" smooth="yes"/>
      <point x="240" y="700" type="line"/>
      <point x="80" y="700" type="line"/>
      <point x="80" y="267" type="line" smooth="yes"/>
      <point x="80" y="106"/>
      <point x="211" y="-25"/>
      <point x="373" y="-25" type="curve" smooth="yes"/>
      <point x="534" y="-25"/>
      <point x="665" y="106"/>
      <point x="665" y="267" type="curve" smooth="yes"/>
      <point x="665" y="700" type="line"/>
    </contour>
    <contour>
      <point x="373" y="-167" type="move" name="below"/>
    </contour>
    <contour>
      <point x="373" y="869" type="move" name="accent"/>
    </contour>
    <contour>
      <point x="373" y="1079" type="move" name="above"/>
    </contour>
    <contour>
      <point x="350" y="-18" type="move" name="bottom"/>
    </contour>
  </outline>
</glyph>
<glyph name="V" format="1">
  <advance width="828"/>
  <unicode hex="0056"/>
  <outline>
    <contour>
      <point x="621" y="700" type="line"/>
      <point x="443" y="154" type="line" smooth="yes"/>
      <point x="439" y="142"/>
      <point x="428" y="135"/>
      <point x="415" y="135" type="curve" smooth="yes"/>
      <point x="402" y="135"/>
      <point x="390" y="143"/>
      <point x="386" y="154" type="curve"/>
      <point x="209" y="700" type="line"/>
      <point x="40" y="700" type="line"/>
      <point x="234" y="102" type="line" smooth="yes"/>
      <point x="261" y="25"/>
      <point x="334" y="-25"/>
      <point x="415" y="-25" type="curve" smooth="yes"/>
      <point x="496" y="-25"/>
      <point x="568" y="26"/>
      <point x="595" y="102" type="curve" smooth="yes"/>
      <point x="788" y="700" type="line"/>
    </contour>
  </outline>
</glyph>
<glyph name="W" format="1">
  <advance width="1061"/>
  <unicode hex="0057"/>
  <outline>
    <contour>
      <point x="80" y="700" type="line"/>
      <point x="80" y="239" type="line"/>
      <point x="80" y="93"/>
      <point x="200" y="-26"/>
      <point x="345" y="-26" type="curve"/>
      <point x="491" y="-26"/>
      <point x="611" y="93"/>
      <point x="611" y="239" type="curve"/>
      <point x="611" y="700" type="line"/>
      <point x="451" y="700" type="line"/>
      <point x="451" y="239" type="line"/>
      <point x="451" y="181"/>
      <point x="403" y="134"/>
      <point x="345" y="134" type="curve"/>
      <point x="287" y="134"/>
      <point x="240" y="181"/>
      <point x="240" y="239" type="curve"/>
      <point x="240" y="700" type="line"/>
    </contour>
    <contour>
      <point x="451" y="239" type="line"/>
      <point x="451" y="93"/>
      <point x="570" y="-26"/>
      <point x="716" y="-26" type="curve"/>
      <point x="862" y="-26"/>
      <point x="981" y="93"/>
      <point x="981" y="239" type="curve"/>
      <point x="981" y="700" type="line"/>
      <point x="821" y="700" type="line"/>
      <point x="821" y="239" type="line"/>
      <point x="821" y="181"/>
      <point x="774" y="134"/>
      <point x="716" y="134" type="curve"/>
      <point x="658" y="134"/>
      <point x="611" y="181"/>
      <point x="611" y="239" type="curve"/>
    </contour>
    <contour>
      <point x="531" y="869" type="move" name="accent"/>
    </contour>
  </outline>
</glyph>
<glyph name="X" format="1">
  <advance width="880"/>
  <unicode hex="0058"/>
  <outline>
    <contour>
      <point x="240" y="660"/>
      <point x="258" y="623"/>
      <point x="288" y="597" type="curve"/>
      <point x="694" y="225" type="line"/>
      <point x="761" y="170"/>
      <point x="800" y="87"/>
      <point x="800" y="0" type="curve"/>
      <point x="640" y="0" type="line"/>
      <point x="640" y="40"/>
      <point x="622" y="77"/>
      <point x="592" y="103" type="curve"/>
      <point x="186" y="475" type="line"/>
      <point x="119" y="530"/>
      <point x="80" y="613"/>
      <point x="80" y="700" type="curve"/>
      <point x="240" y="700" type="line"/>
    </contour>
    <contour>
      <point x="800" y="613"/>
      <point x="761" y="530"/>
      <point x="694" y="475" type="curve"/>
      <point x="288" y="103" type="line"/>
      <point x="258" y="77"/>
      <point x="240" y="40"/>
      <point x="240" y="0" type="curve"/>
      <point x="80" y="0" type="line"/>
      <point x="80" y="87"/>
      <point x="119" y="170"/>
      <point x="186" y="225" type="curve"/>
      <point x="592" y="597" type="line"/>
      <point x="622" y="623"/>
      <point x="640" y="660"/>
      <point x="640" y="700" type="curve"/>
      <point x="800" y="700" type="line"/>
    </contour>
  </outline>
</glyph>
<glyph name="Y" format="1">
  <advance width="764"/>
  <unicode hex="0059"/>
  <outline>
    <contour>
      <point x="524" y="700" type="line"/>
      <point x="524" y="292" type="line" smooth="yes"/>
      <point x="524" y="219"/>
      <point x="465" y="160"/>
      <point x="392" y="160" type="curve" smooth="yes"/>
      <point x="82" y="160" type="line"/>
      <point x="82" y="0" type="line"/>
      <point x="392" y="0" type="line" smooth="yes"/>
      <point x="553" y="0"/>
      <point x="684" y="131"/>
      <point x="684" y="292" type="curve" smooth="yes"/>
      <point x="684" y="700" type="line"/>
    </contour>
    <contour>
      <point x="80" y="700" type="line"/>
      <point x="80" y="600" type="line" smooth="yes"/>
      <point x="80" y="448"/>
      <point x="156" y="343"/>
      <point x="299" y="297" type="curve" smooth="yes"/>
      <point x="560" y="212" type="line"/>
      <point x="610" y="364" type="line"/>
      <point x="349" y="449" type="line" smooth="yes"/>
      <point x="272" y="474"/>
      <point x="240" y="518"/>
      <point x="240" y="600" type="curve" smooth="yes"/>
      <point x="240" y="700" type="line"/>
    </contour>
    <contour>
      <point x="383" y="1049" type="move" name="above"/>
    </contour>
    <contour>
      <point x="383" y="869" type="move" name="accent"/>
    </contour>
  </outline>
</glyph>
<glyph name="Z" format="2">
	<advance width="879"/>
	<unicode hex="005A"/>
	<anchor x="448" y="869" name="accent"/>
	<outline>
		<contour>
			<point x="220" y="0" type="curve" smooth="yes"/>
			<point x="770" y="0" type="line"/>
			<point x="770" y="160" type="line"/>
			<point x="220" y="160" type="line"/>
			<point x="222" y="155"/>
			<point x="223" y="150"/>
			<point x="225" y="145" type="curve" smooth="yes"/>
			<point x="227" y="138"/>
			<point x="229" y="131"/>
			<point x="231" y="124" type="curve"/>
			<point x="704" y="440" type="line" smooth="yes"/>
			<point x="749" y="470"/>
			<point x="769" y="513"/>
			<point x="769" y="557" type="curve" smooth="yes"/>
			<point x="769" y="629"/>
			<point x="716" y="700"/>
			<point x="629" y="700" type="curve" smooth="yes"/>
			<point x="130" y="700" type="line"/>
			<point x="130" y="540" type="line"/>
			<point x="629" y="540" type="line"/>
			<point x="627" y="547"/>
			<point x="624" y="554"/>
			<point x="623" y="561" type="curve" smooth="yes"/>
			<point x="622" y="566"/>
			<point x="620" y="571"/>
			<point x="619" y="576" type="curve"/>
			<point x="146" y="260" type="line" smooth="yes"/>
			<point x="101" y="230"/>
			<point x="80" y="187"/>
			<point x="80" y="142" type="curve" smooth="yes"/>
			<point x="80" y="71"/>
			<point x="133" y="0"/>
		</contour>
	</outline>
</glyph>
<glyph name="bracketleft" format="1">
  <advance width="480"/>
  <unicode hex="005B"/>
  <outline>
    <contour>
      <point x="380" y="34" type="line"/>
      <point x="260" y="34" type="line"/>
      <point x="260" y="674" type="line"/>
      <point x="380" y="674" type="line"/>
      <point x="380" y="794" type="line"/>
      <point x="100" y="794" type="line"/>
      <point x="100" y="-86" type="line"/>
      <point x="380" y="-86" type="line"/>
    </contour>
  </outline>
</glyph>
<glyph name="asciicircum" format="1">
  <advance width="591"/>
  <unicode hex="005E"/>
  <outline>
    <contour>
      <point x="212" y="403" type="line"/>
      <point x="292" y="599" type="line"/>
      <point x="381" y="400" type="line"/>
      <point x="491" y="448" type="line"/>
      <point x="369" y="723" type="line" smooth="yes"/>
      <point x="353" y="760"/>
      <point x="322" y="779"/>
      <point x="291" y="779" type="curve" smooth="yes"/>
      <point x="260" y="779"/>
      <point x="228" y="759"/>
      <point x="212" y="720" type="curve" smooth="yes"/>
      <point x="100" y="449" type="line"/>
    </contour>
  </outline>
</glyph>
<glyph name="underscore" format="1">
  <advance width="780"/>
  <unicode hex="005F"/>
  <outline>
    <contour>
      <point x="100" y="120" type="line"/>
      <point x="100" y="0" type="line"/>
      <point x="680" y="0" type="line"/>
      <point x="680" y="120" type="line"/>
    </contour>
  </outline>
</glyph>
<glyph name="grave" format="2">
	<advance width="278"/>
	<unicode hex="0060"/>
	<anchor x="175" y="670" name="_accent"/>
	<anchor x="175" y="670" name="_above"/>
	<outline>
		<contour>
			<point x="164" y="744" type="line"/>
			<point x="60" y="744" type="line"/>
			<point x="124" y="600" type="line"/>
			<point x="228" y="600" type="line"/>
		</contour>
	</outline>
</glyph>
<glyph name="a" format="1">
  <advance width="704"/>
  <unicode hex="0061"/>
  <outline>
    <contour>
      <point x="485" y="0" type="line" smooth="yes"/>
      <point x="562" y="0"/>
      <point x="624" y="62"/>
      <point x="624" y="139" type="curve" smooth="yes"/>
      <point x="624" y="410" type="line"/>
      <point x="624" y="515"/>
      <point x="539" y="600"/>
      <point x="434" y="600" type="curve" smooth="yes"/>
      <point x="140" y="600" type="line"/>
      <point x="140" y="440" type="line"/>
      <point x="434" y="440" type="line" smooth="yes"/>
      <point x="451" y="440"/>
      <point x="464" y="427"/>
      <point x="464" y="410" type="curve" smooth="yes"/>
      <point x="464" y="139" type="line"/>
      <point x="471" y="146"/>
      <point x="477" y="153"/>
      <point x="484" y="160" type="curve"/>
      <point x="250" y="160" type="line" smooth="yes"/>
      <point x="229" y="160"/>
      <point x="214" y="176"/>
      <point x="214" y="196" type="curve" smooth="yes"/>
      <point x="214" y="217"/>
      <point x="229" y="233"/>
      <point x="250" y="233" type="curve" smooth="yes"/>
      <point x="545" y="233" type="line"/>
      <point x="545" y="380" type="line"/>
      <point x="250" y="380" type="line" smooth="yes"/>
      <point x="144" y="380"/>
      <point x="60" y="295"/>
      <point x="60" y="190" type="curve" smooth="yes"/>
      <point x="60" y="85"/>
      <point x="145" y="0"/>
      <point x="250" y="0" type="curve" smooth="yes"/>
    </contour>
    <contour>
      <point x="356" y="-167" type="move" name="below"/>
    </contour>
    <contour>
      <point x="356" y="759" type="move" name="accent"/>
    </contour>
    <contour>
      <point x="356" y="969" type="move" name="above"/>
    </contour>
    <contour>
      <point x="350" y="8" type="move" name="bottom"/>
    </contour>
  </outline>
</glyph>
<glyph name="b" format="1">
  <advance width="714"/>
  <unicode hex="0062"/>
  <outline>
    <contour>
      <point x="514" y="-9"/>
      <point x="654" y="132"/>
      <point x="654" y="301" type="curve" smooth="yes"/>
      <point x="654" y="470"/>
      <point x="514" y="611"/>
      <point x="344" y="611" type="curve" smooth="yes"/>
      <point x="240" y="611"/>
      <point x="149" y="559"/>
      <point x="92" y="480" type="curve"/>
      <point x="222" y="386" type="line"/>
      <point x="252" y="428"/>
      <point x="296" y="451"/>
      <point x="344" y="451" type="curve" smooth="yes"/>
      <point x="425" y="451"/>
      <point x="494" y="382"/>
      <point x="494" y="301" type="curve" smooth="yes"/>
      <point x="494" y="220"/>
      <point x="425" y="151"/>
      <point x="344" y="151" type="curve" smooth="yes"/>
      <point x="298" y="151"/>
      <point x="256" y="173"/>
      <point x="226" y="208" type="curve"/>
      <point x="231" y="185"/>
      <point x="235" y="162"/>
      <point x="240" y="139" type="curve"/>
      <point x="240" y="800" type="line"/>
      <point x="80" y="800" type="line"/>
      <point x="80" y="184" type="line" smooth="yes"/>
      <point x="80" y="152"/>
      <point x="85" y="127"/>
      <point x="106" y="103" type="curve" smooth="yes"/>
      <point x="164" y="36"/>
      <point x="249" y="-9"/>
      <point x="344" y="-9" type="curve" smooth="yes"/>
    </contour>
  </outline>
</glyph>
<glyph name="c" format="1">
  <advance width="718"/>
  <unicode hex="0063"/>
  <outline>
    <contour>
      <point x="499" y="225" type="line"/>
      <point x="473" y="179"/>
      <point x="424" y="151"/>
      <point x="370" y="151" type="curve" smooth="yes"/>
      <point x="287" y="151"/>
      <point x="220" y="218"/>
      <point x="220" y="301" type="curve" smooth="yes"/>
      <point x="220" y="383"/>
      <point x="287" y="450"/>
      <point x="370" y="450" type="curve" smooth="yes"/>
      <point x="424" y="450"/>
      <point x="473" y="422"/>
      <point x="499" y="377" type="curve"/>
      <point x="638" y="456" type="line"/>
      <point x="585" y="549"/>
      <point x="484" y="610"/>
      <point x="370" y="610" type="curve" smooth="yes"/>
      <point x="199" y="610"/>
      <point x="60" y="472"/>
      <point x="60" y="301" type="curve" smooth="yes"/>
      <point x="60" y="130"/>
      <point x="199" y="-9"/>
      <point x="370" y="-9" type="curve" smooth="yes"/>
      <point x="484" y="-9"/>
      <point x="585" y="53"/>
      <point x="638" y="145" type="curve"/>
    </contour>
    <contour>
      <point x="370" y="0" type="move" name="bottom"/>
    </contour>
    <contour>
      <point x="370" y="759" type="move" name="accent"/>
    </contour>
  </outline>
</glyph>
<glyph name="d" format="1">
  <advance width="714"/>
  <unicode hex="0064"/>
  <outline>
    <contour>
      <point x="465" y="-9"/>
      <point x="550" y="36"/>
      <point x="608" y="103" type="curve" smooth="yes"/>
      <point x="629" y="127"/>
      <point x="634" y="152"/>
      <point x="634" y="184" type="curve" smooth="yes"/>
      <point x="634" y="800" type="line"/>
      <point x="474" y="800" type="line"/>
      <point x="474" y="139" type="line"/>
      <point x="479" y="162"/>
      <point x="483" y="185"/>
      <point x="488" y="208" type="curve"/>
      <point x="458" y="173"/>
      <point x="416" y="151"/>
      <point x="370" y="151" type="curve" smooth="yes"/>
      <point x="289" y="151"/>
      <point x="220" y="220"/>
      <point x="220" y="301" type="curve" smooth="yes"/>
      <point x="220" y="382"/>
      <point x="289" y="451"/>
      <point x="370" y="451" type="curve" smooth="yes"/>
      <point x="418" y="451"/>
      <point x="462" y="428"/>
      <point x="492" y="386" type="curve"/>
      <point x="622" y="480" type="line"/>
      <point x="565" y="559"/>
      <point x="474" y="611"/>
      <point x="370" y="611" type="curve" smooth="yes"/>
      <point x="200" y="611"/>
      <point x="60" y="470"/>
      <point x="60" y="301" type="curve" smooth="yes"/>
      <point x="60" y="132"/>
      <point x="200" y="-9"/>
      <point x="370" y="-9" type="curve" smooth="yes"/>
    </contour>
    <contour>
      <point x="725" y="700" type="move" name="accentside"/>
    </contour>
    <contour>
      <point x="550" y="701" type="move" name="bar"/>
    </contour>
  </outline>
</glyph>
<glyph name="e" format="1">
  <advance width="739"/>
  <unicode hex="0065"/>
  <outline>
    <contour>
      <point x="481" y="-8"/>
      <point x="582" y="51"/>
      <point x="639" y="147" type="curve"/>
      <point x="480" y="189" type="line"/>
      <point x="451" y="162"/>
      <point x="409" y="144"/>
      <point x="368" y="144" type="curve" smooth="yes"/>
      <point x="285" y="144"/>
      <point x="213" y="221"/>
      <point x="213" y="301" type="curve" smooth="yes"/>
      <point x="213" y="383"/>
      <point x="287" y="457"/>
      <point x="370" y="457" type="curve" smooth="yes"/>
      <point x="453" y="456"/>
      <point x="526" y="383"/>
      <point x="526" y="300" type="curve"/>
      <point x="526" y="349"/>
      <point x="559" y="350"/>
      <point x="609" y="350" type="curve"/>
      <point x="172" y="351" type="line"/>
      <point x="172" y="231" type="line"/>
      <point x="609" y="230" type="line" smooth="yes"/>
      <point x="648" y="230"/>
      <point x="679" y="261"/>
      <point x="679" y="300" type="curve" smooth="yes"/>
      <point x="679" y="471"/>
      <point x="541" y="609"/>
      <point x="370" y="610" type="curve" smooth="yes"/>
      <point x="199" y="610"/>
      <point x="60" y="472"/>
      <point x="60" y="301" type="curve" smooth="yes"/>
      <point x="60" y="130"/>
      <point x="199" y="-9"/>
      <point x="370" y="-9" type="curve" smooth="yes"/>
    </contour>
    <contour>
      <point x="370" y="-167" type="move" name="below"/>
    </contour>
    <contour>
      <point x="370" y="759" type="move" name="accent"/>
    </contour>
    <contour>
      <point x="370" y="969" type="move" name="above"/>
    </contour>
    <contour>
      <point x="346" y="-1" type="move" name="bottom"/>
    </contour>
  </outline>
</glyph>
<glyph name="f" format="1">
  <advance width="566"/>
  <unicode hex="0066"/>
  <outline>
    <contour>
      <point x="240" y="0" type="line"/>
      <point x="240" y="424" type="line" smooth="yes"/>
      <point x="240" y="499"/>
      <point x="301" y="560"/>
      <point x="376" y="560" type="curve" smooth="yes"/>
      <point x="396" y="560"/>
      <point x="409" y="558"/>
      <point x="426" y="551" type="curve"/>
      <point x="486" y="699" type="line"/>
      <point x="453" y="712"/>
      <point x="412" y="720"/>
      <point x="376" y="720" type="curve" smooth="yes"/>
      <point x="213" y="720"/>
      <point x="80" y="587"/>
      <point x="80" y="424" type="curve" smooth="yes"/>
      <point x="80" y="0" type="line"/>
    </contour>
    <contour>
      <point x="419" y="220" type="line"/>
      <point x="419" y="380" type="line"/>
      <point x="152" y="380" type="line"/>
      <point x="152" y="220" type="line"/>
    </contour>
  </outline>
</glyph>
<glyph name="g" format="1">
  <advance width="714"/>
  <unicode hex="0067"/>
  <outline>
    <contour>
      <point x="444" y="-230" type="line" smooth="yes"/>
      <point x="549" y="-230"/>
      <point x="634" y="-145"/>
      <point x="634" y="-40" type="curve" smooth="yes"/>
      <point x="634" y="416" type="line" smooth="yes"/>
      <point x="634" y="448"/>
      <point x="629" y="473"/>
      <point x="608" y="497" type="curve" smooth="yes"/>
      <point x="551" y="565"/>
      <point x="465" y="609"/>
      <point x="370" y="609" type="curve" smooth="yes"/>
      <point x="200" y="609"/>
      <point x="60" y="468"/>
      <point x="60" y="299" type="curve" smooth="yes"/>
      <point x="60" y="130"/>
      <point x="200" y="-11"/>
      <point x="370" y="-11" type="curve" smooth="yes"/>
      <point x="474" y="-11"/>
      <point x="565" y="41"/>
      <point x="622" y="120" type="curve"/>
      <point x="492" y="214" type="line"/>
      <point x="462" y="172"/>
      <point x="418" y="149"/>
      <point x="370" y="149" type="curve" smooth="yes"/>
      <point x="289" y="149"/>
      <point x="220" y="218"/>
      <point x="220" y="299" type="curve" smooth="yes"/>
      <point x="220" y="380"/>
      <point x="289" y="449"/>
      <point x="370" y="449" type="curve" smooth="yes"/>
      <point x="416" y="449"/>
      <point x="458" y="427"/>
      <point x="488" y="392" type="curve"/>
      <point x="483" y="415"/>
      <point x="479" y="438"/>
      <point x="474" y="461" type="curve"/>
      <point x="474" y="-40" type="line" smooth="yes"/>
      <point x="474" y="-57"/>
      <point x="461" y="-70"/>
      <point x="444" y="-70" type="curve" smooth="yes"/>
      <point x="150" y="-70" type="line"/>
      <point x="150" y="-230" type="line"/>
    </contour>
    <contour>
      <point x="370" y="759" type="move" name="accent"/>
    </contour>
  </outline>
</glyph>
<glyph name="h" format="2">
	<advance width="700"/>
	<unicode hex="0068"/>
	<anchor x="143" y="701" name="bar"/>
	<outline>
		<contour>
			<point x="477" y="0" type="line"/>
			<point x="637" y="0" type="line"/>
			<point x="637" y="301" type="line" smooth="yes"/>
			<point x="637" y="470"/>
			<point x="497" y="611"/>
			<point x="327" y="611" type="curve" smooth="yes"/>
			<point x="223" y="611"/>
			<point x="132" y="559"/>
			<point x="75" y="480" type="curve"/>
			<point x="205" y="386" type="line"/>
			<point x="235" y="428"/>
			<point x="279" y="451"/>
			<point x="327" y="451" type="curve" smooth="yes"/>
			<point x="408" y="451"/>
			<point x="477" y="382"/>
			<point x="477" y="301" type="curve" smooth="yes"/>
		</contour>
		<contour>
			<point x="63" y="0" type="line"/>
			<point x="223" y="0" type="line"/>
			<point x="223" y="800" type="line"/>
			<point x="63" y="800" type="line"/>
		</contour>
	</outline>
</glyph>
<glyph name="k" format="2">
	<advance width="759"/>
	<unicode hex="006B"/>
	<anchor x="430" y="759" name="accent"/>
	<outline>
		<contour>
			<point x="499" y="0" type="line"/>
			<point x="699" y="0" type="line"/>
			<point x="460" y="317" type="line" smooth="yes"/>
			<point x="456" y="322"/>
			<point x="455" y="326"/>
			<point x="455" y="329" type="curve" smooth="yes"/>
			<point x="455" y="333"/>
			<point x="457" y="336"/>
			<point x="460" y="341" type="curve" smooth="yes"/>
			<point x="624" y="600" type="line"/>
			<point x="435" y="600" type="line"/>
			<point x="285" y="363" type="line" smooth="yes"/>
			<point x="277" y="350"/>
			<point x="273" y="336"/>
			<point x="273" y="324" type="curve" smooth="yes"/>
			<point x="273" y="308"/>
			<point x="278" y="294"/>
			<point x="289" y="279" type="curve" smooth="yes"/>
		</contour>
		<contour>
			<point x="80" y="0" type="line"/>
			<point x="240" y="0" type="line"/>
			<point x="240" y="800" type="line"/>
			<point x="80" y="800" type="line"/>
		</contour>
	</outline>
</glyph>
<glyph name="l" format="1">
  <advance width="320"/>
  <unicode hex="006C"/>
  <outline>
    <contour>
      <point x="80" y="0" type="line"/>
      <point x="240" y="0" type="line"/>
      <point x="240" y="800" type="line"/>
      <point x="80" y="800" type="line"/>
    </contour>
    <contour>
      <point x="160" y="400" type="move" name="slash"/>
    </contour>
    <contour>
      <point x="160" y="969" type="move" name="accent"/>
    </contour>
  </outline>
</glyph>
<glyph name="m" format="1">
  <advance width="892"/>
  <unicode hex="006D"/>
  <outline>
    <contour>
      <point x="812" y="0" type="line"/>
      <point x="812" y="388" type="line" smooth="yes"/>
      <point x="812" y="511"/>
      <point x="712" y="610"/>
      <point x="589" y="610" type="curve" smooth="yes"/>
      <point x="467" y="610"/>
      <point x="366" y="511"/>
      <point x="366" y="388" type="curve"/>
      <point x="526" y="388" type="line"/>
      <point x="526" y="422"/>
      <point x="554" y="450"/>
      <point x="589" y="450" type="curve" smooth="yes"/>
      <point x="624" y="450"/>
      <point x="652" y="422"/>
      <point x="652" y="388" type="curve" smooth="yes"/>
      <point x="652" y="0" type="line"/>
    </contour>
    <contour>
      <point x="240" y="0" type="line"/>
      <point x="240" y="388" type="line" smooth="yes"/>
      <point x="240" y="422"/>
      <point x="268" y="450"/>
      <point x="303" y="450" type="curve" smooth="yes"/>
      <point x="338" y="450"/>
      <point x="366" y="422"/>
      <point x="366" y="388" type="curve" smooth="yes"/>
      <point x="366" y="0" type="line"/>
      <point x="526" y="0" type="line"/>
      <point x="526" y="388" type="line" smooth="yes"/>
      <point x="526" y="511"/>
      <point x="426" y="610"/>
      <point x="303" y="610" type="curve" smooth="yes"/>
      <point x="181" y="610"/>
      <point x="80" y="511"/>
      <point x="80" y="388" type="curve" smooth="yes"/>
      <point x="80" y="0" type="line"/>
    </contour>
  </outline>
</glyph>
<glyph name="n" format="2">
	<advance width="734"/>
	<unicode hex="006E"/>
	<anchor x="344" y="759" name="accent"/>
	<outline>
		<contour>
			<point x="80" y="0" type="line"/>
			<point x="240" y="0" type="line"/>
			<point x="240" y="470" type="line"/>
			<point x="229" y="437"/>
			<point x="219" y="404"/>
			<point x="208" y="371" type="curve"/>
			<point x="255" y="435"/>
			<point x="300" y="451"/>
			<point x="344" y="451" type="curve" smooth="yes"/>
			<point x="425" y="451"/>
			<point x="494" y="382"/>
			<point x="494" y="301" type="curve" smooth="yes"/>
			<point x="494" y="0" type="line"/>
			<point x="654" y="0" type="line"/>
			<point x="654" y="301" type="line" smooth="yes"/>
			<point x="654" y="470"/>
			<point x="514" y="611"/>
			<point x="344" y="611" type="curve" smooth="yes"/>
			<point x="249" y="611"/>
			<point x="163" y="567"/>
			<point x="106" y="499" type="curve" smooth="yes"/>
			<point x="86" y="475"/>
			<point x="80" y="450"/>
			<point x="80" y="418" type="curve" smooth="yes"/>
		</contour>
	</outline>
</glyph>
<glyph name="o" format="1">
  <advance width="741"/>
  <unicode hex="006F"/>
  <outline>
    <contour>
      <point x="453" y="451"/>
      <point x="521" y="383"/>
      <point x="521" y="301" type="curve" smooth="yes"/>
      <point x="521" y="218"/>
      <point x="453" y="151"/>
      <point x="370" y="151" type="curve" smooth="yes"/>
      <point x="287" y="151"/>
      <point x="220" y="218"/>
      <point x="220" y="301" type="curve" smooth="yes"/>
      <point x="220" y="384"/>
      <point x="287" y="451"/>
      <point x="370" y="451" type="curve" smooth="yes"/>
    </contour>
    <contour>
      <point x="199" y="611"/>
      <point x="60" y="472"/>
      <point x="60" y="301" type="curve" smooth="yes"/>
      <point x="60" y="130"/>
      <point x="199" y="-9"/>
      <point x="370" y="-9" type="curve" smooth="yes"/>
      <point x="542" y="-9"/>
      <point x="681" y="130"/>
      <point x="681" y="301" type="curve" smooth="yes"/>
      <point x="681" y="472"/>
      <point x="541" y="611"/>
      <point x="370" y="611" type="curve" smooth="yes"/>
    </contour>
    <contour>
      <point x="370" y="-167" type="move" name="below"/>
    </contour>
    <contour>
      <point x="371" y="759" type="move" name="accent"/>
    </contour>
    <contour>
      <point x="370" y="969" type="move" name="above"/>
    </contour>
    <contour>
      <point x="370" y="301" type="move" name="slash"/>
    </contour>
    <contour>
      <point x="349" y="-1" type="move" name="bottom"/>
    </contour>
  </outline>
</glyph>
<glyph name="p" format="2">
	<advance width="714"/>
	<unicode hex="0070"/>
	<guideline x="-228" y="611" angle="0"/>
	<outline>
		<contour>
			<point x="80" y="-200" type="line"/>
			<point x="240" y="-200" type="line"/>
			<point x="240" y="403" type="line" smooth="yes"/>
			<point x="240" y="405"/>
			<point x="241" y="408"/>
			<point x="246" y="413" type="curve" smooth="yes"/>
			<point x="265" y="432"/>
			<point x="302" y="449"/>
			<point x="344" y="449" type="curve" smooth="yes"/>
			<point x="425" y="449"/>
			<point x="494" y="380"/>
			<point x="494" y="299" type="curve" smooth="yes"/>
			<point x="494" y="218"/>
			<point x="425" y="149"/>
			<point x="344" y="149" type="curve" smooth="yes"/>
			<point x="296" y="149"/>
			<point x="252" y="172"/>
			<point x="222" y="214" type="curve"/>
			<point x="92" y="120" type="line"/>
			<point x="149" y="41"/>
			<point x="240" y="-11"/>
			<point x="344" y="-11" type="curve" smooth="yes"/>
			<point x="514" y="-11"/>
			<point x="654" y="130"/>
			<point x="654" y="299" type="curve" smooth="yes"/>
			<point x="654" y="468"/>
			<point x="514" y="609"/>
			<point x="344" y="609" type="curve" smooth="yes"/>
			<point x="249" y="609"/>
			<point x="164" y="564"/>
			<point x="106" y="497" type="curve" smooth="yes"/>
			<point x="85" y="473"/>
			<point x="80" y="448"/>
			<point x="80" y="416" type="curve" smooth="yes"/>
		</contour>
	</outline>
</glyph>
<glyph name="r" format="1">
  <advance width="560"/>
  <unicode hex="0072"/>
  <outline>
    <contour>
      <point x="240" y="0" type="line"/>
      <point x="240" y="418" type="line" smooth="yes"/>
      <point x="240" y="442"/>
      <point x="244" y="415"/>
      <point x="229" y="396" type="curve"/>
      <point x="258" y="431"/>
      <point x="300" y="451"/>
      <point x="344" y="451" type="curve" smooth="yes"/>
      <point x="371" y="451"/>
      <point x="394" y="445"/>
      <point x="419" y="430" type="curve"/>
      <point x="500" y="568" type="line"/>
      <point x="454" y="595"/>
      <point x="401" y="611"/>
      <point x="344" y="611" type="curve" smooth="yes"/>
      <point x="249" y="611"/>
      <point x="163" y="567"/>
      <point x="106" y="499" type="curve" smooth="yes"/>
      <point x="86" y="475"/>
      <point x="80" y="450"/>
      <point x="80" y="418" type="curve" smooth="yes"/>
      <point x="80" y="0" type="line"/>
    </contour>
    <contour>
      <point x="284" y="759" type="move" name="accent"/>
    </contour>
  </outline>
</glyph>
<glyph name="s" format="2">
	<advance width="650"/>
	<unicode hex="0073"/>
	<anchor x="338" y="8" name="bottom"/>
	<anchor x="338" y="759" name="accent"/>
	<outline>
		<contour>
			<point x="95" y="0" type="line"/>
			<point x="400" y="0" type="line" smooth="yes"/>
			<point x="505" y="0"/>
			<point x="590" y="85"/>
			<point x="590" y="190" type="curve" smooth="yes"/>
			<point x="590" y="295"/>
			<point x="506" y="380"/>
			<point x="400" y="380" type="curve" smooth="yes"/>
			<point x="270" y="380" type="line" smooth="yes"/>
			<point x="253" y="380"/>
			<point x="240" y="393"/>
			<point x="240" y="410" type="curve" smooth="yes"/>
			<point x="240" y="427"/>
			<point x="253" y="440"/>
			<point x="270" y="440" type="curve" smooth="yes"/>
			<point x="535" y="440" type="line"/>
			<point x="535" y="600" type="line"/>
			<point x="270" y="600" type="line" smooth="yes"/>
			<point x="165" y="600"/>
			<point x="80" y="515"/>
			<point x="80" y="410" type="curve" smooth="yes"/>
			<point x="80" y="305"/>
			<point x="164" y="220"/>
			<point x="270" y="220" type="curve" smooth="yes"/>
			<point x="400" y="220" type="line" smooth="yes"/>
			<point x="417" y="220"/>
			<point x="430" y="207"/>
			<point x="430" y="190" type="curve" smooth="yes"/>
			<point x="430" y="173"/>
			<point x="417" y="160"/>
			<point x="400" y="160" type="curve" smooth="yes"/>
			<point x="95" y="160" type="line"/>
		</contour>
	</outline>
</glyph>
<glyph name="t" format="1">
  <advance width="530"/>
  <unicode hex="0074"/>
  <outline>
    <contour>
      <point x="450" y="0" type="line"/>
      <point x="450" y="160" type="line"/>
      <point x="270" y="160" type="line" smooth="yes"/>
      <point x="253" y="160"/>
      <point x="240" y="173"/>
      <point x="240" y="190" type="curve" smooth="yes"/>
      <point x="240" y="700" type="line"/>
      <point x="80" y="700" type="line"/>
      <point x="80" y="190" type="line" smooth="yes"/>
      <point x="80" y="85"/>
      <point x="165" y="0"/>
      <point x="270" y="0" type="curve" smooth="yes"/>
    </contour>
    <contour>
      <point x="450" y="440" type="line"/>
      <point x="450" y="600" type="line"/>
      <point x="155" y="600" type="line"/>
      <point x="155" y="440" type="line"/>
    </contour>
    <contour>
      <point x="157" y="297" type="move" name="bar"/>
    </contour>
    <contour>
      <point x="284" y="8" type="move" name="bottom"/>
    </contour>
    <contour>
      <point x="264" y="849" type="move" name="accent"/>
    </contour>
  </outline>
</glyph>
<glyph name="u" format="1">
  <advance width="732"/>
  <unicode hex="0075"/>
  <outline>
    <contour>
      <point x="524" y="-9"/>
      <point x="652" y="119"/>
      <point x="652" y="277" type="curve" smooth="yes"/>
      <point x="652" y="600" type="line"/>
      <point x="492" y="600" type="line"/>
      <point x="492" y="277" type="line" smooth="yes"/>
      <point x="492" y="207"/>
      <point x="436" y="151"/>
      <point x="366" y="151" type="curve" smooth="yes"/>
      <point x="296" y="151"/>
      <point x="240" y="207"/>
      <point x="240" y="277" type="curve" smooth="yes"/>
      <point x="240" y="600" type="line"/>
      <point x="80" y="600" type="line"/>
      <point x="80" y="277" type="line" smooth="yes"/>
      <point x="80" y="119"/>
      <point x="208" y="-9"/>
      <point x="366" y="-9" type="curve" smooth="yes"/>
    </contour>
    <contour>
      <point x="366" y="-167" type="move" name="below"/>
    </contour>
    <contour>
      <point x="366" y="759" type="move" name="accent"/>
    </contour>
    <contour>
      <point x="366" y="969" type="move" name="above"/>
    </contour>
    <contour>
      <point x="346" y="0" type="move" name="bottom"/>
    </contour>
  </outline>
</glyph>
<glyph name="v" format="1">
  <advance width="705"/>
  <unicode hex="0076"/>
  <outline>
    <contour>
      <point x="401" y="-10"/>
      <point x="450" y="21"/>
      <point x="473" y="82" type="curve" smooth="yes"/>
      <point x="665" y="600" type="line"/>
      <point x="494" y="600" type="line"/>
      <point x="323" y="137" type="line"/>
      <point x="323" y="137"/>
      <point x="337" y="138"/>
      <point x="351" y="138" type="curve" smooth="yes"/>
      <point x="366" y="138"/>
      <point x="381" y="138"/>
      <point x="381" y="137" type="curve"/>
      <point x="210" y="600" type="line"/>
      <point x="40" y="600" type="line"/>
      <point x="231" y="82" type="line" smooth="yes"/>
      <point x="254" y="21"/>
      <point x="303" y="-10"/>
      <point x="352" y="-10" type="curve" smooth="yes"/>
    </contour>
  </outline>
</glyph>
<glyph name="w" format="1">
  <advance width="892"/>
  <unicode hex="0077"/>
  <outline>
    <contour>
      <point x="652" y="212" type="line" smooth="yes"/>
      <point x="652" y="178"/>
      <point x="624" y="150"/>
      <point x="589" y="150" type="curve" smooth="yes"/>
      <point x="554" y="150"/>
      <point x="526" y="178"/>
      <point x="526" y="212" type="curve"/>
      <point x="366" y="212" type="line"/>
      <point x="366" y="89"/>
      <point x="467" y="-10"/>
      <point x="589" y="-10" type="curve" smooth="yes"/>
      <point x="712" y="-10"/>
      <point x="812" y="89"/>
      <point x="812" y="212" type="curve" smooth="yes"/>
      <point x="812" y="600" type="line"/>
      <point x="652" y="600" type="line"/>
    </contour>
    <contour>
      <point x="80" y="212" type="line" smooth="yes"/>
      <point x="80" y="89"/>
      <point x="181" y="-10"/>
      <point x="303" y="-10" type="curve" smooth="yes"/>
      <point x="426" y="-10"/>
      <point x="526" y="89"/>
      <point x="526" y="212" type="curve" smooth="yes"/>
      <point x="526" y="600" type="line"/>
      <point x="366" y="600" type="line"/>
      <point x="366" y="212" type="line" smooth="yes"/>
      <point x="366" y="178"/>
      <point x="338" y="150"/>
      <point x="303" y="150" type="curve" smooth="yes"/>
      <point x="268" y="150"/>
      <point x="240" y="178"/>
      <point x="240" y="212" type="curve" smooth="yes"/>
      <point x="240" y="600" type="line"/>
      <point x="80" y="600" type="line"/>
    </contour>
    <contour>
      <point x="446" y="759" type="move" name="accent"/>
    </contour>
  </outline>
</glyph>
<glyph name="x" format="1">
  <advance width="803"/>
  <unicode hex="0078"/>
  <outline>
    <contour>
      <point x="722" y="0" type="line"/>
      <point x="722" y="87"/>
      <point x="683" y="170"/>
      <point x="616" y="225" type="curve" smooth="yes"/>
      <point x="288" y="497" type="line" smooth="yes"/>
      <point x="258" y="523"/>
      <point x="240" y="560"/>
      <point x="240" y="600" type="curve"/>
      <point x="80" y="600" type="line"/>
      <point x="80" y="513"/>
      <point x="119" y="430"/>
      <point x="186" y="375" type="curve" smooth="yes"/>
      <point x="514" y="103" type="line" smooth="yes"/>
      <point x="544" y="77"/>
      <point x="562" y="40"/>
      <point x="562" y="0" type="curve"/>
    </contour>
    <contour>
      <point x="240" y="0" type="line"/>
      <point x="240" y="40"/>
      <point x="258" y="77"/>
      <point x="288" y="103" type="curve" smooth="yes"/>
      <point x="617" y="374" type="line" smooth="yes"/>
      <point x="684" y="429"/>
      <point x="723" y="512"/>
      <point x="723" y="599" type="curve"/>
      <point x="563" y="599" type="line"/>
      <point x="563" y="559"/>
      <point x="545" y="522"/>
      <point x="515" y="496" type="curve" smooth="yes"/>
      <point x="186" y="225" type="line" smooth="yes"/>
      <point x="119" y="170"/>
      <point x="80" y="87"/>
      <point x="80" y="0" type="curve"/>
    </contour>
  </outline>
</glyph>
<glyph name="y" format="1">
  <advance width="734"/>
  <unicode hex="0079"/>
  <outline>
    <contour>
      <point x="464" y="-230" type="line" smooth="yes"/>
      <point x="569" y="-230"/>
      <point x="654" y="-145"/>
      <point x="654" y="-40" type="curve" smooth="yes"/>
      <point x="654" y="600" type="line"/>
      <point x="494" y="600" type="line"/>
      <point x="494" y="-40" type="line" smooth="yes"/>
      <point x="494" y="-57"/>
      <point x="481" y="-70"/>
      <point x="464" y="-70" type="curve" smooth="yes"/>
      <point x="170" y="-70" type="line"/>
      <point x="170" y="-230" type="line"/>
    </contour>
    <contour>
      <point x="494" y="-11"/>
      <point x="585" y="42"/>
      <point x="642" y="120" type="curve"/>
      <point x="513" y="214" type="line"/>
      <point x="482" y="172"/>
      <point x="438" y="149"/>
      <point x="390" y="149" type="curve" smooth="yes"/>
      <point x="309" y="149"/>
      <point x="240" y="218"/>
      <point x="240" y="299" type="curve" smooth="yes"/>
      <point x="240" y="600" type="line"/>
      <point x="80" y="600" type="line"/>
      <point x="80" y="299" type="line" smooth="yes"/>
      <point x="80" y="130"/>
      <point x="220" y="-11"/>
      <point x="390" y="-11" type="curve" smooth="yes"/>
    </contour>
    <contour>
      <point x="370" y="939" type="move" name="above"/>
    </contour>
    <contour>
      <point x="370" y="759" type="move" name="accent"/>
    </contour>
  </outline>
</glyph>
<glyph name="z" format="1">
  <advance width="777"/>
  <unicode hex="007A"/>
  <outline>
    <contour>
      <point x="697" y="0" type="line"/>
      <point x="697" y="160" type="line"/>
      <point x="176" y="160" type="line"/>
      <point x="215" y="160"/>
      <point x="241" y="127"/>
      <point x="241" y="93" type="curve" smooth="yes"/>
      <point x="241" y="76"/>
      <point x="234" y="60"/>
      <point x="219" y="46" type="curve"/>
      <point x="664" y="434" type="line" smooth="yes"/>
      <point x="687" y="454"/>
      <point x="697" y="480"/>
      <point x="697" y="505" type="curve" smooth="yes"/>
      <point x="697" y="554"/>
      <point x="659" y="600"/>
      <point x="601" y="600" type="curve" smooth="yes"/>
      <point x="100" y="600" type="line"/>
      <point x="100" y="440" type="line"/>
      <point x="601" y="440" type="line"/>
      <point x="562" y="440"/>
      <point x="536" y="473"/>
      <point x="536" y="507" type="curve" smooth="yes"/>
      <point x="536" y="523"/>
      <point x="543" y="540"/>
      <point x="557" y="553" type="curve"/>
      <point x="113" y="166" type="line" smooth="yes"/>
      <point x="90" y="146"/>
      <point x="80" y="120"/>
      <point x="80" y="95" type="curve" smooth="yes"/>
      <point x="80" y="46"/>
      <point x="118" y="0"/>
      <point x="176" y="0" type="curve" smooth="yes"/>
    </contour>
    <contour>
      <point x="404" y="759" type="move" name="accent"/>
    </contour>
  </outline>
</glyph>
<glyph name="bar" format="2">
	<advance width="320"/>
	<unicode hex="007C"/>
	<outline>
		<contour>
			<point x="100" y="820" type="line"/>
			<point x="100" y="-130" type="line"/>
			<point x="220" y="-130" type="line"/>
			<point x="220" y="820" type="line"/>
		</contour>
	</outline>
</glyph>
<glyph name="asciitilde" format="1">
  <advance width="625"/>
  <unicode hex="007E"/>
  <outline>
    <contour>
      <point x="434" y="276"/>
      <point x="491" y="309"/>
      <point x="525" y="366" type="curve"/>
      <point x="438" y="436" type="line"/>
      <point x="415" y="412"/>
      <point x="398" y="398"/>
      <point x="373" y="398" type="curve" smooth="yes"/>
      <point x="331" y="398"/>
      <point x="308" y="432"/>
      <point x="248" y="432" type="curve" smooth="yes"/>
      <point x="186" y="432"/>
      <point x="129" y="399"/>
      <point x="100" y="345" type="curve"/>
      <point x="187" y="269" type="line"/>
      <point x="205" y="295"/>
      <point x="221" y="311"/>
      <point x="248" y="311" type="curve" smooth="yes"/>
      <point x="296" y="311"/>
      <point x="303" y="276"/>
      <point x="373" y="276" type="curve" smooth="yes"/>
    </contour>
  </outline>
</glyph>
<glyph name="cent" format="2">
	<advance width="700"/>
	<unicode hex="00A2"/>
	<guideline x="498" y="-26" angle="0"/>
	<guideline x="498" y="729" angle="0"/>
	<outline>
		<contour>
			<point x="368" y="84" type="curve" smooth="yes"/>
			<point x="467" y="84"/>
			<point x="554" y="138"/>
			<point x="600" y="217" type="curve"/>
			<point x="496" y="277" type="line"/>
			<point x="470" y="232"/>
			<point x="421" y="204"/>
			<point x="368" y="204" type="curve" smooth="yes"/>
			<point x="286" y="204"/>
			<point x="220" y="270"/>
			<point x="220" y="352" type="curve" smooth="yes"/>
			<point x="220" y="433"/>
			<point x="286" y="499"/>
			<point x="368" y="499" type="curve" smooth="yes"/>
			<point x="422" y="499"/>
			<point x="469" y="472"/>
			<point x="497" y="425" type="curve"/>
			<point x="600" y="486" type="line"/>
			<point x="553" y="566"/>
			<point x="467" y="619"/>
			<point x="368" y="619" type="curve" smooth="yes"/>
			<point x="220" y="619"/>
			<point x="100" y="500"/>
			<point x="100" y="352" type="curve" smooth="yes"/>
			<point x="100" y="204"/>
			<point x="220" y="84"/>
		</contour>
		<contour>
			<point x="308" y="-26" type="line"/>
			<point x="428" y="-26" type="line"/>
			<point x="428" y="134" type="line"/>
			<point x="308" y="134" type="line"/>
		</contour>
		<contour>
			<point x="308" y="569" type="line"/>
			<point x="428" y="569" type="line"/>
			<point x="428" y="729" type="line"/>
			<point x="308" y="729" type="line"/>
		</contour>
	</outline>
</glyph>
<glyph name="sterling" format="1">
  <advance width="630"/>
  <unicode hex="00A3"/>
  <outline>
    <contour>
      <point x="206" y="30"/>
      <point x="291" y="116"/>
      <point x="292" y="222" type="curve" smooth="yes"/>
      <point x="293" y="386" type="line" smooth="yes"/>
      <point x="294" y="493"/>
      <point x="380" y="580"/>
      <point x="488" y="580" type="curve"/>
      <point x="488" y="700" type="line"/>
      <point x="314" y="700"/>
      <point x="174" y="560"/>
      <point x="173" y="386" type="curve" smooth="yes"/>
      <point x="172" y="222" type="line" smooth="yes"/>
      <point x="172" y="182"/>
      <point x="140" y="150"/>
      <point x="100" y="150" type="curve"/>
      <point x="100" y="30" type="line"/>
    </contour>
    <contour>
      <point x="530" y="30" type="line"/>
      <point x="530" y="150" type="line"/>
      <point x="100" y="150" type="line"/>
      <point x="100" y="30" type="line"/>
    </contour>
    <contour>
      <point x="488" y="305" type="line"/>
      <point x="488" y="390" type="line"/>
      <point x="100" y="390" type="line"/>
      <point x="100" y="305" type="line"/>
    </contour>
  </outline>
</glyph>
<glyph name="currency" format="1">
  <advance width="794"/>
  <unicode hex="00A4"/>
  <outline>
    <contour>
      <point x="526" y="112"/>
      <point x="633" y="219"/>
      <point x="633" y="352" type="curve" smooth="yes"/>
      <point x="633" y="485"/>
      <point x="526" y="592"/>
      <point x="393" y="592" type="curve" smooth="yes"/>
      <point x="260" y="592"/>
      <point x="153" y="485"/>
      <point x="153" y="352" type="curve" smooth="yes"/>
      <point x="153" y="219"/>
      <point x="260" y="112"/>
      <point x="393" y="112" type="curve" smooth="yes"/>
    </contour>
    <contour>
      <point x="273" y="168" type="line"/>
      <point x="214" y="227" type="line"/>
      <point x="100" y="115" type="line"/>
      <point x="160" y="55" type="line"/>
    </contour>
    <contour>
      <point x="326" y="232"/>
      <point x="273" y="285"/>
      <point x="273" y="352" type="curve" smooth="yes"/>
      <point x="273" y="419"/>
      <point x="326" y="472"/>
      <point x="393" y="472" type="curve" smooth="yes"/>
      <point x="460" y="472"/>
      <point x="513" y="419"/>
      <point x="513" y="352" type="curve" smooth="yes"/>
      <point x="513" y="285"/>
      <point x="460" y="232"/>
      <point x="393" y="232" type="curve" smooth="yes"/>
    </contour>
    <contour>
      <point x="694" y="115" type="line"/>
      <point x="581" y="228" type="line"/>
      <point x="521" y="168" type="line"/>
      <point x="634" y="55" type="line"/>
    </contour>
    <contour>
      <point x="273" y="536" type="line"/>
      <point x="160" y="649" type="line"/>
      <point x="100" y="589" type="line"/>
      <point x="213" y="476" type="line"/>
    </contour>
    <contour>
      <point x="693" y="589" type="line"/>
      <point x="634" y="649" type="line"/>
      <point x="520" y="535" type="line"/>
      <point x="580" y="476" type="line"/>
    </contour>
  </outline>
</glyph>
<glyph name="yen" format="1">
  <advance width="738"/>
  <unicode hex="00A5"/>
  <outline>
    <contour>
      <point x="504" y="309" type="line"/>
      <point x="638" y="670" type="line"/>
      <point x="510" y="670" type="line"/>
      <point x="392" y="351" type="line" smooth="yes"/>
      <point x="386" y="336"/>
      <point x="378" y="330"/>
      <point x="369" y="330" type="curve" smooth="yes"/>
      <point x="361" y="330"/>
      <point x="352" y="337"/>
      <point x="347" y="351" type="curve" smooth="yes"/>
      <point x="229" y="670" type="line"/>
      <point x="100" y="670" type="line"/>
      <point x="234" y="309" type="line"/>
    </contour>
    <contour>
      <point x="430" y="-26" type="line"/>
      <point x="430" y="120" type="line"/>
      <point x="310" y="120" type="line"/>
      <point x="310" y="-26" type="line"/>
    </contour>
    <contour>
      <point x="579" y="104" type="line"/>
      <point x="579" y="189" type="line"/>
      <point x="159" y="189" type="line"/>
      <point x="159" y="104" type="line"/>
    </contour>
    <contour>
      <point x="579" y="249" type="line"/>
      <point x="579" y="334" type="line"/>
      <point x="485" y="334" type="line"/>
      <point x="485" y="319" type="line"/>
      <point x="252" y="319" type="line"/>
      <point x="252" y="334" type="line"/>
      <point x="159" y="334" type="line"/>
      <point x="159" y="249" type="line"/>
    </contour>
  </outline>
</glyph>
<glyph name="brokenbar" format="1">
  <advance width="320"/>
  <unicode hex="00A6"/>
  <outline>
    <contour>
      <point x="220" y="448" type="line"/>
      <point x="220" y="820" type="line"/>
      <point x="100" y="820" type="line"/>
      <point x="100" y="448" type="line"/>
    </contour>
    <contour>
      <point x="220" y="-130" type="line"/>
      <point x="220" y="242" type="line"/>
      <point x="100" y="242" type="line"/>
      <point x="100" y="-130" type="line"/>
    </contour>
  </outline>
</glyph>
<glyph name="section" format="1">
  <advance width="682"/>
  <unicode hex="00A7"/>
  <outline>
    <contour>
      <point x="428" y="196" type="line" smooth="yes"/>
      <point x="512" y="196"/>
      <point x="581" y="265"/>
      <point x="581" y="350" type="curve" smooth="yes"/>
      <point x="581" y="436"/>
      <point x="514" y="504"/>
      <point x="428" y="504" type="curve" smooth="yes"/>
      <point x="254" y="504" type="line" smooth="yes"/>
      <point x="170" y="504"/>
      <point x="101" y="435"/>
      <point x="101" y="350" type="curve" smooth="yes"/>
      <point x="101" y="264"/>
      <point x="168" y="196"/>
      <point x="254" y="196" type="curve" smooth="yes"/>
    </contour>
    <contour>
      <point x="428" y="6" type="line" smooth="yes"/>
      <point x="513" y="6"/>
      <point x="582" y="75"/>
      <point x="582" y="161" type="curve" smooth="yes"/>
      <point x="582" y="246"/>
      <point x="513" y="316"/>
      <point x="428" y="316" type="curve"/>
      <point x="428" y="196" type="line"/>
      <point x="446" y="196"/>
      <point x="462" y="180"/>
      <point x="462" y="161" type="curve" smooth="yes"/>
      <point x="462" y="141"/>
      <point x="447" y="126"/>
      <point x="428" y="126" type="curve" smooth="yes"/>
      <point x="136" y="126" type="line"/>
      <point x="136" y="6" type="line"/>
    </contour>
    <contour>
      <point x="234" y="316"/>
      <point x="221" y="330"/>
      <point x="221" y="350" type="curve" smooth="yes"/>
      <point x="221" y="369"/>
      <point x="236" y="384"/>
      <point x="254" y="384" type="curve" smooth="yes"/>
      <point x="428" y="384" type="line" smooth="yes"/>
      <point x="448" y="384"/>
      <point x="461" y="370"/>
      <point x="461" y="350" type="curve" smooth="yes"/>
      <point x="461" y="331"/>
      <point x="446" y="316"/>
      <point x="428" y="316" type="curve" smooth="yes"/>
      <point x="254" y="316" type="line" smooth="yes"/>
    </contour>
    <contour>
      <point x="254" y="504" type="line"/>
      <point x="236" y="504"/>
      <point x="220" y="520"/>
      <point x="220" y="539" type="curve" smooth="yes"/>
      <point x="220" y="559"/>
      <point x="235" y="574"/>
      <point x="254" y="574" type="curve" smooth="yes"/>
      <point x="546" y="574" type="line"/>
      <point x="546" y="694" type="line"/>
      <point x="254" y="694" type="line" smooth="yes"/>
      <point x="169" y="694"/>
      <point x="100" y="625"/>
      <point x="100" y="539" type="curve" smooth="yes"/>
      <point x="100" y="454"/>
      <point x="169" y="384"/>
      <point x="254" y="384" type="curve"/>
    </contour>
  </outline>
</glyph>
<glyph name="dieresis" format="1">
  <advance width="414"/>
  <unicode hex="00A8"/>
  <outline>
    <contour>
      <point x="146" y="650"/>
      <point x="176" y="680"/>
      <point x="176" y="717" type="curve" smooth="yes"/>
      <point x="176" y="754"/>
      <point x="146" y="784"/>
      <point x="108" y="784" type="curve" smooth="yes"/>
      <point x="71" y="784"/>
      <point x="41" y="754"/>
      <point x="41" y="717" type="curve" smooth="yes"/>
      <point x="41" y="680"/>
      <point x="71" y="650"/>
      <point x="108" y="650" type="curve" smooth="yes"/>
    </contour>
    <contour>
      <point x="343" y="650"/>
      <point x="373" y="680"/>
      <point x="373" y="717" type="curve" smooth="yes"/>
      <point x="373" y="754"/>
      <point x="343" y="784"/>
      <point x="305" y="784" type="curve" smooth="yes"/>
      <point x="268" y="784"/>
      <point x="238" y="754"/>
      <point x="238" y="717" type="curve" smooth="yes"/>
      <point x="238" y="680"/>
      <point x="268" y="650"/>
      <point x="305" y="650" type="curve" smooth="yes"/>
    </contour>
    <contour>
      <point x="207" y="717" type="move" name="_accent"/>
    </contour>
    <contour>
      <point x="207" y="717" type="move" name="_above"/>
    </contour>
  </outline>
</glyph>
<glyph name="copyright" format="1">
  <advance width="911"/>
  <unicode hex="00A9"/>
  <outline>
    <contour>
      <point x="663" y="-25"/>
      <point x="831" y="143"/>
      <point x="831" y="350" type="curve" smooth="yes"/>
      <point x="831" y="557"/>
      <point x="663" y="725"/>
      <point x="455" y="725" type="curve" smooth="yes"/>
      <point x="248" y="725"/>
      <point x="80" y="557"/>
      <point x="80" y="350" type="curve" smooth="yes"/>
      <point x="80" y="143"/>
      <point x="248" y="-25"/>
      <point x="455" y="-25" type="curve" smooth="yes"/>
    </contour>
    <contour>
      <point x="513" y="184"/>
      <point x="566" y="217"/>
      <point x="594" y="266" type="curve"/>
      <point x="520" y="308" type="line"/>
      <point x="506" y="284"/>
      <point x="481" y="269"/>
      <point x="453" y="269" type="curve" smooth="yes"/>
      <point x="408" y="269"/>
      <point x="373" y="304"/>
      <point x="373" y="349" type="curve" smooth="yes"/>
      <point x="373" y="393"/>
      <point x="409" y="428"/>
      <point x="453" y="428" type="curve" smooth="yes"/>
      <point x="482" y="428"/>
      <point x="506" y="414"/>
      <point x="520" y="389" type="curve"/>
      <point x="594" y="431" type="line"/>
      <point x="566" y="481"/>
      <point x="513" y="513"/>
      <point x="453" y="513" type="curve" smooth="yes"/>
      <point x="361" y="513"/>
      <point x="288" y="439"/>
      <point x="288" y="349" type="curve" smooth="yes"/>
      <point x="288" y="258"/>
      <point x="361" y="184"/>
      <point x="453" y="184" type="curve" smooth="yes"/>
    </contour>
    <contour>
      <point x="317" y="99"/>
      <point x="205" y="212"/>
      <point x="205" y="350" type="curve" smooth="yes"/>
      <point x="205" y="488"/>
      <point x="317" y="601"/>
      <point x="455" y="601" type="curve" smooth="yes"/>
      <point x="594" y="601"/>
      <point x="706" y="488"/>
      <point x="706" y="350" type="curve" smooth="yes"/>
      <point x="706" y="212"/>
      <point x="594" y="99"/>
      <point x="455" y="99" type="curve" smooth="yes"/>
    </contour>
  </outline>
</glyph>
<glyph name="logicalnot" format="1">
  <advance width="660"/>
  <unicode hex="00AC"/>
  <outline>
    <contour>
      <point x="100" y="410" type="line"/>
      <point x="100" y="290" type="line"/>
      <point x="560" y="290" type="line"/>
      <point x="560" y="410" type="line"/>
    </contour>
    <contour>
      <point x="560" y="380" type="line"/>
      <point x="440" y="380" type="line"/>
      <point x="440" y="140" type="line"/>
      <point x="560" y="140" type="line"/>
    </contour>
  </outline>
</glyph>
<glyph name="registered" format="2">
	<advance width="593"/>
	<unicode hex="00AE"/>
	<outline>
		<contour>
			<point x="297" y="363" type="curve" smooth="yes"/>
			<point x="405" y="363"/>
			<point x="493" y="451"/>
			<point x="493" y="560" type="curve" smooth="yes"/>
			<point x="493" y="668"/>
			<point x="405" y="756"/>
			<point x="297" y="756" type="curve" smooth="yes"/>
			<point x="188" y="756"/>
			<point x="100" y="668"/>
			<point x="100" y="560" type="curve" smooth="yes"/>
			<point x="100" y="451"/>
			<point x="188" y="363"/>
		</contour>
		<contour>
			<point x="297" y="422" type="curve" smooth="yes"/>
			<point x="220" y="422"/>
			<point x="159" y="483"/>
			<point x="159" y="560" type="curve" smooth="yes"/>
			<point x="159" y="636"/>
			<point x="220" y="697"/>
			<point x="297" y="697" type="curve" smooth="yes"/>
			<point x="373" y="697"/>
			<point x="434" y="636"/>
			<point x="434" y="560" type="curve" smooth="yes"/>
			<point x="434" y="483"/>
			<point x="373" y="422"/>
		</contour>
		<contour>
			<point x="219" y="476" type="line"/>
			<point x="259" y="476" type="line"/>
			<point x="259" y="614" type="line"/>
			<point x="329" y="614" type="line" smooth="yes"/>
			<point x="337" y="614"/>
			<point x="344" y="607"/>
			<point x="343" y="600" type="curve" smooth="yes"/>
			<point x="344" y="592"/>
			<point x="337" y="586"/>
			<point x="329" y="586" type="curve" smooth="yes"/>
			<point x="319" y="586" type="line" smooth="yes"/>
			<point x="279" y="586"/>
			<point x="258" y="535"/>
			<point x="286" y="506" type="curve" smooth="yes"/>
			<point x="317" y="476" type="line"/>
			<point x="374" y="476" type="line"/>
			<point x="315" y="535" type="line" smooth="yes"/>
			<point x="311" y="539"/>
			<point x="314" y="545"/>
			<point x="319" y="545" type="curve" smooth="yes"/>
			<point x="329" y="545" type="line" smooth="yes"/>
			<point x="360" y="545"/>
			<point x="384" y="569"/>
			<point x="384" y="600" type="curve" smooth="yes"/>
			<point x="384" y="630"/>
			<point x="359" y="655"/>
			<point x="329" y="655" type="curve" smooth="yes"/>
			<point x="259" y="655" type="line" smooth="yes"/>
			<point x="233" y="655"/>
			<point x="219" y="640"/>
			<point x="219" y="614" type="curve" smooth="yes"/>
		</contour>
	</outline>
</glyph>
<glyph name="macron" format="1">
  <advance width="340"/>
  <unicode hex="00AF"/>
  <outline>
    <contour>
      <point x="0" y="628" type="line"/>
      <point x="340" y="628" type="line"/>
      <point x="340" y="713" type="line"/>
      <point x="0" y="713" type="line"/>
    </contour>
    <contour>
      <point x="170" y="690" type="move" name="_accent"/>
    </contour>
    <contour>
      <point x="170" y="690" type="move" name="_above"/>
    </contour>
  </outline>
</glyph>
<glyph name="degree" format="1">
  <advance width="486"/>
  <unicode hex="00B0"/>
  <outline>
    <contour>
      <point x="321" y="433"/>
      <point x="386" y="498"/>
      <point x="386" y="576" type="curve" smooth="yes"/>
      <point x="386" y="654"/>
      <point x="321" y="719"/>
      <point x="243" y="719" type="curve" smooth="yes"/>
      <point x="165" y="719"/>
      <point x="100" y="654"/>
      <point x="100" y="576" type="curve" smooth="yes"/>
      <point x="100" y="498"/>
      <point x="165" y="433"/>
      <point x="243" y="433" type="curve" smooth="yes"/>
    </contour>
    <contour>
      <point x="213" y="521"/>
      <point x="188" y="546"/>
      <point x="188" y="576" type="curve" smooth="yes"/>
      <point x="188" y="606"/>
      <point x="213" y="631"/>
      <point x="243" y="631" type="curve" smooth="yes"/>
      <point x="273" y="631"/>
      <point x="298" y="606"/>
      <point x="298" y="576" type="curve" smooth="yes"/>
      <point x="298" y="546"/>
      <point x="273" y="521"/>
      <point x="243" y="521" type="curve" smooth="yes"/>
    </contour>
  </outline>
</glyph>
<glyph name="plusminus" format="1">
  <advance width="620"/>
  <unicode hex="00B1"/>
  <outline>
    <contour>
      <point x="250" y="280" type="line"/>
      <point x="370" y="280" type="line"/>
      <point x="370" y="590" type="line"/>
      <point x="250" y="590" type="line"/>
    </contour>
    <contour>
      <point x="100" y="495" type="line"/>
      <point x="100" y="375" type="line"/>
      <point x="520" y="375" type="line"/>
      <point x="520" y="495" type="line"/>
    </contour>
    <contour>
      <point x="100" y="240" type="line"/>
      <point x="100" y="120" type="line"/>
      <point x="520" y="120" type="line"/>
      <point x="520" y="240" type="line"/>
    </contour>
  </outline>
</glyph>
<glyph name="acute" format="2">
	<advance width="278"/>
	<unicode hex="00B4"/>
	<anchor x="103" y="670" name="_accent"/>
	<anchor x="103" y="644" name="_accentside"/>
	<anchor x="103" y="670" name="_above"/>
	<outline>
		<contour>
			<point x="114" y="744" type="line"/>
			<point x="50" y="600" type="line"/>
			<point x="154" y="600" type="line"/>
			<point x="218" y="744" type="line"/>
		</contour>
	</outline>
</glyph>
<glyph name="paragraph" format="2">
	<advance width="736"/>
	<unicode hex="00B6"/>
	<outline>
		<contour>
			<point x="386" y="800" type="line"/>
			<point x="386" y="-110" type="line"/>
			<point x="471" y="-110" type="line"/>
			<point x="471" y="800" type="line"/>
		</contour>
		<contour>
			<point x="551" y="800" type="line"/>
			<point x="551" y="-110" type="line"/>
			<point x="636" y="-110" type="line"/>
			<point x="636" y="800" type="line"/>
		</contour>
		<contour>
			<point x="386" y="228" type="curve"/>
			<point x="386" y="800" type="line"/>
			<point x="229" y="800"/>
			<point x="100" y="672"/>
			<point x="100" y="514" type="curve" smooth="yes"/>
			<point x="100" y="357"/>
			<point x="229" y="228"/>
		</contour>
	</outline>
</glyph>
<glyph name="AE" format="2">
	<advance width="1078"/>
	<unicode hex="00C6"/>
	<outline>
		<contour>
			<point x="26" y="0" type="line"/>
			<point x="195" y="0" type="line"/>
			<point x="364" y="521" type="line" smooth="yes"/>
			<point x="368" y="532"/>
			<point x="380" y="540"/>
			<point x="393" y="540" type="curve" smooth="yes"/>
			<point x="1006" y="540" type="line"/>
			<point x="1006" y="700" type="line"/>
			<point x="393" y="700" type="line" smooth="yes"/>
			<point x="312" y="700"/>
			<point x="237" y="651"/>
			<point x="212" y="573" type="curve" smooth="yes"/>
		</contour>
		<contour>
			<point x="511" y="0" type="curve" smooth="yes"/>
			<point x="1006" y="0" type="line"/>
			<point x="1006" y="160" type="line"/>
			<point x="610" y="160" type="line"/>
			<point x="610" y="270" type="line"/>
			<point x="844" y="270" type="line"/>
			<point x="844" y="430" type="line"/>
			<point x="611" y="430" type="line"/>
			<point x="611" y="573" type="line"/>
			<point x="451" y="573" type="line"/>
			<point x="451" y="280" type="line"/>
			<point x="216" y="280" type="line"/>
			<point x="216" y="120" type="line"/>
			<point x="451" y="120" type="line"/>
			<point x="451" y="60" type="line" smooth="yes"/>
			<point x="451" y="21"/>
			<point x="472" y="0"/>
		</contour>
	</outline>
</glyph>
<glyph name="multiply" format="2">
	<advance width="700"/>
	<unicode hex="00D7"/>
	<outline>
		<contour>
			<point x="456" y="541" type="line"/>
			<point x="159" y="244" type="line"/>
			<point x="244" y="159" type="line"/>
			<point x="541" y="456" type="line"/>
		</contour>
		<contour>
			<point x="541" y="244" type="line"/>
			<point x="244" y="541" type="line"/>
			<point x="159" y="456" type="line"/>
			<point x="456" y="159" type="line"/>
		</contour>
	</outline>
</glyph>
<glyph name="Thorn" format="2">
	<advance width="763"/>
	<unicode hex="00DE"/>
	<outline>
		<contour>
			<point x="164" y="130" type="line"/>
			<point x="482" y="130" type="line"/>
			<point x="604" y="130"/>
			<point x="703" y="228"/>
			<point x="703" y="350" type="curve" smooth="yes"/>
			<point x="703" y="472"/>
			<point x="603" y="570"/>
			<point x="481" y="570" type="curve"/>
			<point x="164" y="570" type="line"/>
			<point x="164" y="410" type="line"/>
			<point x="481" y="410" type="line" smooth="yes"/>
			<point x="515" y="410"/>
			<point x="543" y="383"/>
			<point x="543" y="350" type="curve" smooth="yes"/>
			<point x="543" y="317"/>
			<point x="516" y="290"/>
			<point x="482" y="290" type="curve" smooth="yes"/>
			<point x="164" y="290" type="line"/>
		</contour>
		<contour>
			<point x="80" y="0" type="line"/>
			<point x="240" y="0" type="line"/>
			<point x="240" y="700" type="line"/>
			<point x="80" y="700" type="line"/>
		</contour>
	</outline>
</glyph>
<glyph name="germandbls" format="2">
	<advance width="708"/>
	<unicode hex="00DF"/>
	<outline>
		<contour>
			<point x="80" y="0" type="line"/>
			<point x="240" y="0" type="line"/>
			<point x="240" y="494" type="line" smooth="yes"/>
			<point x="240" y="526"/>
			<point x="265" y="549"/>
			<point x="300" y="549" type="curve" smooth="yes"/>
			<point x="319" y="549"/>
			<point x="341" y="543"/>
			<point x="360" y="526" type="curve"/>
			<point x="347" y="578" type="line"/>
			<point x="302" y="438" type="line" smooth="yes"/>
			<point x="294" y="413"/>
			<point x="290" y="389"/>
			<point x="290" y="368" type="curve" smooth="yes"/>
			<point x="290" y="280"/>
			<point x="357" y="230"/>
			<point x="444" y="230" type="curve" smooth="yes"/>
			<point x="455" y="230" type="line" smooth="yes"/>
			<point x="471" y="230"/>
			<point x="488" y="215"/>
			<point x="488" y="196" type="curve" smooth="yes"/>
			<point x="488" y="175"/>
			<point x="473" y="160"/>
			<point x="454" y="160" type="curve" smooth="yes"/>
			<point x="330" y="160" type="line"/>
			<point x="330" y="0" type="line"/>
			<point x="454" y="0" type="line" smooth="yes"/>
			<point x="561" y="0"/>
			<point x="648" y="87"/>
			<point x="648" y="196" type="curve" smooth="yes"/>
			<point x="648" y="303"/>
			<point x="561" y="390"/>
			<point x="455" y="390" type="curve"/>
			<point x="518" y="591" type="line" smooth="yes"/>
			<point x="521" y="600"/>
			<point x="522" y="608"/>
			<point x="522" y="616" type="curve" smooth="yes"/>
			<point x="522" y="639"/>
			<point x="510" y="657"/>
			<point x="486" y="669" type="curve" smooth="yes"/>
			<point x="430" y="696"/>
			<point x="373" y="710"/>
			<point x="316" y="710" type="curve" smooth="yes"/>
			<point x="177" y="710"/>
			<point x="80" y="613"/>
			<point x="80" y="494" type="curve" smooth="yes"/>
		</contour>
	</outline>
</glyph>
<glyph name="ae" format="1">
  <advance width="1202"/>
  <unicode hex="00E6"/>
  <outline>
    <contour>
      <point x="485" y="0" type="line" smooth="yes"/>
      <point x="562" y="0"/>
      <point x="624" y="62"/>
      <point x="624" y="139" type="curve" smooth="yes"/>
      <point x="624" y="410" type="line"/>
      <point x="624" y="515"/>
      <point x="539" y="600"/>
      <point x="434" y="600" type="curve" smooth="yes"/>
      <point x="140" y="600" type="line"/>
      <point x="140" y="440" type="line"/>
      <point x="434" y="440" type="line" smooth="yes"/>
      <point x="451" y="440"/>
      <point x="464" y="427"/>
      <point x="464" y="410" type="curve" smooth="yes"/>
      <point x="464" y="139" type="line"/>
      <point x="471" y="146"/>
      <point x="477" y="153"/>
      <point x="484" y="160" type="curve"/>
      <point x="250" y="160" type="line" smooth="yes"/>
      <point x="233" y="160"/>
      <point x="220" y="173"/>
      <point x="220" y="190" type="curve" smooth="yes"/>
      <point x="220" y="207"/>
      <point x="233" y="220"/>
      <point x="250" y="220" type="curve" smooth="yes"/>
      <point x="545" y="220" type="line"/>
      <point x="545" y="380" type="line"/>
      <point x="250" y="380" type="line" smooth="yes"/>
      <point x="144" y="380"/>
      <point x="60" y="295"/>
      <point x="60" y="190" type="curve" smooth="yes"/>
      <point x="60" y="85"/>
      <point x="145" y="0"/>
      <point x="250" y="0" type="curve" smooth="yes"/>
    </contour>
    <contour>
      <point x="944" y="-9"/>
      <point x="1045" y="51"/>
      <point x="1102" y="147" type="curve"/>
      <point x="938" y="194" type="line"/>
      <point x="909" y="167"/>
      <point x="872" y="151"/>
      <point x="831" y="151" type="curve" smooth="yes"/>
      <point x="748" y="151"/>
      <point x="683" y="221"/>
      <point x="683" y="301" type="curve" smooth="yes"/>
      <point x="683" y="383"/>
      <point x="750" y="450"/>
      <point x="833" y="450" type="curve" smooth="yes"/>
      <point x="916" y="450"/>
      <point x="982" y="383"/>
      <point x="982" y="300" type="curve"/>
      <point x="982" y="349"/>
      <point x="1022" y="350"/>
      <point x="1072" y="350" type="curve"/>
      <point x="635" y="351" type="line"/>
      <point x="635" y="231" type="line"/>
      <point x="1072" y="230" type="line" smooth="yes"/>
      <point x="1111" y="230"/>
      <point x="1142" y="261"/>
      <point x="1142" y="300" type="curve" smooth="yes"/>
      <point x="1142" y="471"/>
      <point x="1004" y="609"/>
      <point x="833" y="610" type="curve" smooth="yes"/>
      <point x="662" y="611"/>
      <point x="523" y="472"/>
      <point x="523" y="301" type="curve" smooth="yes"/>
      <point x="523" y="130"/>
      <point x="662" y="-9"/>
      <point x="833" y="-9" type="curve" smooth="yes"/>
    </contour>
  </outline>
</glyph>
<glyph name="eth" format="2">
	<advance width="752"/>
	<unicode hex="00F0"/>
	<outline>
		<contour>
			<point x="370" y="-9" type="curve" smooth="yes"/>
			<point x="542" y="-9"/>
			<point x="681" y="130"/>
			<point x="681" y="301" type="curve" smooth="yes"/>
			<point x="681" y="472"/>
			<point x="541" y="611"/>
			<point x="370" y="611" type="curve" smooth="yes"/>
			<point x="199" y="611"/>
			<point x="60" y="472"/>
			<point x="60" y="301" type="curve" smooth="yes"/>
			<point x="60" y="130"/>
			<point x="199" y="-9"/>
		</contour>
		<contour>
			<point x="370" y="151" type="curve" smooth="yes"/>
			<point x="287" y="151"/>
			<point x="220" y="218"/>
			<point x="220" y="301" type="curve" smooth="yes"/>
			<point x="220" y="384"/>
			<point x="287" y="451"/>
			<point x="370" y="451" type="curve" smooth="yes"/>
			<point x="453" y="451"/>
			<point x="521" y="383"/>
			<point x="521" y="301" type="curve" smooth="yes"/>
			<point x="521" y="218"/>
			<point x="453" y="151"/>
		</contour>
		<contour>
			<point x="521" y="291" type="curve"/>
			<point x="681" y="291" type="line"/>
			<point x="690" y="482"/>
			<point x="630" y="722"/>
			<point x="531" y="889" type="curve"/>
			<point x="388" y="822" type="line"/>
			<point x="477" y="675"/>
			<point x="530" y="462"/>
		</contour>
		<contour>
			<point x="376" y="662" type="line"/>
			<point x="666" y="798" type="line"/>
			<point x="630" y="876" type="line"/>
			<point x="340" y="740" type="line"/>
		</contour>
	</outline>
</glyph>
<glyph name="divide" format="1">
  <advance width="620"/>
  <unicode hex="00F7"/>
  <outline>
    <contour>
      <point x="100" y="410" type="line"/>
      <point x="100" y="290" type="line"/>
      <point x="520" y="290" type="line"/>
      <point x="520" y="410" type="line"/>
    </contour>
    <contour>
      <point x="354" y="450"/>
      <point x="388" y="484"/>
      <point x="388" y="528" type="curve" smooth="yes"/>
      <point x="388" y="572"/>
      <point x="354" y="606"/>
      <point x="310" y="606" type="curve" smooth="yes"/>
      <point x="266" y="606"/>
      <point x="232" y="572"/>
      <point x="232" y="528" type="curve" smooth="yes"/>
      <point x="232" y="484"/>
      <point x="266" y="450"/>
      <point x="310" y="450" type="curve" smooth="yes"/>
    </contour>
    <contour>
      <point x="354" y="94"/>
      <point x="388" y="128"/>
      <point x="388" y="172" type="curve" smooth="yes"/>
      <point x="388" y="216"/>
      <point x="354" y="250"/>
      <point x="310" y="250" type="curve" smooth="yes"/>
      <point x="266" y="250"/>
      <point x="232" y="216"/>
      <point x="232" y="172" type="curve" smooth="yes"/>
      <point x="232" y="128"/>
      <point x="266" y="94"/>
      <point x="310" y="94" type="curve" smooth="yes"/>
    </contour>
  </outline>
</glyph>
<glyph name="thorn" format="1">
  <advance width="714"/>
  <unicode hex="00FE"/>
  <outline>
    <contour>
      <point x="240" y="800" type="line"/>
      <point x="80" y="800" type="line"/>
      <point x="80" y="-200" type="line"/>
      <point x="240" y="-200" type="line"/>
    </contour>
    <contour>
      <point x="494" y="220"/>
      <point x="425" y="151"/>
      <point x="344" y="151" type="curve" smooth="yes"/>
      <point x="296" y="151"/>
      <point x="252" y="174"/>
      <point x="222" y="216" type="curve"/>
      <point x="92" y="122" type="line"/>
      <point x="149" y="43"/>
      <point x="240" y="-9"/>
      <point x="344" y="-9" type="curve" smooth="yes"/>
      <point x="514" y="-9"/>
      <point x="654" y="132"/>
      <point x="654" y="301" type="curve" smooth="yes"/>
      <point x="654" y="470"/>
      <point x="514" y="611"/>
      <point x="344" y="611" type="curve" smooth="yes"/>
      <point x="240" y="611"/>
      <point x="149" y="559"/>
      <point x="92" y="480" type="curve"/>
      <point x="222" y="386" type="line"/>
      <point x="252" y="428"/>
      <point x="296" y="451"/>
      <point x="344" y="451" type="curve" smooth="yes"/>
      <point x="425" y="451"/>
      <point x="494" y="382"/>
      <point x="494" y="301" type="curve" smooth="yes"/>
    </contour>
  </outline>
</glyph>
<glyph name="idotless" format="1">
  <advance width="360"/>
  <unicode hex="0131"/>
  <outline>
    <contour>
      <point x="100" y="0" type="line"/>
      <point x="260" y="0" type="line"/>
      <point x="260" y="600" type="line"/>
      <point x="100" y="600" type="line"/>
    </contour>
    <contour>
      <point x="180" y="-167" type="move" name="below"/>
    </contour>
    <contour>
      <point x="180" y="759" type="move" name="accent"/>
    </contour>
    <contour>
      <point x="180" y="969" type="move" name="above"/>
    </contour>
    <contour>
      <point x="173" y="8" type="move" name="bottom"/>
    </contour>
  </outline>
</glyph>
<glyph name="eng" format="1">
  <advance width="734"/>
  <unicode hex="014B"/>
  <outline>
    <contour>
      <point x="454" y="-230" type="line" smooth="yes"/>
      <point x="584" y="-230"/>
      <point x="654" y="-161"/>
      <point x="654" y="-30" type="curve" smooth="yes"/>
      <point x="654" y="301" type="line" smooth="yes"/>
      <point x="654" y="470"/>
      <point x="514" y="611"/>
      <point x="344" y="611" type="curve" smooth="yes"/>
      <point x="249" y="611"/>
      <point x="163" y="567"/>
      <point x="106" y="499" type="curve" smooth="yes"/>
      <point x="86" y="475"/>
      <point x="80" y="450"/>
      <point x="80" y="418" type="curve" smooth="yes"/>
      <point x="80" y="0" type="line"/>
      <point x="240" y="0" type="line"/>
      <point x="240" y="470" type="line"/>
      <point x="229" y="437"/>
      <point x="219" y="404"/>
      <point x="208" y="371" type="curve"/>
      <point x="255" y="435"/>
      <point x="300" y="451"/>
      <point x="344" y="451" type="curve" smooth="yes"/>
      <point x="425" y="451"/>
      <point x="494" y="382"/>
      <point x="494" y="301" type="curve" smooth="yes"/>
      <point x="494" y="-30" type="line" smooth="yes"/>
      <point x="494" y="-52"/>
      <point x="476" y="-70"/>
      <point x="454" y="-70" type="curve" smooth="yes"/>
      <point x="345" y="-70" type="line"/>
      <point x="345" y="-230" type="line"/>
    </contour>
    <contour>
      <point x="344" y="759" type="move" name="accent"/>
    </contour>
  </outline>
</glyph>
<glyph name="OE" format="1">
  <advance width="1215"/>
  <unicode hex="0152"/>
  <outline>
    <contour>
      <point x="643" y="-25"/>
      <point x="811" y="143"/>
      <point x="811" y="350" type="curve"/>
      <point x="811" y="557"/>
      <point x="643" y="725"/>
      <point x="435" y="725" type="curve"/>
      <point x="228" y="725"/>
      <point x="60" y="557"/>
      <point x="60" y="350" type="curve"/>
      <point x="60" y="143"/>
      <point x="228" y="-25"/>
      <point x="435" y="-25" type="curve"/>
    </contour>
    <contour>
      <point x="317" y="135"/>
      <point x="220" y="231"/>
      <point x="220" y="350" type="curve"/>
      <point x="220" y="469"/>
      <point x="317" y="565"/>
      <point x="435" y="565" type="curve"/>
      <point x="554" y="565"/>
      <point x="651" y="469"/>
      <point x="651" y="350" type="curve"/>
      <point x="651" y="231"/>
      <point x="554" y="135"/>
      <point x="435" y="135" type="curve"/>
    </contour>
    <contour>
      <point x="1135" y="0" type="line"/>
      <point x="1135" y="160" type="line"/>
      <point x="590" y="160" type="line"/>
      <point x="590" y="56"/>
      <point x="646" y="0"/>
      <point x="750" y="0" type="curve" smooth="yes"/>
    </contour>
    <contour>
      <point x="973" y="270" type="line"/>
      <point x="973" y="430" type="line"/>
      <point x="730" y="430" type="line"/>
      <point x="730" y="270" type="line"/>
    </contour>
    <contour>
      <point x="1135" y="540" type="line"/>
      <point x="1135" y="700" type="line"/>
      <point x="750" y="700" type="line" smooth="yes"/>
      <point x="646" y="700"/>
      <point x="590" y="644"/>
      <point x="590" y="540" type="curve"/>
    </contour>
  </outline>
</glyph>
<glyph name="oe" format="1">
  <advance width="1200"/>
  <unicode hex="0153"/>
  <outline>
    <contour>
      <point x="942" y="-9"/>
      <point x="1043" y="51"/>
      <point x="1100" y="147" type="curve"/>
      <point x="936" y="194" type="line"/>
      <point x="907" y="167"/>
      <point x="870" y="151"/>
      <point x="829" y="151" type="curve" smooth="yes"/>
      <point x="746" y="151"/>
      <point x="681" y="221"/>
      <point x="681" y="301" type="curve" smooth="yes"/>
      <point x="681" y="383"/>
      <point x="748" y="450"/>
      <point x="831" y="450" type="curve" smooth="yes"/>
      <point x="914" y="450"/>
      <point x="980" y="383"/>
      <point x="980" y="300" type="curve"/>
      <point x="980" y="349"/>
      <point x="1020" y="350"/>
      <point x="1070" y="350" type="curve"/>
      <point x="633" y="351" type="line"/>
      <point x="633" y="231" type="line"/>
      <point x="1070" y="230" type="line" smooth="yes"/>
      <point x="1109" y="230"/>
      <point x="1140" y="261"/>
      <point x="1140" y="300" type="curve" smooth="yes"/>
      <point x="1140" y="471"/>
      <point x="1002" y="609"/>
      <point x="831" y="610" type="curve" smooth="yes"/>
      <point x="660" y="611"/>
      <point x="521" y="472"/>
      <point x="521" y="301" type="curve" smooth="yes"/>
      <point x="521" y="130"/>
      <point x="660" y="-9"/>
      <point x="831" y="-9" type="curve" smooth="yes"/>
    </contour>
    <contour>
      <point x="453" y="451"/>
      <point x="521" y="383"/>
      <point x="521" y="301" type="curve" smooth="yes"/>
      <point x="521" y="218"/>
      <point x="453" y="151"/>
      <point x="370" y="151" type="curve" smooth="yes"/>
      <point x="287" y="151"/>
      <point x="220" y="218"/>
      <point x="220" y="301" type="curve" smooth="yes"/>
      <point x="220" y="384"/>
      <point x="287" y="451"/>
      <point x="370" y="451" type="curve" smooth="yes"/>
    </contour>
    <contour>
      <point x="199" y="611"/>
      <point x="60" y="472"/>
      <point x="60" y="301" type="curve"/>
      <point x="60" y="130"/>
      <point x="199" y="-9"/>
      <point x="370" y="-9" type="curve"/>
      <point x="542" y="-9"/>
      <point x="681" y="130"/>
      <point x="681" y="301" type="curve"/>
      <point x="681" y="472"/>
      <point x="541" y="611"/>
      <point x="370" y="611" type="curve"/>
    </contour>
    <contour>
      <point x="1031" y="759" type="move" name="accent"/>
    </contour>
  </outline>
</glyph>
<glyph name="longs" format="2">
	<advance width="360"/>
	<unicode hex="017F"/>
	<outline>
		<contour>
			<point x="290" y="801" type="line" smooth="yes"/>
			<point x="185" y="801"/>
			<point x="100" y="716"/>
			<point x="100" y="611" type="curve" smooth="yes"/>
			<point x="100" y="-40" type="line" smooth="yes"/>
			<point x="100" y="-57"/>
			<point x="87" y="-70"/>
			<point x="70" y="-70" type="curve" smooth="yes"/>
			<point x="-80" y="-70" type="line"/>
			<point x="-80" y="-230" type="line"/>
			<point x="70" y="-230" type="line" smooth="yes"/>
			<point x="175" y="-230"/>
			<point x="260" y="-145"/>
			<point x="260" y="-40" type="curve" smooth="yes"/>
			<point x="260" y="611" type="line" smooth="yes"/>
			<point x="260" y="628"/>
			<point x="273" y="641"/>
			<point x="290" y="641" type="curve" smooth="yes"/>
			<point x="440" y="641" type="line"/>
			<point x="440" y="801" type="line"/>
		</contour>
	</outline>
</glyph>
<glyph name="florin" format="2">
	<advance width="700"/>
	<unicode hex="0192"/>
	<outline>
		<contour>
			<point x="100" y="-220" type="line"/>
			<point x="167" y="-220" type="line" smooth="yes"/>
			<point x="276" y="-220"/>
			<point x="359" y="-148"/>
			<point x="374" y="-39" type="curve" smooth="yes"/>
			<point x="465" y="612" type="line" smooth="yes"/>
			<point x="469" y="642"/>
			<point x="493" y="662"/>
			<point x="525" y="662" type="curve" smooth="yes"/>
			<point x="601" y="662" type="line"/>
			<point x="601" y="802" type="line"/>
			<point x="534" y="802" type="line" smooth="yes"/>
			<point x="425" y="802"/>
			<point x="342" y="730"/>
			<point x="327" y="621" type="curve" smooth="yes"/>
			<point x="236" y="-30" type="line" smooth="yes"/>
			<point x="232" y="-60"/>
			<point x="208" y="-80"/>
			<point x="176" y="-80" type="curve" smooth="yes"/>
			<point x="100" y="-80" type="line"/>
		</contour>
		<contour>
			<point x="175" y="380" type="line"/>
			<point x="562" y="380" type="line"/>
			<point x="562" y="465" type="line"/>
			<point x="175" y="465" type="line"/>
		</contour>
	</outline>
</glyph>
<glyph name="jdotless" format="1">
  <advance width="360"/>
  <unicode hex="0237"/>
  <outline>
    <contour>
      <point x="60" y="-230" type="line" smooth="yes"/>
      <point x="190" y="-230"/>
      <point x="260" y="-160"/>
      <point x="260" y="-30" type="curve" smooth="yes"/>
      <point x="260" y="600" type="line"/>
      <point x="100" y="600" type="line"/>
      <point x="100" y="-30" type="line" smooth="yes"/>
      <point x="100" y="-52"/>
      <point x="82" y="-70"/>
      <point x="60" y="-70" type="curve" smooth="yes"/>
      <point x="-49" y="-70" type="line"/>
      <point x="-49" y="-230" type="line"/>
    </contour>
    <contour>
      <point x="181" y="759" type="move" name="accent"/>
    </contour>
  </outline>
</glyph>
<glyph name="caron" format="2">
	<advance width="420"/>
	<unicode hex="02C7"/>
	<anchor x="210" y="717" name="_accent"/>
	<anchor x="210" y="717" name="_above"/>
	<outline>
		<contour>
			<point x="253" y="637" type="curve" smooth="yes"/>
			<point x="380" y="764" type="line"/>
			<point x="271" y="764" type="line"/>
			<point x="210" y="706" type="line"/>
			<point x="149" y="764" type="line"/>
			<point x="40" y="764" type="line"/>
			<point x="167" y="637" type="line" smooth="yes"/>
			<point x="192" y="612"/>
			<point x="228" y="612"/>
		</contour>
	</outline>
</glyph>
<glyph name="dotaccent" format="2">
	<advance width="260"/>
	<unicode hex="02D9"/>
	<anchor x="130" y="717" name="_accent"/>
	<outline>
		<contour>
			<point x="130" y="631" type="curve" smooth="yes"/>
			<point x="178" y="631"/>
			<point x="216" y="669"/>
			<point x="216" y="717" type="curve" smooth="yes"/>
			<point x="216" y="765"/>
			<point x="178" y="803"/>
			<point x="130" y="803" type="curve" smooth="yes"/>
			<point x="82" y="803"/>
			<point x="44" y="765"/>
			<point x="44" y="717" type="curve" smooth="yes"/>
			<point x="44" y="669"/>
			<point x="82" y="631"/>
		</contour>
	</outline>
</glyph>
<glyph name="ring" format="2">
	<advance width="252"/>
	<unicode hex="02DA"/>
	<anchor x="126" y="700" name="_accent"/>
	<outline>
		<contour>
			<point x="126" y="605" type="curve" smooth="yes"/>
			<point x="179" y="605"/>
			<point x="221" y="647"/>
			<point x="221" y="700" type="curve" smooth="yes"/>
			<point x="221" y="753"/>
			<point x="179" y="795"/>
			<point x="126" y="795" type="curve" smooth="yes"/>
			<point x="73" y="795"/>
			<point x="31" y="753"/>
			<point x="31" y="700" type="curve" smooth="yes"/>
			<point x="31" y="647"/>
			<point x="73" y="605"/>
		</contour>
		<contour>
			<point x="126" y="673" type="curve" smooth="yes"/>
			<point x="111" y="673"/>
			<point x="99" y="685"/>
			<point x="99" y="700" type="curve" smooth="yes"/>
			<point x="99" y="715"/>
			<point x="111" y="727"/>
			<point x="126" y="727" type="curve" smooth="yes"/>
			<point x="140" y="727"/>
			<point x="153" y="714"/>
			<point x="153" y="700" type="curve" smooth="yes"/>
			<point x="153" y="685"/>
			<point x="141" y="673"/>
		</contour>
	</outline>
</glyph>
<glyph name="ogonek" format="1">
  <advance width="244"/>
  <unicode hex="02DB"/>
  <outline>
    <contour>
      <point x="183" y="-103" type="line"/>
      <point x="171" y="-115"/>
      <point x="158" y="-121"/>
      <point x="142" y="-121" type="curve" smooth="yes"/>
      <point x="110" y="-121"/>
      <point x="85" y="-96"/>
      <point x="85" y="-63" type="curve" smooth="yes"/>
      <point x="85" y="-35"/>
      <point x="108" y="-10"/>
      <point x="137" y="-8" type="curve"/>
      <point x="129" y="77" type="line"/>
      <point x="55" y="70"/>
      <point x="0" y="8"/>
      <point x="0" y="-63" type="curve" smooth="yes"/>
      <point x="0" y="-143"/>
      <point x="63" y="-206"/>
      <point x="142" y="-206" type="curve" smooth="yes"/>
      <point x="181" y="-206"/>
      <point x="217" y="-190"/>
      <point x="244" y="-162" type="curve"/>
    </contour>
    <contour>
      <point x="115" y="0" type="move" name="_bottom"/>
    </contour>
  </outline>
</glyph>
<glyph name="hungarumlaut" format="2">
	<advance width="476"/>
	<unicode hex="02DD"/>
	<anchor x="208" y="680" name="_accent"/>
	<outline>
		<contour>
			<point x="302" y="744" type="line"/>
			<point x="238" y="600" type="line"/>
			<point x="344" y="599" type="line"/>
			<point x="408" y="743" type="line"/>
		</contour>
		<contour>
			<point x="124" y="744" type="line"/>
			<point x="60" y="600" type="line"/>
			<point x="164" y="600" type="line"/>
			<point x="228" y="744" type="line"/>
		</contour>
	</outline>
</glyph>
<glyph name="circumflexcomb" format="1">
  <advance width="420"/>
  <unicode hex="0302"/>
  <outline>
    <component base="circumflex"/>
    <contour>
      <point x="210" y="687" type="move" name="_accent"/>
    </contour>
    <contour>
      <point x="210" y="687" type="move" name="_below"/>
    </contour>
    <contour>
      <point x="210" y="687" type="move" name="_above"/>
    </contour>
  </outline>
</glyph>
<glyph name="tildecomb" format="1">
  <advance width="600"/>
  <unicode hex="0303"/>
  <outline>
    <contour>
      <point x="438" y="707"/>
      <point x="494" y="735"/>
      <point x="528" y="776" type="curve"/>
      <point x="467" y="828" type="line"/>
      <point x="450" y="805"/>
      <point x="419" y="789"/>
      <point x="389" y="789" type="curve" smooth="yes"/>
      <point x="375" y="789"/>
      <point x="350" y="796"/>
      <point x="326" y="807" type="curve" smooth="yes"/>
      <point x="297" y="821"/>
      <point x="260" y="831"/>
      <point x="234" y="831" type="curve" smooth="yes"/>
      <point x="184" y="831"/>
      <point x="129" y="804"/>
      <point x="96" y="764" type="curve"/>
      <point x="156" y="712" type="line"/>
      <point x="174" y="735"/>
      <point x="205" y="751"/>
      <point x="234" y="751" type="curve" smooth="yes"/>
      <point x="250" y="751"/>
      <point x="274" y="743"/>
      <point x="296" y="732" type="curve" smooth="yes"/>
      <point x="325" y="717"/>
      <point x="362" y="707"/>
      <point x="388" y="707" type="curve" smooth="yes"/>
    </contour>
    <contour>
      <point x="310" y="780" type="move" name="_accent"/>
    </contour>
    <contour>
      <point x="310" y="780" type="move" name="_below"/>
    </contour>
    <contour>
      <point x="310" y="779" type="move" name="_above"/>
    </contour>
  </outline>
</glyph>
<glyph name="brevecomb" format="1">
  <advance width="370"/>
  <unicode hex="0306"/>
  <outline>
    <component base="breve"/>
    <contour>
      <point x="185" y="723" type="move" name="_accent"/>
    </contour>
    <contour>
      <point x="185" y="723" type="move" name="_below"/>
    </contour>
    <contour>
      <point x="185" y="723" type="move" name="_above"/>
    </contour>
  </outline>
</glyph>
<glyph name="dotaccentcomb" format="1">
  <advance width="260"/>
  <unicode hex="0307"/>
  <outline>
    <component base="dotaccent"/>
    <contour>
      <point x="130" y="717" type="move" name="_accent"/>
    </contour>
    <contour>
      <point x="130" y="717" type="move" name="_below"/>
    </contour>
    <contour>
      <point x="130" y="717" type="move" name="_above"/>
    </contour>
  </outline>
</glyph>
<glyph name="strokelongcomb" format="2">
	<advance width="795"/>
	<unicode hex="0336"/>
	<anchor x="398" y="319" name="_bar"/>
	<outline>
		<contour>
			<point x="0" y="362" type="line"/>
			<point x="0" y="277" type="line"/>
			<point x="795" y="277" type="line"/>
			<point x="795" y="362" type="line"/>
		</contour>
	</outline>
</glyph>
<glyph name="slashlongcomb" format="1">
  <advance width="761"/>
  <unicode hex="0338"/>
  <outline>
    <contour>
      <point x="88" y="-2" type="line"/>
      <point x="733" y="642" type="line"/>
      <point x="673" y="702" type="line"/>
      <point x="28" y="58" type="line"/>
    </contour>
    <contour>
      <point x="380" y="350" type="move" name="_slash"/>
    </contour>
  </outline>
</glyph>
<glyph name="mu" format="2">
	<advance width="800"/>
	<unicode hex="03BC"/>
	<outline>
		<contour>
			<point x="106" y="600" type="line"/>
			<point x="106" y="-120" type="line"/>
			<point x="226" y="-120" type="line"/>
			<point x="226" y="600" type="line"/>
		</contour>
		<contour>
			<point x="480" y="600" type="line"/>
			<point x="480" y="238" type="line" smooth="yes"/>
			<point x="480" y="167"/>
			<point x="424" y="111"/>
			<point x="353" y="111" type="curve" smooth="yes"/>
			<point x="283" y="111"/>
			<point x="226" y="168"/>
			<point x="226" y="238" type="curve" smooth="yes"/>
			<point x="226" y="600" type="line"/>
			<point x="106" y="600" type="line"/>
			<point x="106" y="238" type="line" smooth="yes"/>
			<point x="106" y="101"/>
			<point x="217" y="-9"/>
			<point x="353" y="-9" type="curve" smooth="yes"/>
			<point x="490" y="-9"/>
			<point x="600" y="101"/>
			<point x="600" y="238" type="curve" smooth="yes"/>
			<point x="600" y="600" type="line"/>
		</contour>
		<contour>
			<point x="694" y="111" type="line"/>
			<point x="642" y="111"/>
			<point x="600" y="154"/>
			<point x="600" y="206" type="curve" smooth="yes"/>
			<point x="600" y="600" type="line"/>
			<point x="480" y="600" type="line"/>
			<point x="480" y="206" type="line" smooth="yes"/>
			<point x="480" y="87"/>
			<point x="576" y="-9"/>
			<point x="694" y="-9" type="curve"/>
		</contour>
	</outline>
</glyph>
<glyph name="pi" format="2">
	<advance width="770"/>
	<unicode hex="03C0"/>
	<outline>
		<contour>
			<point x="684" y="-9" type="curve"/>
			<point x="684" y="111" type="line"/>
			<point x="632" y="111"/>
			<point x="590" y="154"/>
			<point x="590" y="206" type="curve" smooth="yes"/>
			<point x="590" y="540" type="line"/>
			<point x="470" y="540" type="line"/>
			<point x="470" y="206" type="line" smooth="yes"/>
			<point x="470" y="87"/>
			<point x="566" y="-9"/>
		</contour>
		<contour>
			<point x="180" y="0" type="line"/>
			<point x="300" y="0" type="line"/>
			<point x="300" y="540" type="line"/>
			<point x="180" y="540" type="line"/>
		</contour>
		<contour>
			<point x="60" y="480" type="line"/>
			<point x="710" y="480" type="line"/>
			<point x="710" y="600" type="line"/>
			<point x="60" y="600" type="line"/>
		</contour>
	</outline>
</glyph>
<glyph name="Dje-cy" format="1">
  <advance width="828"/>
  <unicode hex="0402"/>
  <outline>
    <contour>
      <point x="656" y="0"/>
      <point x="768" y="111"/>
      <point x="768" y="249" type="curve" smooth="yes"/>
      <point x="768" y="387"/>
      <point x="657" y="498"/>
      <point x="519" y="498" type="curve" smooth="yes"/>
      <point x="381" y="498"/>
      <point x="270" y="387"/>
      <point x="270" y="249" type="curve"/>
      <point x="430" y="249" type="line"/>
      <point x="430" y="299"/>
      <point x="469" y="338"/>
      <point x="519" y="338" type="curve" smooth="yes"/>
      <point x="569" y="338"/>
      <point x="608" y="299"/>
      <point x="608" y="249" type="curve" smooth="yes"/>
      <point x="608" y="200"/>
      <point x="568" y="160"/>
      <point x="518" y="160" type="curve"/>
      <point x="518" y="0" type="line"/>
    </contour>
    <contour>
      <point x="430" y="0" type="line"/>
      <point x="430" y="585" type="line"/>
      <point x="270" y="585" type="line"/>
      <point x="270" y="0" type="line"/>
    </contour>
    <contour>
      <point x="660" y="550" type="line"/>
      <point x="660" y="700" type="line"/>
      <point x="40" y="700" type="line"/>
      <point x="40" y="550" type="line"/>
    </contour>
  </outline>
</glyph>
<glyph name="E-cy" format="1">
  <advance width="840"/>
  <unicode hex="0404"/>
  <outline>
    <contour>
      <point x="574" y="-25"/>
      <point x="695" y="50"/>
      <point x="760" y="162" type="curve"/>
      <point x="622" y="242" type="line"/>
      <point x="585" y="183"/>
      <point x="525" y="135"/>
      <point x="435" y="135" type="curve" smooth="yes"/>
      <point x="315" y="135"/>
      <point x="220" y="230"/>
      <point x="220" y="350" type="curve" smooth="yes"/>
      <point x="220" y="470"/>
      <point x="315" y="565"/>
      <point x="435" y="565" type="curve" smooth="yes"/>
      <point x="525" y="565"/>
      <point x="585" y="517"/>
      <point x="622" y="458" type="curve"/>
      <point x="760" y="538" type="line"/>
      <point x="695" y="650"/>
      <point x="574" y="725"/>
      <point x="435" y="725" type="curve" smooth="yes"/>
      <point x="228" y="725"/>
      <point x="60" y="557"/>
      <point x="60" y="350" type="curve" smooth="yes"/>
      <point x="60" y="143"/>
      <point x="228" y="-25"/>
      <point x="435" y="-25" type="curve" smooth="yes"/>
    </contour>
    <contour>
      <point x="435" y="410" type="line"/>
      <point x="143" y="411" type="line"/>
      <point x="143" y="291" type="line"/>
      <point x="435" y="290" type="line"/>
    </contour>
    <contour>
      <point x="435" y="-167" type="move" name="below"/>
    </contour>
    <contour>
      <point x="435" y="869" type="move" name="accent"/>
    </contour>
    <contour>
      <point x="434" y="1079" type="move" name="above"/>
    </contour>
    <contour>
      <point x="435" y="350" type="move" name="slash"/>
    </contour>
  </outline>
</glyph>
<glyph name="Lje-cy" format="1">
  <advance width="1012"/>
  <unicode hex="0409"/>
  <outline>
    <contour>
      <point x="614" y="431" type="line"/>
      <point x="614" y="537" type="line" smooth="yes"/>
      <point x="614" y="635"/>
      <point x="549" y="700"/>
      <point x="451" y="700" type="curve" smooth="yes"/>
      <point x="262" y="700" type="line" smooth="yes"/>
      <point x="164" y="700"/>
      <point x="99" y="635"/>
      <point x="99" y="537" type="curve" smooth="yes"/>
      <point x="99" y="200" type="line"/>
      <point x="259" y="200" type="line"/>
      <point x="259" y="578" type="line"/>
      <point x="259" y="552"/>
      <point x="247" y="540"/>
      <point x="221" y="540" type="curve"/>
      <point x="492" y="540" type="line"/>
      <point x="466" y="540"/>
      <point x="454" y="552"/>
      <point x="454" y="578" type="curve"/>
      <point x="454" y="431" type="line"/>
    </contour>
    <contour>
      <point x="59" y="0" type="line"/>
      <point x="189" y="0"/>
      <point x="259" y="70"/>
      <point x="259" y="200" type="curve"/>
      <point x="99" y="200" type="line"/>
      <point x="99" y="178"/>
      <point x="81" y="160"/>
      <point x="59" y="160" type="curve"/>
      <point x="20" y="160" type="line"/>
      <point x="20" y="0" type="line"/>
    </contour>
    <contour>
      <point x="696" y="0" type="line"/>
      <point x="837" y="0"/>
      <point x="952" y="114"/>
      <point x="952" y="255" type="curve" smooth="yes"/>
      <point x="952" y="396"/>
      <point x="838" y="510"/>
      <point x="697" y="510" type="curve"/>
      <point x="538" y="510" type="line"/>
      <point x="538" y="350" type="line"/>
      <point x="696" y="350" type="line"/>
      <point x="748" y="350"/>
      <point x="791" y="307"/>
      <point x="791" y="255" type="curve" smooth="yes"/>
      <point x="791" y="203"/>
      <point x="748" y="160"/>
      <point x="696" y="160" type="curve"/>
      <point x="614" y="160" type="line"/>
      <point x="614" y="431" type="line"/>
      <point x="454" y="431" type="line"/>
      <point x="454" y="160" type="line" smooth="yes"/>
      <point x="454" y="56"/>
      <point x="510" y="0"/>
      <point x="614" y="0" type="curve" smooth="yes"/>
    </contour>
  </outline>
</glyph>
<glyph name="Nje-cy" format="1">
  <advance width="1033"/>
  <unicode hex="040A"/>
  <outline>
    <contour>
      <point x="80" y="700" type="line"/>
      <point x="80" y="0" type="line"/>
      <point x="240" y="0" type="line"/>
      <point x="240" y="700" type="line"/>
    </contour>
    <contour>
      <point x="160" y="430" type="line"/>
      <point x="160" y="270" type="line"/>
      <point x="558" y="270" type="line"/>
      <point x="558" y="430" type="line"/>
    </contour>
    <contour>
      <point x="717" y="0" type="line"/>
      <point x="858" y="0"/>
      <point x="973" y="114"/>
      <point x="973" y="255" type="curve" smooth="yes"/>
      <point x="973" y="396"/>
      <point x="859" y="510"/>
      <point x="718" y="510" type="curve"/>
      <point x="559" y="510" type="line"/>
      <point x="559" y="350" type="line"/>
      <point x="717" y="350" type="line"/>
      <point x="769" y="350"/>
      <point x="812" y="307"/>
      <point x="812" y="255" type="curve" smooth="yes"/>
      <point x="812" y="203"/>
      <point x="769" y="160"/>
      <point x="717" y="160" type="curve"/>
      <point x="635" y="160" type="line"/>
      <point x="635" y="700" type="line"/>
      <point x="475" y="700" type="line"/>
      <point x="475" y="160" type="line" smooth="yes"/>
      <point x="475" y="56"/>
      <point x="531" y="0"/>
      <point x="635" y="0" type="curve" smooth="yes"/>
    </contour>
  </outline>
</glyph>
<glyph name="Tshe-cy" format="1">
  <advance width="923"/>
  <unicode hex="040B"/>
  <outline>
    <contour>
      <point x="660" y="550" type="line"/>
      <point x="660" y="700" type="line"/>
      <point x="40" y="700" type="line"/>
      <point x="40" y="550" type="line"/>
    </contour>
    <component base="Shha-cy" xOffset="189"/>
  </outline>
</glyph>
<glyph name="Dzhe-cy" format="1">
  <advance width="744"/>
  <unicode hex="040F"/>
  <outline>
    <contour>
      <point x="501" y="0" type="line" smooth="yes"/>
      <point x="599" y="0"/>
      <point x="664" y="65"/>
      <point x="664" y="163" type="curve" smooth="yes"/>
      <point x="664" y="700" type="line"/>
      <point x="504" y="700" type="line"/>
      <point x="504" y="122" type="line"/>
      <point x="504" y="145"/>
      <point x="519" y="160"/>
      <point x="542" y="160" type="curve"/>
      <point x="202" y="160" type="line"/>
      <point x="225" y="160"/>
      <point x="240" y="145"/>
      <point x="240" y="122" type="curve"/>
      <point x="240" y="700" type="line"/>
      <point x="80" y="700" type="line"/>
      <point x="80" y="163" type="line" smooth="yes"/>
      <point x="80" y="65"/>
      <point x="145" y="0"/>
      <point x="243" y="0" type="curve" smooth="yes"/>
    </contour>
    <contour>
      <point x="432" y="-100" type="line"/>
      <point x="432" y="87" type="line"/>
      <point x="312" y="87" type="line"/>
      <point x="312" y="-100" type="line"/>
    </contour>
  </outline>
</glyph>
<glyph name="Be-cy" format="1">
  <advance width="778"/>
  <unicode hex="0411"/>
  <outline>
    <contour>
      <point x="508" y="0" type="line" smooth="yes"/>
      <point x="624" y="0"/>
      <point x="718" y="93"/>
      <point x="718" y="209" type="curve" smooth="yes"/>
      <point x="718" y="325"/>
      <point x="625" y="418"/>
      <point x="509" y="418" type="curve" smooth="yes"/>
      <point x="184" y="418" type="line"/>
      <point x="184" y="258" type="line"/>
      <point x="509" y="258" type="line" smooth="yes"/>
      <point x="537" y="258"/>
      <point x="558" y="237"/>
      <point x="558" y="209" type="curve" smooth="yes"/>
      <point x="558" y="182"/>
      <point x="536" y="160"/>
      <point x="508" y="160" type="curve" smooth="yes"/>
      <point x="202" y="160" type="line"/>
      <point x="225" y="160"/>
      <point x="240" y="145"/>
      <point x="240" y="122" type="curve"/>
      <point x="240" y="578" type="line"/>
      <point x="240" y="555"/>
      <point x="225" y="540"/>
      <point x="202" y="540" type="curve"/>
      <point x="593" y="540" type="line"/>
      <point x="593" y="700" type="line"/>
      <point x="243" y="700" type="line" smooth="yes"/>
      <point x="145" y="700"/>
      <point x="80" y="635"/>
      <point x="80" y="537" type="curve" smooth="yes"/>
      <point x="80" y="160" type="line" smooth="yes"/>
      <point x="80" y="56"/>
      <point x="136" y="0"/>
      <point x="240" y="0" type="curve" smooth="yes"/>
    </contour>
  </outline>
</glyph>
<glyph name="Ge-cy" format="1">
  <advance width="693"/>
  <unicode hex="0413"/>
  <outline>
    <contour>
      <point x="243" y="700" type="line" smooth="yes"/>
      <point x="145" y="700"/>
      <point x="80" y="635"/>
      <point x="80" y="537" type="curve" smooth="yes"/>
      <point x="80" y="0" type="line"/>
      <point x="240" y="0" type="line"/>
      <point x="240" y="578" type="line"/>
      <point x="240" y="552"/>
      <point x="228" y="540"/>
      <point x="202" y="540" type="curve"/>
      <point x="653" y="540" type="line"/>
      <point x="653" y="700" type="line"/>
    </contour>
    <contour>
      <point x="367" y="1079" type="move" name="above"/>
    </contour>
    <contour>
      <point x="367" y="-167" type="move" name="below"/>
    </contour>
    <contour>
      <point x="367" y="869" type="move" name="accent"/>
    </contour>
  </outline>
</glyph>
<glyph name="De-cy" format="2">
	<advance width="942"/>
	<unicode hex="0414"/>
	<outline>
		<contour>
			<point x="202" y="0" type="line"/>
			<point x="303" y="101"/>
			<point x="347" y="206"/>
			<point x="347" y="349" type="curve" smooth="yes"/>
			<point x="347" y="537" type="line" smooth="yes"/>
			<point x="347" y="539"/>
			<point x="348" y="540"/>
			<point x="350" y="540" type="curve" smooth="yes"/>
			<point x="599" y="540" type="line" smooth="yes"/>
			<point x="601" y="540"/>
			<point x="602" y="539"/>
			<point x="602" y="537" type="curve" smooth="yes"/>
			<point x="602" y="0" type="line"/>
			<point x="762" y="0" type="line"/>
			<point x="762" y="537" type="line" smooth="yes"/>
			<point x="762" y="635"/>
			<point x="697" y="700"/>
			<point x="599" y="700" type="curve" smooth="yes"/>
			<point x="350" y="700" type="line" smooth="yes"/>
			<point x="252" y="700"/>
			<point x="187" y="636"/>
			<point x="187" y="537" type="curve" smooth="yes"/>
			<point x="187" y="349" type="line" smooth="yes"/>
			<point x="187" y="247"/>
			<point x="161" y="185"/>
			<point x="89" y="113" type="curve"/>
		</contour>
		<contour>
			<point x="60" y="-100" type="line"/>
			<point x="180" y="-100" type="line"/>
			<point x="180" y="162" type="line"/>
			<point x="111" y="162"/>
			<point x="60" y="111"/>
			<point x="60" y="40" type="curve" smooth="yes"/>
		</contour>
		<contour>
			<point x="180" y="0" type="line"/>
			<point x="682" y="0" type="line"/>
			<point x="682" y="160" type="line"/>
			<point x="180" y="160" type="line"/>
		</contour>
		<contour>
			<point x="762" y="-100" type="line"/>
			<point x="882" y="-100" type="line"/>
			<point x="882" y="40" type="line" smooth="yes"/>
			<point x="882" y="111"/>
			<point x="831" y="162"/>
			<point x="762" y="162" type="curve"/>
		</contour>
	</outline>
</glyph>
<glyph name="Zhe-cy" format="2">
	<advance width="970"/>
	<unicode hex="0416"/>
	<anchor x="496" y="869" name="accent"/>
	<outline>
		<contour>
			<point x="740" y="0" type="line"/>
			<point x="910" y="0" type="line"/>
			<point x="788" y="333" type="line"/>
			<point x="785" y="340"/>
			<point x="784" y="345"/>
			<point x="784" y="350" type="curve" smooth="yes"/>
			<point x="784" y="355"/>
			<point x="785" y="359"/>
			<point x="788" y="367" type="curve" smooth="yes"/>
			<point x="910" y="700" type="line"/>
			<point x="740" y="701" type="line"/>
			<point x="638" y="423" type="line" smooth="yes"/>
			<point x="630" y="400"/>
			<point x="625" y="375"/>
			<point x="625" y="350" type="curve" smooth="yes"/>
			<point x="625" y="325"/>
			<point x="629" y="300"/>
			<point x="638" y="277" type="curve" smooth="yes"/>
		</contour>
		<contour>
			<point x="60" y="0" type="line"/>
			<point x="230" y="-1" type="line"/>
			<point x="332" y="277" type="line" smooth="yes"/>
			<point x="340" y="300"/>
			<point x="345" y="325"/>
			<point x="345" y="350" type="curve" smooth="yes"/>
			<point x="345" y="375"/>
			<point x="341" y="400"/>
			<point x="332" y="423" type="curve" smooth="yes"/>
			<point x="230" y="700" type="line"/>
			<point x="60" y="700" type="line"/>
			<point x="182" y="367" type="line"/>
			<point x="185" y="360"/>
			<point x="186" y="355"/>
			<point x="186" y="350" type="curve" smooth="yes"/>
			<point x="186" y="345"/>
			<point x="185" y="341"/>
			<point x="182" y="333" type="curve" smooth="yes"/>
		</contour>
		<contour>
			<point x="405" y="0" type="line"/>
			<point x="565" y="0" type="line"/>
			<point x="565" y="700" type="line"/>
			<point x="405" y="700" type="line"/>
		</contour>
		<contour>
			<point x="265" y="269" type="line"/>
			<point x="705" y="269" type="line"/>
			<point x="705" y="429" type="line"/>
			<point x="265" y="429" type="line"/>
		</contour>
	</outline>
</glyph>
<glyph name="Ii-cy" format="1">
  <advance width="891"/>
  <unicode hex="0418"/>
  <outline>
    <contour>
      <point x="318" y="-23"/>
      <point x="400" y="31"/>
      <point x="438" y="123" type="curve" smooth="yes"/>
      <point x="604" y="526" type="line" smooth="yes"/>
      <point x="617" y="556"/>
      <point x="647" y="569"/>
      <point x="676" y="553" type="curve"/>
      <point x="652" y="598" type="line"/>
      <point x="643" y="0" type="line"/>
      <point x="803" y="0" type="line"/>
      <point x="811" y="588" type="line" smooth="yes"/>
      <point x="812" y="667"/>
      <point x="756" y="720"/>
      <point x="671" y="720" type="curve" smooth="yes"/>
      <point x="573" y="720"/>
      <point x="490" y="666"/>
      <point x="452" y="574" type="curve" smooth="yes"/>
      <point x="286" y="171" type="line" smooth="yes"/>
      <point x="273" y="141"/>
      <point x="244" y="127"/>
      <point x="214" y="144" type="curve"/>
      <point x="240" y="99" type="line"/>
      <point x="240" y="700" type="line"/>
      <point x="80" y="700" type="line"/>
      <point x="80" y="109" type="line" smooth="yes"/>
      <point x="80" y="30"/>
      <point x="136" y="-23"/>
      <point x="219" y="-23" type="curve" smooth="yes"/>
    </contour>
    <contour>
      <point x="443" y="869" type="move" name="accent"/>
    </contour>
  </outline>
</glyph>
<glyph name="El-cy" format="1">
  <advance width="764"/>
  <unicode hex="041B"/>
  <outline>
    <contour>
      <point x="684" y="0" type="line"/>
      <point x="684" y="537" type="line" smooth="yes"/>
      <point x="684" y="635"/>
      <point x="619" y="700"/>
      <point x="521" y="700" type="curve" smooth="yes"/>
      <point x="262" y="700" type="line" smooth="yes"/>
      <point x="164" y="700"/>
      <point x="99" y="635"/>
      <point x="99" y="537" type="curve" smooth="yes"/>
      <point x="99" y="200" type="line"/>
      <point x="259" y="200" type="line"/>
      <point x="259" y="578" type="line"/>
      <point x="259" y="552"/>
      <point x="247" y="540"/>
      <point x="221" y="540" type="curve"/>
      <point x="562" y="540" type="line"/>
      <point x="536" y="540"/>
      <point x="524" y="552"/>
      <point x="524" y="578" type="curve"/>
      <point x="524" y="0" type="line"/>
    </contour>
    <contour>
      <point x="59" y="0" type="line"/>
      <point x="189" y="0"/>
      <point x="259" y="70"/>
      <point x="259" y="200" type="curve"/>
      <point x="99" y="200" type="line"/>
      <point x="99" y="178"/>
      <point x="81" y="160"/>
      <point x="59" y="160" type="curve"/>
      <point x="20" y="160" type="line"/>
      <point x="20" y="0" type="line"/>
    </contour>
  </outline>
</glyph>
<glyph name="Pe-cy" format="1">
  <advance width="795"/>
  <unicode hex="041F"/>
  <outline>
    <contour>
      <point x="243" y="700" type="line" smooth="yes"/>
      <point x="145" y="700"/>
      <point x="80" y="635"/>
      <point x="80" y="537" type="curve" smooth="yes"/>
      <point x="80" y="0" type="line"/>
      <point x="240" y="0" type="line"/>
      <point x="240" y="578" type="line"/>
      <point x="240" y="552"/>
      <point x="228" y="540"/>
      <point x="202" y="540" type="curve"/>
      <point x="593" y="540" type="line"/>
      <point x="567" y="540"/>
      <point x="555" y="552"/>
      <point x="555" y="578" type="curve"/>
      <point x="555" y="0" type="line"/>
      <point x="715" y="0" type="line"/>
      <point x="715" y="537" type="line" smooth="yes"/>
      <point x="715" y="635"/>
      <point x="650" y="700"/>
      <point x="552" y="700" type="curve" smooth="yes"/>
    </contour>
  </outline>
</glyph>
<glyph name="Ef-cy" format="1">
  <advance width="858"/>
  <unicode hex="0424"/>
  <outline>
    <contour>
      <point x="555" y="107" type="line" smooth="yes"/>
      <point x="689" y="107"/>
      <point x="798" y="216"/>
      <point x="798" y="350" type="curve" smooth="yes"/>
      <point x="798" y="484"/>
      <point x="688" y="593"/>
      <point x="554" y="593" type="curve" smooth="yes"/>
      <point x="304" y="593" type="line" smooth="yes"/>
      <point x="169" y="593"/>
      <point x="60" y="484"/>
      <point x="60" y="350" type="curve" smooth="yes"/>
      <point x="60" y="216"/>
      <point x="168" y="107"/>
      <point x="303" y="107" type="curve" smooth="yes"/>
    </contour>
    <contour>
      <point x="257" y="267"/>
      <point x="220" y="304"/>
      <point x="220" y="350" type="curve" smooth="yes"/>
      <point x="220" y="396"/>
      <point x="257" y="433"/>
      <point x="304" y="433" type="curve" smooth="yes"/>
      <point x="554" y="433" type="line" smooth="yes"/>
      <point x="600" y="433"/>
      <point x="638" y="395"/>
      <point x="638" y="350" type="curve" smooth="yes"/>
      <point x="638" y="304"/>
      <point x="601" y="267"/>
      <point x="555" y="267" type="curve" smooth="yes"/>
      <point x="303" y="267" type="line" smooth="yes"/>
    </contour>
    <contour>
      <point x="509" y="0" type="line"/>
      <point x="509" y="700" type="line"/>
      <point x="349" y="700" type="line"/>
      <point x="349" y="0" type="line"/>
    </contour>
  </outline>
</glyph>
<glyph name="Tse-cy" format="2">
	<advance width="875"/>
	<unicode hex="0426"/>
	<outline>
		<contour>
			<point x="243" y="0" type="curve" smooth="yes"/>
			<point x="695" y="0" type="line"/>
			<point x="695" y="700" type="line"/>
			<point x="535" y="700" type="line"/>
			<point x="535" y="122" type="line"/>
			<point x="573" y="160" type="line"/>
			<point x="243" y="160" type="line" smooth="yes"/>
			<point x="241" y="160"/>
			<point x="240" y="161"/>
			<point x="240" y="163" type="curve" smooth="yes"/>
			<point x="240" y="700" type="line"/>
			<point x="80" y="700" type="line"/>
			<point x="80" y="163" type="line" smooth="yes"/>
			<point x="80" y="65"/>
			<point x="145" y="0"/>
		</contour>
		<contour>
			<point x="695" y="-100" type="line"/>
			<point x="815" y="-100" type="line"/>
			<point x="815" y="40" type="line" smooth="yes"/>
			<point x="815" y="111"/>
			<point x="764" y="162"/>
			<point x="695" y="162" type="curve"/>
		</contour>
	</outline>
</glyph>
<glyph name="Che-cy" format="1">
  <advance width="734"/>
  <unicode hex="0427"/>
  <outline>
    <contour>
      <point x="494" y="700" type="line"/>
      <point x="494" y="0" type="line"/>
      <point x="654" y="0" type="line"/>
      <point x="654" y="700" type="line"/>
    </contour>
    <contour>
      <point x="80" y="700" type="line"/>
      <point x="80" y="529" type="line" smooth="yes"/>
      <point x="80" y="360"/>
      <point x="220" y="219"/>
      <point x="390" y="219" type="curve" smooth="yes"/>
      <point x="494" y="219"/>
      <point x="585" y="271"/>
      <point x="642" y="350" type="curve"/>
      <point x="512" y="444" type="line"/>
      <point x="482" y="402"/>
      <point x="438" y="379"/>
      <point x="390" y="379" type="curve" smooth="yes"/>
      <point x="309" y="379"/>
      <point x="240" y="448"/>
      <point x="240" y="529" type="curve" smooth="yes"/>
      <point x="240" y="700" type="line"/>
    </contour>
    <contour>
      <point x="371" y="-167" type="move" name="below"/>
    </contour>
    <contour>
      <point x="371" y="869" type="move" name="accent"/>
    </contour>
    <contour>
      <point x="371" y="1079" type="move" name="above"/>
    </contour>
    <contour>
      <point x="376" y="8" type="move" name="bottom"/>
    </contour>
  </outline>
</glyph>
<glyph name="Sha-cy" format="2">
	<advance width="830"/>
	<unicode hex="0428"/>
	<outline>
		<contour>
			<point x="243" y="0" type="curve" smooth="yes"/>
			<point x="587" y="0" type="line" smooth="yes"/>
			<point x="685" y="0"/>
			<point x="750" y="65"/>
			<point x="750" y="163" type="curve" smooth="yes"/>
			<point x="750" y="700" type="line"/>
			<point x="590" y="700" type="line"/>
			<point x="590" y="163" type="line" smooth="yes"/>
			<point x="590" y="161"/>
			<point x="589" y="160"/>
			<point x="587" y="160" type="curve" smooth="yes"/>
			<point x="243" y="160" type="line" smooth="yes"/>
			<point x="241" y="160"/>
			<point x="240" y="161"/>
			<point x="240" y="163" type="curve" smooth="yes"/>
			<point x="240" y="700" type="line"/>
			<point x="80" y="700" type="line"/>
			<point x="80" y="163" type="line" smooth="yes"/>
			<point x="80" y="65"/>
			<point x="145" y="0"/>
		</contour>
		<contour>
			<point x="335" y="144" type="line"/>
			<point x="495" y="144" type="line"/>
			<point x="495" y="700" type="line"/>
			<point x="335" y="700" type="line"/>
		</contour>
	</outline>
</glyph>
<glyph name="Shcha-cy" format="1">
  <advance width="910"/>
  <unicode hex="0429"/>
  <outline>
    <contour>
      <point x="750" y="0" type="line"/>
      <point x="750" y="700" type="line"/>
      <point x="590" y="700" type="line"/>
      <point x="590" y="122" type="line"/>
      <point x="628" y="160" type="line"/>
      <point x="202" y="160" type="line"/>
      <point x="228" y="160"/>
      <point x="240" y="148"/>
      <point x="240" y="122" type="curve"/>
      <point x="240" y="700" type="line"/>
      <point x="80" y="700" type="line"/>
      <point x="80" y="163" type="line" smooth="yes"/>
      <point x="80" y="65"/>
      <point x="145" y="0"/>
      <point x="243" y="0" type="curve" smooth="yes"/>
    </contour>
    <contour>
      <point x="495" y="144" type="line"/>
      <point x="495" y="700" type="line"/>
      <point x="335" y="700" type="line"/>
      <point x="335" y="144" type="line"/>
    </contour>
    <contour>
      <point x="870" y="-102" type="line"/>
      <point x="870" y="38" type="line" smooth="yes"/>
      <point x="870" y="109"/>
      <point x="819" y="160"/>
      <point x="750" y="160" type="curve"/>
      <point x="750" y="-102" type="line"/>
    </contour>
  </outline>
</glyph>
<glyph name="Hardsign-cy" format="1">
  <advance width="778"/>
  <unicode hex="042A"/>
  <outline>
    <contour>
      <point x="462" y="0" type="line"/>
      <point x="603" y="0"/>
      <point x="718" y="114"/>
      <point x="718" y="255" type="curve" smooth="yes"/>
      <point x="718" y="396"/>
      <point x="604" y="510"/>
      <point x="463" y="510" type="curve"/>
      <point x="264" y="510" type="line"/>
      <point x="264" y="350" type="line"/>
      <point x="462" y="350" type="line"/>
      <point x="514" y="350"/>
      <point x="557" y="307"/>
      <point x="557" y="255" type="curve" smooth="yes"/>
      <point x="557" y="203"/>
      <point x="514" y="160"/>
      <point x="462" y="160" type="curve"/>
      <point x="340" y="160" type="line"/>
      <point x="340" y="537" type="line" smooth="yes"/>
      <point x="340" y="635"/>
      <point x="275" y="700"/>
      <point x="177" y="700" type="curve" smooth="yes"/>
      <point x="20" y="700" type="line"/>
      <point x="20" y="540" type="line"/>
      <point x="218" y="540" type="line"/>
      <point x="180" y="578" type="line"/>
      <point x="180" y="160" type="line" smooth="yes"/>
      <point x="180" y="56"/>
      <point x="236" y="0"/>
      <point x="340" y="0" type="curve" smooth="yes"/>
    </contour>
  </outline>
</glyph>
<glyph name="Yeru-cy" format="1">
  <advance width="958"/>
  <unicode hex="042B"/>
  <outline>
    <contour>
      <point x="362" y="0" type="line"/>
      <point x="503" y="0"/>
      <point x="618" y="114"/>
      <point x="618" y="255" type="curve" smooth="yes"/>
      <point x="618" y="396"/>
      <point x="504" y="510"/>
      <point x="363" y="510" type="curve"/>
      <point x="164" y="510" type="line"/>
      <point x="164" y="350" type="line"/>
      <point x="362" y="350" type="line"/>
      <point x="414" y="350"/>
      <point x="457" y="307"/>
      <point x="457" y="255" type="curve" smooth="yes"/>
      <point x="457" y="203"/>
      <point x="414" y="160"/>
      <point x="362" y="160" type="curve"/>
      <point x="240" y="160" type="line"/>
      <point x="240" y="700" type="line"/>
      <point x="80" y="700" type="line"/>
      <point x="80" y="160" type="line" smooth="yes"/>
      <point x="80" y="56"/>
      <point x="136" y="0"/>
      <point x="240" y="0" type="curve" smooth="yes"/>
    </contour>
    <contour>
      <point x="878" y="0" type="line"/>
      <point x="878" y="700" type="line"/>
      <point x="718" y="700" type="line"/>
      <point x="718" y="0" type="line"/>
    </contour>
    <contour>
      <point x="478" y="-167" type="move" name="below"/>
    </contour>
    <contour>
      <point x="478" y="869" type="move" name="accent"/>
    </contour>
    <contour>
      <point x="478" y="1079" type="move" name="above"/>
    </contour>
    <contour>
      <point x="483" y="8" type="move" name="bottom"/>
    </contour>
  </outline>
</glyph>
<glyph name="Softsign-cy" format="1">
  <advance width="778"/>
  <unicode hex="042C"/>
  <outline>
    <contour>
      <point x="462" y="0" type="line"/>
      <point x="603" y="0"/>
      <point x="718" y="114"/>
      <point x="718" y="255" type="curve" smooth="yes"/>
      <point x="718" y="396"/>
      <point x="604" y="510"/>
      <point x="463" y="510" type="curve"/>
      <point x="164" y="510" type="line"/>
      <point x="164" y="350" type="line"/>
      <point x="462" y="350" type="line"/>
      <point x="514" y="350"/>
      <point x="557" y="307"/>
      <point x="557" y="255" type="curve" smooth="yes"/>
      <point x="557" y="203"/>
      <point x="514" y="160"/>
      <point x="462" y="160" type="curve"/>
      <point x="240" y="160" type="line"/>
      <point x="240" y="700" type="line"/>
      <point x="80" y="700" type="line"/>
      <point x="80" y="160" type="line" smooth="yes"/>
      <point x="80" y="56"/>
      <point x="136" y="0"/>
      <point x="240" y="0" type="curve" smooth="yes"/>
    </contour>
  </outline>
</glyph>
<glyph name="Iu-cy" format="2">
	<advance width="1034"/>
	<unicode hex="042E"/>
	<outline>
		<contour>
			<point x="649" y="-25" type="curve" smooth="yes"/>
			<point x="829" y="-25"/>
			<point x="974" y="123"/>
			<point x="974" y="350" type="curve" smooth="yes"/>
			<point x="974" y="577"/>
			<point x="829" y="725"/>
			<point x="649" y="725" type="curve" smooth="yes"/>
			<point x="470" y="725"/>
			<point x="325" y="577"/>
			<point x="325" y="350" type="curve" smooth="yes"/>
			<point x="325" y="123"/>
			<point x="470" y="-25"/>
		</contour>
		<contour>
			<point x="80" y="0" type="line"/>
			<point x="240" y="0" type="line"/>
			<point x="240" y="700" type="line"/>
			<point x="80" y="700" type="line"/>
		</contour>
		<contour>
			<point x="160" y="270" type="line"/>
			<point x="403" y="270" type="line"/>
			<point x="403" y="430" type="line"/>
			<point x="160" y="430" type="line"/>
		</contour>
		<contour>
			<point x="649" y="135" type="curve" smooth="yes"/>
			<point x="554" y="135"/>
			<point x="485" y="219"/>
			<point x="485" y="350" type="curve" smooth="yes"/>
			<point x="485" y="481"/>
			<point x="554" y="565"/>
			<point x="649" y="565" type="curve" smooth="yes"/>
			<point x="745" y="565"/>
			<point x="814" y="481"/>
			<point x="814" y="350" type="curve" smooth="yes"/>
			<point x="814" y="219"/>
			<point x="745" y="135"/>
		</contour>
	</outline>
</glyph>
<glyph name="be-cy" format="2">
	<advance width="712"/>
	<unicode hex="0431"/>
	<outline>
		<contour>
			<point x="358" y="-10" type="curve" smooth="yes"/>
			<point x="520" y="-10"/>
			<point x="652" y="122"/>
			<point x="652" y="285" type="curve" smooth="yes"/>
			<point x="652" y="448"/>
			<point x="520" y="580"/>
			<point x="358" y="580" type="curve" smooth="yes"/>
			<point x="231" y="580"/>
			<point x="123" y="500"/>
			<point x="81" y="387" type="curve"/>
			<point x="232" y="334" type="line"/>
			<point x="252" y="385"/>
			<point x="300" y="420"/>
			<point x="358" y="420" type="curve" smooth="yes"/>
			<point x="432" y="420"/>
			<point x="492" y="360"/>
			<point x="492" y="285" type="curve" smooth="yes"/>
			<point x="492" y="211"/>
			<point x="432" y="150"/>
			<point x="358" y="150" type="curve" smooth="yes"/>
			<point x="309" y="150"/>
			<point x="267" y="176"/>
			<point x="243" y="214" type="curve" smooth="yes"/>
			<point x="241" y="218"/>
			<point x="240" y="222"/>
			<point x="240" y="226" type="curve" smooth="yes"/>
			<point x="240" y="610" type="line" smooth="yes"/>
			<point x="240" y="627"/>
			<point x="253" y="640"/>
			<point x="270" y="640" type="curve" smooth="yes"/>
			<point x="524" y="640" type="line"/>
			<point x="524" y="800" type="line"/>
			<point x="270" y="800" type="line" smooth="yes"/>
			<point x="165" y="800"/>
			<point x="80" y="715"/>
			<point x="80" y="610" type="curve" smooth="yes"/>
			<point x="80" y="225" type="line" smooth="yes"/>
			<point x="80" y="197"/>
			<point x="82" y="176"/>
			<point x="96" y="150" type="curve" smooth="yes"/>
			<point x="145" y="55"/>
			<point x="244" y="-10"/>
		</contour>
	</outline>
</glyph>
<glyph name="ve-cy" format="1">
  <advance width="737"/>
  <unicode hex="0432"/>
  <outline>
    <contour>
      <point x="467" y="0" type="line" smooth="yes"/>
      <point x="572" y="0"/>
      <point x="657" y="85"/>
      <point x="657" y="190" type="curve" smooth="yes"/>
      <point x="657" y="240"/>
      <point x="638" y="285"/>
      <point x="606" y="319" type="curve"/>
      <point x="606" y="281" type="line"/>
      <point x="638" y="315"/>
      <point x="657" y="360"/>
      <point x="657" y="410" type="curve" smooth="yes"/>
      <point x="657" y="515"/>
      <point x="572" y="600"/>
      <point x="467" y="600" type="curve" smooth="yes"/>
      <point x="162" y="600" type="line" smooth="yes"/>
      <point x="115" y="600"/>
      <point x="80" y="565"/>
      <point x="80" y="518" type="curve" smooth="yes"/>
      <point x="80" y="82" type="line" smooth="yes"/>
      <point x="80" y="35"/>
      <point x="115" y="0"/>
      <point x="162" y="0" type="curve" smooth="yes"/>
    </contour>
    <contour>
      <point x="240" y="220" type="line"/>
      <point x="467" y="220" type="line" smooth="yes"/>
      <point x="484" y="220"/>
      <point x="497" y="207"/>
      <point x="497" y="190" type="curve" smooth="yes"/>
      <point x="497" y="173"/>
      <point x="484" y="160"/>
      <point x="467" y="160" type="curve" smooth="yes"/>
      <point x="240" y="160" type="line"/>
    </contour>
    <contour>
      <point x="240" y="440" type="line"/>
      <point x="467" y="440" type="line" smooth="yes"/>
      <point x="484" y="440"/>
      <point x="497" y="427"/>
      <point x="497" y="410" type="curve" smooth="yes"/>
      <point x="497" y="393"/>
      <point x="484" y="380"/>
      <point x="467" y="380" type="curve" smooth="yes"/>
      <point x="240" y="380" type="line"/>
    </contour>
  </outline>
</glyph>
<glyph name="ge-cy" format="1">
  <advance width="623"/>
  <unicode hex="0433"/>
  <outline>
    <contour>
      <point x="243" y="600" type="line" smooth="yes"/>
      <point x="145" y="600"/>
      <point x="80" y="535"/>
      <point x="80" y="437" type="curve" smooth="yes"/>
      <point x="80" y="0" type="line"/>
      <point x="240" y="0" type="line"/>
      <point x="240" y="478" type="line"/>
      <point x="240" y="452"/>
      <point x="228" y="440"/>
      <point x="202" y="440" type="curve"/>
      <point x="543" y="440" type="line"/>
      <point x="543" y="600" type="line"/>
    </contour>
    <contour>
      <point x="312" y="759" type="move" name="accent"/>
    </contour>
  </outline>
</glyph>
<glyph name="de-cy" format="2">
	<advance width="902"/>
	<unicode hex="0434"/>
	<outline>
		<contour>
			<point x="202" y="0" type="line"/>
			<point x="303" y="101"/>
			<point x="347" y="206"/>
			<point x="347" y="349" type="curve" smooth="yes"/>
			<point x="347" y="437" type="line" smooth="yes"/>
			<point x="347" y="439"/>
			<point x="348" y="440"/>
			<point x="350" y="440" type="curve" smooth="yes"/>
			<point x="559" y="440" type="line" smooth="yes"/>
			<point x="561" y="440"/>
			<point x="562" y="439"/>
			<point x="562" y="437" type="curve" smooth="yes"/>
			<point x="562" y="0" type="line"/>
			<point x="722" y="0" type="line"/>
			<point x="722" y="437" type="line" smooth="yes"/>
			<point x="722" y="535"/>
			<point x="657" y="600"/>
			<point x="559" y="600" type="curve" smooth="yes"/>
			<point x="350" y="600" type="line" smooth="yes"/>
			<point x="252" y="600"/>
			<point x="187" y="536"/>
			<point x="187" y="437" type="curve" smooth="yes"/>
			<point x="187" y="349" type="line" smooth="yes"/>
			<point x="187" y="247"/>
			<point x="161" y="185"/>
			<point x="89" y="113" type="curve"/>
		</contour>
		<contour>
			<point x="60" y="-102" type="line"/>
			<point x="180" y="-102" type="line"/>
			<point x="180" y="141" type="line"/>
			<point x="103" y="141"/>
			<point x="60" y="105"/>
			<point x="60" y="40" type="curve" smooth="yes"/>
		</contour>
		<contour>
			<point x="180" y="0" type="line"/>
			<point x="642" y="0" type="line"/>
			<point x="642" y="160" type="line"/>
			<point x="180" y="160" type="line"/>
		</contour>
		<contour>
			<point x="722" y="-100" type="line"/>
			<point x="842" y="-100" type="line"/>
			<point x="842" y="40" type="line" smooth="yes"/>
			<point x="842" y="111"/>
			<point x="791" y="162"/>
			<point x="722" y="162" type="curve"/>
		</contour>
	</outline>
</glyph>
<glyph name="zhe-cy" format="2">
	<advance width="996"/>
	<unicode hex="0436"/>
	<anchor x="499" y="759" name="accent"/>
	<outline>
		<contour>
			<point x="772" y="300" type="curve" smooth="yes"/>
			<point x="772" y="308"/>
			<point x="774" y="315"/>
			<point x="778" y="322" type="curve"/>
			<point x="956" y="600" type="line"/>
			<point x="766" y="600" type="line"/>
			<point x="643" y="408" type="line" smooth="yes"/>
			<point x="623" y="376"/>
			<point x="612" y="338"/>
			<point x="612" y="300" type="curve" smooth="yes"/>
			<point x="612" y="262"/>
			<point x="622" y="224"/>
			<point x="643" y="192" type="curve" smooth="yes"/>
			<point x="766" y="0" type="line"/>
			<point x="956" y="0" type="line"/>
			<point x="778" y="278" type="line"/>
			<point x="774" y="285"/>
			<point x="772" y="292"/>
		</contour>
		<contour>
			<point x="418" y="0" type="line"/>
			<point x="578" y="0" type="line"/>
			<point x="578" y="600" type="line"/>
			<point x="418" y="600" type="line"/>
		</contour>
		<contour>
			<point x="224" y="300" type="curve" smooth="yes"/>
			<point x="224" y="292"/>
			<point x="222" y="285"/>
			<point x="218" y="278" type="curve"/>
			<point x="40" y="0" type="line"/>
			<point x="230" y="0" type="line"/>
			<point x="353" y="192" type="line" smooth="yes"/>
			<point x="374" y="224"/>
			<point x="384" y="262"/>
			<point x="384" y="300" type="curve" smooth="yes"/>
			<point x="384" y="338"/>
			<point x="374" y="376"/>
			<point x="353" y="408" type="curve" smooth="yes"/>
			<point x="230" y="600" type="line"/>
			<point x="40" y="600" type="line"/>
			<point x="218" y="322" type="line"/>
			<point x="222" y="315"/>
			<point x="224" y="308"/>
		</contour>
		<contour>
			<point x="330" y="220" type="line"/>
			<point x="670" y="220" type="line"/>
			<point x="670" y="380" type="line"/>
			<point x="330" y="380" type="line"/>
		</contour>
	</outline>
</glyph>
<glyph name="ze-cy" format="1">
  <advance width="695"/>
  <unicode hex="0437"/>
  <outline>
    <contour>
      <point x="531" y="220"/>
      <point x="615" y="305"/>
      <point x="615" y="410" type="curve" smooth="yes"/>
      <point x="615" y="515"/>
      <point x="530" y="600"/>
      <point x="425" y="600" type="curve" smooth="yes"/>
      <point x="80" y="600" type="line"/>
      <point x="80" y="440" type="line"/>
      <point x="425" y="440" type="line" smooth="yes"/>
      <point x="442" y="440"/>
      <point x="455" y="427"/>
      <point x="455" y="410" type="curve" smooth="yes"/>
      <point x="455" y="393"/>
      <point x="442" y="380"/>
      <point x="425" y="380" type="curve"/>
      <point x="425" y="220" type="line"/>
    </contour>
    <contour>
      <point x="425" y="0" type="line" smooth="yes"/>
      <point x="530" y="0"/>
      <point x="615" y="85"/>
      <point x="615" y="190" type="curve" smooth="yes"/>
      <point x="615" y="295"/>
      <point x="531" y="380"/>
      <point x="425" y="380" type="curve" smooth="yes"/>
      <point x="80" y="380" type="line"/>
      <point x="80" y="220" type="line"/>
      <point x="425" y="220" type="line" smooth="yes"/>
      <point x="442" y="220"/>
      <point x="455" y="207"/>
      <point x="455" y="190" type="curve" smooth="yes"/>
      <point x="455" y="173"/>
      <point x="442" y="160"/>
      <point x="425" y="160" type="curve" smooth="yes"/>
      <point x="80" y="160" type="line"/>
      <point x="80" y="0" type="line"/>
    </contour>
    <contour>
      <point x="316" y="-167" type="move" name="below"/>
    </contour>
    <contour>
      <point x="316" y="759" type="move" name="accent"/>
    </contour>
    <contour>
      <point x="316" y="969" type="move" name="above"/>
    </contour>
    <contour>
      <point x="316" y="8" type="move" name="bottom"/>
    </contour>
  </outline>
</glyph>
<glyph name="ii-cy" format="2">
	<advance width="737"/>
	<unicode hex="0438"/>
	<anchor x="369" y="759" name="accent"/>
	<outline>
		<contour>
			<point x="222" y="-12" type="curve" smooth="yes"/>
			<point x="267" y="-12"/>
			<point x="317" y="4"/>
			<point x="347" y="67" type="curve" smooth="yes"/>
			<point x="492" y="376" type="line" smooth="yes"/>
			<point x="493" y="378"/>
			<point x="494" y="379"/>
			<point x="495" y="379" type="curve" smooth="yes"/>
			<point x="496" y="379"/>
			<point x="497" y="378"/>
			<point x="497" y="375" type="curve" smooth="yes"/>
			<point x="497" y="0" type="line"/>
			<point x="657" y="0" type="line"/>
			<point x="657" y="472" type="line" smooth="yes"/>
			<point x="657" y="559"/>
			<point x="586" y="612"/>
			<point x="515" y="612" type="curve" smooth="yes"/>
			<point x="470" y="612"/>
			<point x="421" y="598"/>
			<point x="390" y="533" type="curve" smooth="yes"/>
			<point x="245" y="224" type="line" smooth="yes"/>
			<point x="244" y="222"/>
			<point x="243" y="221"/>
			<point x="242" y="221" type="curve" smooth="yes"/>
			<point x="241" y="221"/>
			<point x="240" y="222"/>
			<point x="240" y="225" type="curve" smooth="yes"/>
			<point x="240" y="600" type="line"/>
			<point x="80" y="600" type="line"/>
			<point x="80" y="128" type="line" smooth="yes"/>
			<point x="80" y="41"/>
			<point x="151" y="-12"/>
		</contour>
	</outline>
</glyph>
<glyph name="ka-cy" format="1">
  <advance width="777"/>
  <unicode hex="043A"/>
  <outline>
    <contour>
      <point x="696" y="0" type="line"/>
      <point x="450" y="264" type="line" smooth="yes"/>
      <point x="440" y="275"/>
      <point x="435" y="287"/>
      <point x="435" y="299" type="curve" smooth="yes"/>
      <point x="435" y="311"/>
      <point x="440" y="324"/>
      <point x="451" y="336" type="curve" smooth="yes"/>
      <point x="697" y="600" type="line"/>
      <point x="479" y="600" type="line"/>
      <point x="334" y="444" type="line" smooth="yes"/>
      <point x="294" y="401"/>
      <point x="274" y="350"/>
      <point x="274" y="298" type="curve" smooth="yes"/>
      <point x="274" y="248"/>
      <point x="294" y="197"/>
      <point x="332" y="156" type="curve" smooth="yes"/>
      <point x="478" y="0" type="line"/>
    </contour>
    <contour>
      <point x="240" y="0" type="line"/>
      <point x="240" y="600" type="line"/>
      <point x="80" y="600" type="line"/>
      <point x="80" y="0" type="line"/>
    </contour>
    <contour>
      <point x="350" y="969" type="move" name="above"/>
    </contour>
    <contour>
      <point x="350" y="-167" type="move" name="below"/>
    </contour>
    <contour>
      <point x="350" y="759" type="move" name="accent"/>
    </contour>
  </outline>
</glyph>
<glyph name="en-cy" format="1">
  <advance width="735"/>
  <unicode hex="043D"/>
  <outline>
    <contour>
      <point x="495" y="600" type="line"/>
      <point x="495" y="0" type="line"/>
      <point x="655" y="0" type="line"/>
      <point x="655" y="600" type="line"/>
    </contour>
    <contour>
      <point x="80" y="600" type="line"/>
      <point x="80" y="0" type="line"/>
      <point x="240" y="0" type="line"/>
      <point x="240" y="600" type="line"/>
    </contour>
    <contour>
      <point x="160" y="380" type="line"/>
      <point x="160" y="220" type="line"/>
      <point x="578" y="220" type="line"/>
      <point x="578" y="380" type="line"/>
    </contour>
  </outline>
</glyph>
<glyph name="pe-cy" format="1">
  <advance width="750"/>
  <unicode hex="043F"/>
  <outline>
    <contour>
      <point x="243" y="600" type="line" smooth="yes"/>
      <point x="145" y="600"/>
      <point x="80" y="535"/>
      <point x="80" y="437" type="curve" smooth="yes"/>
      <point x="80" y="0" type="line"/>
      <point x="240" y="0" type="line"/>
      <point x="240" y="478" type="line"/>
      <point x="240" y="452"/>
      <point x="228" y="440"/>
      <point x="202" y="440" type="curve"/>
      <point x="548" y="440" type="line"/>
      <point x="522" y="440"/>
      <point x="510" y="452"/>
      <point x="510" y="478" type="curve"/>
      <point x="510" y="0" type="line"/>
      <point x="670" y="0" type="line"/>
      <point x="670" y="437" type="line" smooth="yes"/>
      <point x="670" y="535"/>
      <point x="605" y="600"/>
      <point x="507" y="600" type="curve" smooth="yes"/>
    </contour>
  </outline>
</glyph>
<glyph name="te-cy" format="2">
	<advance width="700"/>
	<unicode hex="0442"/>
	<outline>
		<contour>
			<point x="270" y="0" type="line"/>
			<point x="430" y="0" type="line"/>
			<point x="430" y="485" type="line"/>
			<point x="270" y="485" type="line"/>
		</contour>
		<contour>
			<point x="80" y="450" type="line"/>
			<point x="620" y="450" type="line"/>
			<point x="620" y="600" type="line"/>
			<point x="80" y="600" type="line"/>
		</contour>
	</outline>
</glyph>
<glyph name="ef-cy" format="1">
  <advance width="793"/>
  <unicode hex="0444"/>
  <outline>
    <contour>
      <point x="532" y="100" type="line" smooth="yes"/>
      <point x="643" y="100"/>
      <point x="733" y="189"/>
      <point x="733" y="300" type="curve" smooth="yes"/>
      <point x="733" y="411"/>
      <point x="643" y="500"/>
      <point x="532" y="500" type="curve" smooth="yes"/>
      <point x="261" y="500" type="line" smooth="yes"/>
      <point x="150" y="500"/>
      <point x="60" y="411"/>
      <point x="60" y="300" type="curve" smooth="yes"/>
      <point x="60" y="189"/>
      <point x="150" y="100"/>
      <point x="261" y="100" type="curve" smooth="yes"/>
    </contour>
    <contour>
      <point x="238" y="260"/>
      <point x="220" y="277"/>
      <point x="220" y="300" type="curve" smooth="yes"/>
      <point x="220" y="323"/>
      <point x="238" y="340"/>
      <point x="261" y="340" type="curve" smooth="yes"/>
      <point x="532" y="340" type="line" smooth="yes"/>
      <point x="555" y="340"/>
      <point x="573" y="323"/>
      <point x="573" y="300" type="curve" smooth="yes"/>
      <point x="573" y="277"/>
      <point x="555" y="260"/>
      <point x="532" y="260" type="curve" smooth="yes"/>
      <point x="261" y="260" type="line" smooth="yes"/>
    </contour>
    <contour>
      <point x="477" y="0" type="line"/>
      <point x="477" y="600" type="line"/>
      <point x="317" y="600" type="line"/>
      <point x="317" y="0" type="line"/>
    </contour>
  </outline>
</glyph>
<glyph name="tse-cy" format="1">
  <advance width="850"/>
  <unicode hex="0446"/>
  <outline>
    <contour>
      <point x="790" y="-102" type="line"/>
      <point x="790" y="38" type="line" smooth="yes"/>
      <point x="790" y="109"/>
      <point x="739" y="160"/>
      <point x="670" y="160" type="curve"/>
      <point x="670" y="-102" type="line"/>
    </contour>
    <contour>
      <point x="670" y="0" type="line"/>
      <point x="670" y="600" type="line"/>
      <point x="510" y="600" type="line"/>
      <point x="510" y="122" type="line"/>
      <point x="548" y="160" type="line"/>
      <point x="202" y="160" type="line"/>
      <point x="228" y="160"/>
      <point x="240" y="148"/>
      <point x="240" y="122" type="curve"/>
      <point x="240" y="600" type="line"/>
      <point x="80" y="600" type="line"/>
      <point x="80" y="163" type="line" smooth="yes"/>
      <point x="80" y="65"/>
      <point x="145" y="0"/>
      <point x="243" y="0" type="curve" smooth="yes"/>
    </contour>
  </outline>
</glyph>
<glyph name="che-cy" format="2">
	<advance width="700"/>
	<unicode hex="0447"/>
	<guideline x="344" y="700" angle="90"/>
	<anchor x="344" y="-167" name="below"/>
	<anchor x="344" y="759" name="accent"/>
	<anchor x="344" y="969" name="above"/>
	<anchor x="494" y="8" name="bottom"/>
	<outline>
		<contour>
			<point x="335" y="190" type="curve"/>
			<point x="564" y="190" type="line"/>
			<point x="564" y="350" type="line"/>
			<point x="336" y="350" type="line"/>
			<point x="284" y="350"/>
			<point x="241" y="394"/>
			<point x="241" y="445" type="curve" smooth="yes"/>
			<point x="241" y="600" type="line"/>
			<point x="80" y="600" type="line"/>
			<point x="80" y="445" type="line" smooth="yes"/>
			<point x="80" y="304"/>
			<point x="194" y="190"/>
		</contour>
		<contour>
			<point x="460" y="0" type="line"/>
			<point x="620" y="0" type="line"/>
			<point x="620" y="600" type="line"/>
			<point x="460" y="600" type="line"/>
		</contour>
	</outline>
</glyph>
<glyph name="shcha-cy" format="1">
  <advance width="929"/>
  <unicode hex="0449"/>
  <outline>
    <contour>
      <point x="495" y="144" type="line"/>
      <point x="495" y="600" type="line"/>
      <point x="335" y="600" type="line"/>
      <point x="335" y="144" type="line"/>
    </contour>
    <contour>
      <point x="869" y="-107" type="line"/>
      <point x="869" y="33" type="line" smooth="yes"/>
      <point x="869" y="104"/>
      <point x="818" y="155"/>
      <point x="749" y="155" type="curve"/>
      <point x="749" y="-107" type="line"/>
    </contour>
    <contour>
      <point x="749" y="-5" type="line"/>
      <point x="749" y="595" type="line"/>
      <point x="589" y="595" type="line"/>
      <point x="589" y="117" type="line"/>
      <point x="627" y="155" type="line"/>
      <point x="202" y="160" type="line"/>
      <point x="228" y="160"/>
      <point x="240" y="148"/>
      <point x="240" y="122" type="curve"/>
      <point x="240" y="600" type="line"/>
      <point x="80" y="600" type="line"/>
      <point x="80" y="163" type="line" smooth="yes"/>
      <point x="80" y="65"/>
      <point x="145" y="1"/>
      <point x="243" y="0" type="curve" smooth="yes"/>
    </contour>
  </outline>
</glyph>
<glyph name="hardsign-cy" format="1">
  <advance width="740"/>
  <unicode hex="044A"/>
  <outline>
    <contour>
      <point x="468" y="0" type="line" smooth="yes"/>
      <point x="585" y="0"/>
      <point x="680" y="94"/>
      <point x="680" y="211" type="curve" smooth="yes"/>
      <point x="680" y="327"/>
      <point x="586" y="421"/>
      <point x="469" y="421" type="curve" smooth="yes"/>
      <point x="312" y="421" type="line"/>
      <point x="312" y="261" type="line"/>
      <point x="469" y="261" type="line" smooth="yes"/>
      <point x="498" y="261"/>
      <point x="520" y="239"/>
      <point x="520" y="211" type="curve" smooth="yes"/>
      <point x="520" y="183"/>
      <point x="497" y="167"/>
      <point x="468" y="160" type="curve"/>
      <point x="302" y="160" type="line"/>
      <point x="340" y="122" type="line"/>
      <point x="340" y="437" type="line" smooth="yes"/>
      <point x="340" y="535"/>
      <point x="275" y="600"/>
      <point x="177" y="600" type="curve" smooth="yes"/>
      <point x="20" y="600" type="line"/>
      <point x="20" y="440" type="line"/>
      <point x="218" y="440" type="line"/>
      <point x="180" y="478" type="line"/>
      <point x="180" y="160" type="line" smooth="yes"/>
      <point x="180" y="56"/>
      <point x="236" y="0"/>
      <point x="340" y="0" type="curve" smooth="yes"/>
    </contour>
  </outline>
</glyph>
<glyph name="yeru-cy" format="1">
  <advance width="860"/>
  <unicode hex="044B"/>
  <outline>
    <contour>
      <point x="368" y="0" type="line" smooth="yes"/>
      <point x="485" y="0"/>
      <point x="580" y="94"/>
      <point x="580" y="211" type="curve" smooth="yes"/>
      <point x="580" y="327"/>
      <point x="486" y="421"/>
      <point x="369" y="421" type="curve" smooth="yes"/>
      <point x="212" y="421" type="line"/>
      <point x="212" y="261" type="line"/>
      <point x="369" y="261" type="line" smooth="yes"/>
      <point x="398" y="261"/>
      <point x="420" y="239"/>
      <point x="420" y="211" type="curve" smooth="yes"/>
      <point x="420" y="183"/>
      <point x="397" y="167"/>
      <point x="368" y="160" type="curve"/>
      <point x="202" y="160" type="line"/>
      <point x="240" y="122" type="line"/>
      <point x="240" y="600" type="line"/>
      <point x="80" y="600" type="line"/>
      <point x="80" y="160" type="line" smooth="yes"/>
      <point x="80" y="56"/>
      <point x="136" y="0"/>
      <point x="240" y="0" type="curve" smooth="yes"/>
    </contour>
    <contour>
      <point x="780" y="0" type="line"/>
      <point x="780" y="600" type="line"/>
      <point x="620" y="600" type="line"/>
      <point x="620" y="0" type="line"/>
    </contour>
    <contour>
      <point x="426" y="-167" type="move" name="below"/>
    </contour>
    <contour>
      <point x="426" y="759" type="move" name="accent"/>
    </contour>
    <contour>
      <point x="426" y="969" type="move" name="above"/>
    </contour>
    <contour>
      <point x="319" y="8" type="move" name="bottom"/>
    </contour>
  </outline>
</glyph>
<glyph name="softsign-cy" format="2">
	<advance width="710"/>
	<unicode hex="044C"/>
	<outline>
		<contour>
			<point x="240" y="0" type="curve" smooth="yes"/>
			<point x="438" y="0" type="line" smooth="yes"/>
			<point x="555" y="0"/>
			<point x="650" y="94"/>
			<point x="650" y="211" type="curve" smooth="yes"/>
			<point x="650" y="327"/>
			<point x="556" y="421"/>
			<point x="439" y="421" type="curve" smooth="yes"/>
			<point x="212" y="421" type="line"/>
			<point x="212" y="261" type="line"/>
			<point x="439" y="261" type="line" smooth="yes"/>
			<point x="468" y="261"/>
			<point x="490" y="239"/>
			<point x="490" y="211" type="curve" smooth="yes"/>
			<point x="490" y="183"/>
			<point x="467" y="167"/>
			<point x="438" y="160" type="curve"/>
			<point x="202" y="160" type="line"/>
			<point x="240" y="122" type="line"/>
			<point x="240" y="600" type="line"/>
			<point x="80" y="600" type="line"/>
			<point x="80" y="160" type="line" smooth="yes"/>
			<point x="80" y="56"/>
			<point x="136" y="0"/>
		</contour>
	</outline>
</glyph>
<glyph name="iu-cy" format="2">
	<advance width="985"/>
	<unicode hex="044E"/>
	<outline>
		<contour>
			<point x="614" y="451" type="curve" smooth="yes"/>
			<point x="697" y="451"/>
			<point x="765" y="383"/>
			<point x="765" y="301" type="curve" smooth="yes"/>
			<point x="765" y="218"/>
			<point x="697" y="151"/>
			<point x="614" y="151" type="curve" smooth="yes"/>
			<point x="531" y="151"/>
			<point x="464" y="218"/>
			<point x="464" y="301" type="curve" smooth="yes"/>
			<point x="464" y="384"/>
			<point x="531" y="451"/>
		</contour>
		<contour>
			<point x="614" y="611" type="curve" smooth="yes"/>
			<point x="443" y="611"/>
			<point x="304" y="472"/>
			<point x="304" y="301" type="curve" smooth="yes"/>
			<point x="304" y="130"/>
			<point x="443" y="-9"/>
			<point x="614" y="-9" type="curve" smooth="yes"/>
			<point x="786" y="-9"/>
			<point x="925" y="130"/>
			<point x="925" y="301" type="curve" smooth="yes"/>
			<point x="925" y="472"/>
			<point x="785" y="611"/>
		</contour>
		<contour>
			<point x="94" y="0" type="line"/>
			<point x="254" y="0" type="line"/>
			<point x="254" y="600" type="line"/>
			<point x="94" y="600" type="line"/>
		</contour>
		<contour>
			<point x="174" y="221" type="line"/>
			<point x="417" y="221" type="line"/>
			<point x="417" y="381" type="line"/>
			<point x="174" y="381" type="line"/>
		</contour>
	</outline>
</glyph>
<glyph name="ia-cy" format="1">
  <advance width="737"/>
  <unicode hex="044F"/>
  <outline>
    <contour>
      <point x="290" y="0" type="line"/>
      <point x="424" y="159" type="line" smooth="yes"/>
      <point x="445" y="184"/>
      <point x="454" y="211"/>
      <point x="454" y="236" type="curve" smooth="yes"/>
      <point x="454" y="291"/>
      <point x="410" y="339"/>
      <point x="340" y="339" type="curve" smooth="yes"/>
      <point x="298" y="339" type="line" smooth="yes"/>
      <point x="269" y="339"/>
      <point x="247" y="361"/>
      <point x="247" y="389" type="curve" smooth="yes"/>
      <point x="247" y="417"/>
      <point x="270" y="440"/>
      <point x="299" y="440" type="curve" smooth="yes"/>
      <point x="535" y="440" type="line"/>
      <point x="497" y="478" type="line"/>
      <point x="497" y="0" type="line"/>
      <point x="657" y="0" type="line"/>
      <point x="657" y="440" type="line" smooth="yes"/>
      <point x="657" y="544"/>
      <point x="601" y="600"/>
      <point x="497" y="600" type="curve" smooth="yes"/>
      <point x="299" y="600" type="line" smooth="yes"/>
      <point x="182" y="600"/>
      <point x="87" y="506"/>
      <point x="87" y="389" type="curve" smooth="yes"/>
      <point x="87" y="273"/>
      <point x="181" y="179"/>
      <point x="298" y="179" type="curve"/>
      <point x="299" y="179" type="line"/>
      <point x="281" y="240" type="line"/>
      <point x="80" y="0" type="line"/>
    </contour>
  </outline>
</glyph>
<glyph name="dje-cy" format="2">
	<advance width="734"/>
	<unicode hex="0452"/>
	<anchor x="160" y="701" name="bar"/>
	<outline>
		<contour>
			<point x="654" y="19" type="curve"/>
			<point x="494" y="19" type="line"/>
			<point x="494" y="-30"/>
			<point x="454" y="-70"/>
			<point x="404" y="-70" type="curve"/>
			<point x="404" y="-230" type="line"/>
			<point x="542" y="-230"/>
			<point x="654" y="-119"/>
		</contour>
		<contour>
			<point x="494" y="19" type="line"/>
			<point x="654" y="19" type="line"/>
			<point x="654" y="301" type="line" smooth="yes"/>
			<point x="654" y="470"/>
			<point x="514" y="611"/>
			<point x="344" y="611" type="curve" smooth="yes"/>
			<point x="240" y="611"/>
			<point x="149" y="559"/>
			<point x="92" y="480" type="curve"/>
			<point x="222" y="386" type="line"/>
			<point x="252" y="428"/>
			<point x="296" y="451"/>
			<point x="344" y="451" type="curve" smooth="yes"/>
			<point x="425" y="451"/>
			<point x="494" y="382"/>
			<point x="494" y="301" type="curve" smooth="yes"/>
		</contour>
		<contour>
			<point x="80" y="0" type="line"/>
			<point x="240" y="0" type="line"/>
			<point x="240" y="800" type="line"/>
			<point x="80" y="800" type="line"/>
		</contour>
	</outline>
</glyph>
